<mxfile host="app.diagrams.net" agent="Mozilla/5.0 (Windows NT 10.0; Win64; x64; rv:128.0) Gecko/20100101 Firefox/128.0" version="24.9.1">
  <diagram name="Page-1" id="hWmcmiy76T7Bb3zCSREP">
    <mxGraphModel dx="2661" dy="988" grid="1" gridSize="10" guides="1" tooltips="1" connect="1" arrows="1" fold="1" page="1" pageScale="1" pageWidth="850" pageHeight="1100" math="0" shadow="0">
      <root>
        <mxCell id="0" />
        <mxCell id="1" parent="0" />
        <mxCell id="FR8kBGyASRBOxjCdUhm_-16" value="" style="rounded=0;whiteSpace=wrap;html=1;fillColor=none;dashed=1;" vertex="1" parent="1">
          <mxGeometry x="200" y="80" width="160" height="440" as="geometry" />
        </mxCell>
        <mxCell id="FR8kBGyASRBOxjCdUhm_-7" value="" style="group" vertex="1" connectable="0" parent="1">
          <mxGeometry x="240" y="90" width="120" height="190" as="geometry" />
        </mxCell>
        <mxCell id="FR8kBGyASRBOxjCdUhm_-5" value="" style="shape=image;verticalLabelPosition=bottom;labelBackgroundColor=default;verticalAlign=top;aspect=fixed;imageAspect=0;image=data:image/png,iVBORw0KGgoAAAANSUhEUgAAAdkAAAMACAYAAABo6R3MAAAABGdBTUEAALGPC/xhBQAAACBjSFJNAAB6JgAAgIQAAPoAAACA6AAAdTAAAOpgAAA6mAAAF3CculE8AAAABmJLR0QA/wD/AP+gvaeTAAAAB3RJTUUH6AcHDhkx2XRTzgAAgABJREFUeNrt3Xl4XGXZP/DvfWaytGnJJGkppMnMmaUNEgEliOyURWQRRRFQZFFUXPgJvIob7vuGiAuKAi4sKiAIiIKylR2EChQCtJ3lnElaKG2TSds028y5f3+0Ikvpksz6nO/nurze6xVJ8tz3c873ec6cOUdAxuju7q4fGRqJqKW2BUQhXofCahPRWVDMBtAGYMam/9Rt+tdCAATQPCDrNv13owBGAOSgWCWCNQpdoyprxIIrQKYg4mQymX4ABVaeiGjzhCWozTAdHx7e1fNkd4i3m4jsoapvAKQdgFXGP2UCQBaCXqguFrUWFwJYnMlkkgxfIiKGbE2wbXunoCdvgaX7q8oBgO4FoKGK/+QNgDwO0UXiyf3Bwvhdzy1fvoadJCKGLFXc7nPmNG1omH4oRI9S4AgA8RofkifAUxDcBuC25ra2BxYtWjTBThMRQ5bKoquzsz0vgfeKhXeo4qAq36lO1VoAd0BwcwG4yXGcHGcAETFkqah2mTu3bSJQf4yId4ICRwIS9GEZxgR6u6p1ndQHbkwmk2s5M4iIIUuTsgAI9tn2O6DyEUCPBBBgVV4yAuhfPM+6NNOXuY/lICKGLG2Trkgkmof1EUA/CKCdFdnqxHxOoZcFJhr+sHTF0tWsCBExZOk14uFwD0TOAfB+n14OnqoxQK+1gO8tc91nWQ4iYsiSFY9E3gVYnwF0f5ajKDwAN0O9C1LZ7AMsBxExZH0oFo4dLuL9EMCbWY2STdsHRPTLScdZyFoQEUPWN+Fa+B4ge7Ea5aJ3qBc4P92XfpS1ICKGrIESkcieKnIRFAeyGpVJWiiu1aD1uXQ6nWU5iIgha4Bd5s5tm6ir+yoUZ4Ffw6kGIyL4WaCh4TtLlixZx3IQEUO2NgUSkcg5CvkagB1Yjqrb2PaLWp9OZjPXsRZExJCtIbGO2G6W5V2mgr1Zjaqf2n9H0PpEKpXqYy2IqGK7MpZg62zbbpwVCn0ZoldCEGZFasJ8ePrhlubQyOBQ7lEAypIQEXeyVSYRibxZIVcDeAOrUbPulnzwtOTyZD9LQUTlZLEEr78AiYXtcxTyEAO25h2iwfzTsUjkZJaCiLiTrbD5HR1zC4HgFQAOZTWMm/C/bdjQdE7vqt71rAYRMWTLbF40epDn6TUAdmI1jLVE1Ds+mc32shREVEq8XPwy8XD0TM/TOxiwxutSsR5KhKPvZSmIqJR4dzGA7tndM3bYselKAF9gTXyjAYITWppDDYNDuYXg3cdEVAK+v1wciUR2DsL6G6A9nA6+dVuwseFEPimKiBiyRRTvjL8RVuHvAL/7ygMBT1qF/DFL+/uXsxpEVCy+/Uw2Fo4dDqtwPwOWAECBPQqB4P2JcHhXVoOIGLJTkAhHTxTx/gGgmVOAXsZWsR5I2PY+LAURMWQns4ONRE5W8a4GUMf202aEPMUd8UiE35EmIobs9ojb9scEciUgQbaeXo8ATYD8LWHbb2c1iIghuy072LB9DhS/Ar8bTNtmuipuikUiR7MURDSFRbsPAta2PySKy8GvLNH2GxfBO5OO80+WgogYsq+SCEffq6J/Bh8yQZO3wfPkyExf5j6WgogYspvEI5F3A7iWn8FSEeQEemjSdR9nKYjI9yEbjUb3tjy9G8B0tpmK5HnPkn0zmYzLUhCRb0N2fjgcK4j1EIAd2WIqsmcKgv0dx8mxFES0NcbdabvL3LltBbFuZcBSiewaUPy1u7u7nqUgIl+FbHd3d/1EMHgjgPlsLZXQgpH1G37JMhDR1hh1x+3M6TN+JsDxbCuVmgB7traEXhjM5RaxGkS0hXOFGWKRyAcEchVbSmU0AfUOSWWzD7AURGRsyEaj0T0sTx8E7ySm8ns+D+1xXfd5loKIXq3mP5Pt6uqaaXl6PQOWKmTnOpE/gI/rJKLNqPnPZENNM38DwSFsJVVQvDXUvG5waOghloKIXq6mLxfHIpHjBfIXtpGqwJgl2GeZ4zzBUhBRzYdsYm6iA8H8kwq0so1UJZ4dmRjfa8WKFRtYCiICavdzJNHgxO8YsFRl3tBYV/9tloGIanonu+nVdb9l+6gKeQI9IOm6/HyWiGovZG3b3imo6OUulqr4qHoq1NbWs2jRogkWg8jfau5ycQD4GQOWqppit9zq1Z9jIYiopnay8UjkKED+wbZRDRgNqNe9NJtNsxRE3MlWvQVAEJAfsWVUIxoLYnG+EjFka0O/bX8KQDdbRjXkPYlo9AiWgci/auJy8fz2+bMKdeNLAbSwZVOyCsAyVawXC0OiWKeC9QKMeCozRLVJRWcIEAIQAmQegGaWbUoWp1xnTwAFloLIf4K18EcW6sa+BggDdtt5AJ5QyEKIPm2pPjdaKCzp7+8f2N4fFIlEdg4Cu0BkPjy8CYJDwff1bo/d4+HoGals5lKWgog72aoTjUYjlqdLADSwXVuUBfQmAHePFQr3TCZQt/nKQkfHXM+qO1Shh4rgnbzbeysUfVIfnJdMJsdYDCKGbFWJRyKXAvIRtmqzRiC4RTy5MpnN/AMVuCTZ3d1dP7Zuw9vV0lOheBeAerZlc0ErZ6eymZ+zEEQM2aqR6OyMqxV4FkAdW/UKz0Lww6aRkesWr1w5XC1/1MbPzic+COinAezMNr3C8yMT4wk+15jIX6r6VXctra0XAdiTbXrJ46JydirrfGowl3t85fBwVT1RaM26NRsGh3IPNreELhbBCtl4N3iIbQMAzKwLWIN8HR4Rd7JVIR6PdyJfSHEXCwBYqmp9Jp1N/x2A1sof3dPTUze0euB0hX4HwI5sI5Y3zmiK9fb2jrMURP5Qvd+TzXvnMGAxIoJvSF1w93Q2fUstBSwALFq0aCLpZi4rCLog+Bn4NZa5o8PD7+dph4g72YpKJBI76EQ+C19/R1P+HoT3qSWumzFlRLHO2FvE8i6Bnz8CEDyVcpw9am3BREQG7WR1YuKjPg7YMVWcm3Izx5oUsACQ7ks/2uk6bxXBN7Dxu7z+o9gtYdt8ChQRQ7Zyf5NCzvJpP1JQb/901vmpqTudhUA+6ThfF0/eLcCAH5usirN56iFiyFZEIho9XICoD3txo9QF90xls4v8MNhkX+bmgiV7AvqYD3v99ng83snTDxFDtuw8z/uo35ogwO86XeeEZDK51k/jzmQybtPo6AIAt/ms5QGdKJzB0w8RQ7asotHoHIG8y1cBK/hB0nXOWAjk/TgBF69cOdw4o+ldAP7kr77rR1Dl31MnIsNC1vJwGvzztR0V6FlJx/mC3ydhb2/veMp1TgHUR48dlI64bb+NpyAihmz5TjvQD/in9PrZpOv+klPwJV7Kdc9RyOX+mQJ6MttOZPhyulr+kGg02mV5+pwvii74AXewrysQj9jXAniPD8a6bqyQn9Pf3z/CthNxJ1va4CnoSb7YvECvSjrOFzn1XldhrJA/BYL7fDDWmQ3B4NvZciKGbBl2d3qCD+p9T9h1PwQ+7WeL+vv7R8by+eMAOD5YdZ3EjhMxZEsqGo12AfJGw2u9KugVTl7o07uIJxG0A5bgfQAmzB6pviORSDSw40QM2ZIJqB5teJ09EZy6pK9vBafctlvmOI8AavildZnhjXsHsttEDNnSJZCHI43eqyh+kHScf3K6bb+U616ogr+ZnbN6FDtNxJAtid3nzGkSwUEG1/iZltltX+NUm8IaReSjAHLGZiz0SLaZiCFbEusbmg4B0GhwRnxq0aJFE5xqk5fJZFZC5asGD3HXaDQaYaeJGLIlWMZ7hxobr9CrUq57F6fZ1KWymV8C+I+xu1nVQ9llIoZsKexnaG1zalnncYoVTcESfBKmvodWZX+2mIghW1QdHR3TBHizkedMxU8ymcxKTrHiWeY4jwjkr0buZKEHsMNEDNmiagwG3wqg3sC6rsvD+zmnVwnCSPTbMPNhHvMTicRsdpiIIVtM+5oZBPhlNpsd5PQqyW72CUD+YeRmdqywLztMxJAtGlXsZWBNRydUf8qpVcJJK/otIwcW0B52l4ghW8SUxW6mFVQhV7uu+zynVkl3s48AeNi4uaPYnd0lYsgWxe5z5jRBEDduM2LhCk6r0hPolQYOazd2loghWxQbpk3bDVX20vgicJdlMvdxWpXeaKHwZwBjhg0rlkgkdmB3iRiyU6cmvnVHrwBfY1cW/f39AwBMuwFKkM/vyu4SMWSLkLE6z7RiepZ1NadUGecQ9CrjBuXJPHaWiCFbDLZhtXQzmcwSTqkyCgTuBFAwauEgxh0XRAzZComatauSOzidyiudTg+JYpFJYxJolJ0lYsgWIZVMO5l4d3M6VYRRL2BQcCdLxJCdot3nzGkCZJZJhazzGLKVUICY9pYj7mSJGLJTs6G+fifD6ugs6etbwelUftNHpj8Es+7o3oldJWLITokEArMMq+NznEqV0buqdz2gyw0aUuPGKz1ExJCdpIKqUSErypCt8DQ26q7uddOnz2JPiRiyUwglq82kInoW+NWdClKYVf+A57Wxq0QM2cmfFC1tNWsnq0s5lSpZf7OuJBQMW4QSMWTLH0pGfeakgUA/p1IF6y/ecqMOSvFmsKtEDNmpaDBq51EorONUqmDIqmVW/UXq2VUihuwUziFmnURmbJjBkK2ggKVm1d+TBnaViCE7+XOIwqSQ9XpX9W7gVKpkBzyjQlYE3MkSMWSndBox6SQyDMDjVKpgxgaDhl1J8LiTJWLITi1lWXoq3s5PjHqHr8Li8UHEkJ3KSVEnDKphEyr7NiOG7MTEDkYNSDHOrhIxZKdwElGTTiJW9+zu6ZxKleyANdOs8egYm0rEkJ3KrzVpJ4v109fP5FSqnIInRtVfwZ0sEUN2akZNKmIgEGDIVpCIZ1b9lTtZIobs1JbqOaNO8oXCXE6lCtZfLaPqL8Agu0rEkJ3KScSokFWRLk6lStYfRtXftOODiCFbZh7EqJW65YEhW9FQ8oyqf16EO1kihuxUTop5o04iKtiFU6miDTBtkcOdLBFDdgohq/qCUed4cCdbKbvPmdMEQYdBQxp1HGeInSViyE5aPhBYvjGbzCBAdH5HB29+qoB1DdP3g0lPEFP0mXRsEDFkK8BxnFEAq00qZD4QWMDpVIkFjh5i2ID62FUihmwRFuxYblgpD+F0qkgoHWrYePrZVCKGbBHOJXDMKqUeyulUXrFYrFmgPWZNI3XZWSKG7NRDVvGcWRsQRGOx2HxOqTIqFA4DJGhUxgJL2FgihuzUTyaWeScTy/NO5pQq58JGPmDcmFSfY2eJGLLFOJkYF7KqOB18V25ZhMPhFgDHmDaFpL5+GbtLxJCdsrzIszDvqwp2tDN6AKdV6QUt6yQADYZl7PJkMrmW3SViyE6Z4zg5AGnjCmp5p3FalZ4ojKuzijzOzhIxZIt4psR/DDz9nxyPx3fk1CqdaDS6N4B9jRuYh8fYXSKGbPFW7h4WGVjT6TpROJdTq5S7WP2yoQNjyBIxZIv6600MWYjgLNu2Q5xexTfPtt8kineYODa1zDweiBiyFTJtZNrDACYMrOsOAZX/x+lVfB5wPoy8g1uTmUxmJTtMxJAtmt5VvesVJn4uCwD6aX42W1yxzthboDjeyNkC6x52mIghW3QCvdfQ2rZgovBDTrHizVVLvF9Uw5wtyeAUDFkihmwpVvAGn1wEp82LRg/iNJu6RCTycRXsber4vKAwZIkYssU3bcOMewCMmRqznudd3NPTU8epNnnRaHSOQr5j8BCXptPpLDtNxJAtut5VvetFcK+5JZY35lav/iqn2uQLaHl6CYCQqQNU4O9sMxFDtpRuNTwnzk9Eo0dwum2/mG2fA+A4o2cH9BZ2moghWzKeZZm+krfU0ysikcjOnHLbEbCdsbeI4geGD3Nt44wZ97PbRAzZkkmn00sheMrwWs8JQq4GEOC02zrbtkOwvGsA1Bs9UMWtvb294+w4EUO2xCcbuc4H9T4kHon8Dnwd3hZ1d3fXB1SvEyBq/GBFr2HHiRiypc/YgPjkZCOnxiPRb3Pqva7AyPr1VwNyuA/Gum6sULiNLSdiyJZcOp1eqsAT/ii7nh8P22dz+r1W3LZ/KZD3+mK5Bbm5v79/hF0nYsiW548RXOGbygt+Eg9HP8op+L+KxCLRH0Nxpl8GrPCuZtuJGLJlE5yYuALmPpjitbUX/U3Ctr/v90m4AAjGItFLBfpp/4xa+1Ou+y+egogYsmXz3PLlawTiq+8MquLzsUjU2Gfybk17e/v0voh9k0A/7Kttu8jlAAo8BRExZMvKg/dbvzVBoGfFIpFrurq6Zvpp3Im5iY7Guvq7ABzts5Z7eeD3PP0Q+eH8XoXBH49ElgCS8GE/llqCk5Y5zhOmDzQWiRwtwB8AmeXDPv8j5TrH8PRDZL5gNa7yofJzCH7qw37M9xQPxWz7/9KOc4mJA1wABPsike8Cch58+n1hT+UinnpoMhuQRCLRls/n2wKe1yYaaIOgwROvXtRqAgC1dLoAI/BERbwC1FoLAAUgF7R0lRcIrBkZGVmzYsWKDSynf3ey6OrqmpkfHesHsIOPO3OzJ3J2JpNxTRlSIhLZU0UugeIt/j3k9OmU6+4OQHn6odccI3MTHVqXf6OoxhSIKmALYAMSBrBjEX/VCKDLATgAMgI4HuBYwHOoq+tNJpNj7IbBIQsAsYh9oQD/5+fmKDAMwbenNTVdWMuP3rNtOxRQ/RYgn4DPHysp0I8kXfdynnrItu1dLGBfAd4ExW4C7KFAaxWcefKALIXiKbHwpOdZj04bmfZw76re9eyaQSE7v6NjbiEQTAFoYJvwLKCfSbluTb2taAEQ7LPtU6D4PoA5bCNWFARxx3FGWQrfCSRs+y3q4SBY2B+q+9XY/QgFAE8C+gBEHgiM19+5dMXS1WxrDYcsAMTD9iUQfIxteqlZT6rKhals5ioAXrX+nT09PXW5VQPvh+iXAMxn5zbtDxTnprPOT1kJf5jfPn+WF5w4RC09HIpjAZj0Fi4PkMdF9A7Ps+4IZ9MLFwJ5dr3GQta2bTugWAqgjq16RdeeUtXveyI3VNOuyLbtUMDDaQDOg6CTjXqFF8YK+Rgfo2i2SCSycxDW8YB3EiD7wT/ff39RgOshuDbpOPdW8yaAIfsqsUj0Mr89qGA75AC9zvOsKzN9mftRgZtpenp66oZWDRzpiXeaQN4BoJFt2ew+9ryU6/6YdTBPLBZrFs97HxTvA3Ag+DrL5wH9i3qBK9N96UcZslUuMTfRocH8UgDTeDhvUVoUNwNyF+oD9ySTybUl3LHuZAGHiOqhgLwLwGyWf4sB2z9WKMznLtYs8UhkP6h8FIITAUxnRTYbME8Cemle5GrHcXIM2WqdzLb9Ayg+xym7zQoKPCaCe1R1MbzAEqvBWjqZ4J3fPn9WITjaJSK7KLAHIIcC6GaJtyNiBWekHed3rETta29vn95YX3+6KM7icbBdNkBxrReQizKZzJMM2SoTDodb6sRKAWjhXJ2SFapIwsKQKNZDsA5ADip5AA0QnQkPzRCZAWgrNt601MayTekIeyrlOG8Gn1Nc06LR6BzL8/4fgI/79CllxVx23iEiFyQd51/wwffFa+aJO7GwfY4ILuIEpRo7oRxda1+9ov/ZePOlng/IaeDXCYu+AFXge2nHuQYG3yhVMyG7AAj2RexFAHbn7KTayFfclMo6x7EQtWfTk5c+u+n9xryZr7SegcoPqv2ricaHLAAkbHuBKu7mnKQaMFIQ7Oo4jsNS1I757fNnFerHvwzFxxiuZfc4oF8y7cpPTd1qPpDLOa2hUBeA3TgfqcrXr9/MuM7NrENt6OnpqZtW1/ApDRSuB7AA1fnyFNPtDMgHWkOhtza3hBblcjkjnihVc29BicfjOyKf7+XNB1TFnpG64J58yHqNnFMikaMEcqECu7AaVWNCFBePw/tmNpsdZMiWWSwS+YBAruI8pCpUsAT7L3OcR1iK6tbV2dmetwK/APBuVqNqvaiCc9OO8yeGbLlXn2H7RgjexTlI1UV/lHJdfqe7ys978XD0VIheCH5FrVb8QwPWJ9LpdJYhW95V6GIeJFRFlowV8m/mk52q1/xwOFYQ63Js/NyVass6gX4h6bq/Qg19v1ZqueJx2z4Oir9y7lEVmLAEB/IycfVKhKMnqOhvAIRYjVqmdwQ97/QlfX0rauGvrekHWQ/mcs+1hpo7ANmTE48qfOB/Pum617EO1ScWizW37RC6XEW/BX4txwAS88Q6rW2HliUDa3NLuJMtsd3nzGkabpz2KIA3cPJRReJV8a901jkKfL1X1YmHw/sD1p/46kUzDz1AL26cMeMzvb2949X6R9b8uw4Xr1w5LOq9F9D1nHNUAcs1IKcxYKtPIhI5C2LdxYA1d0sLyP8bXT+8cH5Hx1zuZEt9QIWjJ6roNZx3VEYTqtah6Wz6fpaieti23RhUXKzAGayGbza1q1X1fels9s5q+8uMebnwwFCut605FIJgH044Ks8KVc9OZZ3rWYkqWmzPTXSI5d0B4GhWw1dH43QRnNwaah0cHMr9myFbIrsP5e5cGwrtDSDBSUelDVj8Num6X2Elqsc8236TWt5d2PiKRvLfUWkBOLqtORQaGMrdjir5mo9lUokXAvlgY8OJEDzFCUcldE/DjKZPsAxVtIONRo/wFPcAmMtq+JsKzo1H7Ovb29unV8mC3DxdkUg0D3kYwI6cclRkzxQE+zuOk2MpqkM8HP0oxPslIHyoP/0v3BT/tvL1xyxdsbSiLxqwTCzuEtfNqGcdA2AdpxoV0QtB6DsYsFW0g41EPg3RXzNgaTM72r0LdeP3RCKRnRmyJZDuSz8G6LsA8E0oVAxDAj16ietmWIrqEAvbn1fIj2HoFTkqil2DkAcTnZ1xhmwJpFz3blE5FUCBc40mvSIGhgV6VNJ1H2c1qmQHa9vfF8H3WQnaBrZK4O5YR2weQ7YEktnMdVA5A3xYAE3OqGXJe5Ku+xBLUTU72O+q4vOsBG0zQacECnd1RSJRhmwpdrTZzBUQMGhpe42JyonJTOZfLEV1iEeiXxbBF1kJmkTSduQhC6PRaKS8+e6nFbBtf0gUl/llcUFTskHVelc6m76Dpaia4/dcUfyElaApht5zGgwcnEqlXmTIlmIlbNsnQXEFgHpON9o8XQ/gnSnXvZu1qKoF8uXgTU5UjCMceMKqCx6cTCbXlvp3+W5Hl3KcawA9Cvx6D21+1TkgwBEM2OqRsO0ForiEAUtFPM7fpOP5axcAJf/qV8CPBR4cGsq0hprvAeQ4ANM55WgTRwPWgpTjPMlSVId4Z/yNEP0XgCZWg4qctIm1oeadB4eG/saQLU3Q9rXMbP2riB4JQRtnnO89HvQKhydd12EpqkMkEtnZEr0bwBxWg0qUtD0tLaGxwVyuZG/SCvi5vINrBweaZs64OmhZbwVgc8L5dUEr1zeNjrzzmRUrBliN6tDT01M3vmH07wB2YzWotMc/DmsJNT81ODT0LEO2BNauXTvS3jH3T/nx8Z0A6eGU8xUF9Dsp1/nkyuHhcZajekyva/glBO9mJagcOSuQt7fMbL1hcO1g0RfavJHgZRKRyIcV8gsAjayG+esrhZ6Rdl2+D7bKbLqT+LesBJV5S/tU08jIvotXrhwu5o/l90VfJum6l6tnHQQgy2qYfTBpwHoLA7b6xMPhHlH8kpWgslPsNtw47dJi/9gAK/tKg2sHV8xs3uEPQbESAHZlRUzLV/xuZGL8Pdls9gVWo7p0z+6eka/L3w7hjU5UMbu1hJr7BoeGivaccl4u3uKqOnoaxLsYkBmsRs0bUuhZade9mqWoTrFI9DKBfpiVoMpuaDGMgLVnOp1eWoyfx8vFW5DKZq4oiLwFwMOsRg3vXgW3Bwr5bgZsNQds5D0MWKqK8wXQZOW9K3t6euqK8fN4uXgrcrnc6sGh3O9bQ81rATkQQB2rUjPWquDclOOcu2bt2rUsR3Xq6uxsV7H+AT4YhqonaeeObtggg0NDU37yG3ey26aQct0fa8HaA8BClqP6qeBvkg92px3nEgDKilSvvBW4GOADYajqfGGebb+pCDtj2l6xSORkgfwIQDurUW3pij6BfCaZzVzHYlS/RDh6gopey0pQlW5pF3W6mX0WAvnJ/gReLp6EwaGhp3bcac6lXt6rB7AX61gVRkTwvZGJ8fe7/X189nANCIfDLZbILQB4YyFVq/a1oZb1g0O5B7mTrdRKvLMzrhL4DgQnsp4V4Qnw54Il52cyGZflqKFjJ2JfrsAZrARVuQ0B9XZbms2mGbIVFI1G97Y8/T6AQ1iNcpG/exa+lMlkuHOtMfNs+62e4iGeg6gmKG5KZZ3jGLLVELad0QMtC18D9DBWo0TRKrjd86xvprPp+1mN2mxhPGI/CGAfloJqJmfVels6m76DIVsl4uHw/pDAFze9IJ53cU+dB+BG9azvp/vSj7IctSsRjp6ioleyElRjMft0p+u+eeF23gTFkC31zjYa7bIKei4Ep4HfA5zMxF4Plass0Z8tc91nWY/atvucOU3DjdOWAJjLamy3cQBJAM+JYqlaWKKqL1oiw+p560U1lw8EhgE0Bj2vSSxrRsGzZlrQkApswJuvKl0i2AXAjizn9hPo/0u67sUM2Sq0y9y5bRPB4AcF8hEFdmFFthquSRH5pWdZv02n00OshyG7WNv+oiq+y0psk3WA3Cvw7gJwd9J1FwMoFOMHz2+fPytfN3YQYB0q0EPA57RvqxcbNzTFe1f1rmfIVvPutjN6oBXQj6jieAGaWJH/nVQE+ItY8vtlmcx94EMkjBKLxZqtgpdWoJXVeF2rIPgTVK/pdN1/L5zC9zO3RyQS2bkO1jEqehoUBzAbthCagvOTjvM9hmwNaG9vnz6tvv5YKN4H4CgADT4sw5gK/mV5ct30sQ03FPtdjlRVu9ivq+JrrMRrjAvkb/BwRfOOrbcuWrRoopJ/TFckEp1QOVU2fsQVZ3teE5oDXsCKbesVNoZsFa3yxfOOEsWxAI40fLW/DsDtCr3eqqu7JZlM8rnChuvo6GhtCATTAJpZjZdsgOBSmQhekFye7K/Cv89KhKPv8US/JMCb2K7/UcXX01nnGwzZ2hWIdkb3syzvbQAOAWRvAPU1PB4PwBOq+Kdl4Z/NbW0PVnq1TuUVj0S+CchXWAkAwFpVXCx1gYtSqdSLtbB5i0UiRwvkSwD2ZfsAAENSFwxvywaBIVsDdp8zp2nD9On7q6c3AWiskZXevSJyv8J7AIHAA7x5yb/a29unT6urcwGZ5fcNEKBXeZb12Uwms7ImF0u2fRIUF4LPbQeg56Vc98cMWaN2A/YQgB1qYfalXIffDSYAQCIS+aRCLvZ5GZZ6Kv8vk83cbsSif9q0z6rii6jtK2xTPc31h2bNim3tqhxPhERUSpaqnOvj8RdU8bXQrLY3mhCwALB45crhpON83bNkb0Cf9m9rpWNw9eoTt3oA8BxARKUSt+13QjDPp8NfIYLD0lnnmybeg5DJZJ4cmZh4qwC/9W3MQj7DkCWiyvHwcZ+O/K6CoCfpOPcYvYpYsWJD0nU+LCqnArreh31+czQa3ZshS0RlZ9u2DcHb/DdyvSDlOm9zHOcFv4w4mc1cBS+4L6D9fuu2eDiTIUtEZRdQ/bDPzjEqgm+kXPez2Pi1NV9J9aWeDnreWyF4ylchC++kRCKxA0OWiMpmARAE5EM+GnJBIGcmHefrfu77kr6+FWP5/AIAD/ooZmfoeOEkhiwRlU02EjkCvnnTjuYBPSHpZi5j54H+/v6BptGRIwD1z/ueRT/EkCWi8p1zRE7yyVBVgI+nXPev7Pr/LF65clgDgXco8IRPhryPbds2Q5aISi6RSDRA8S6fJOz5Sde9nF1/rXQ6PVTnFY4B4PhhXRlQOYEhS0SlN1Z4O/zwIgDBT9OO8302/PUt6etb4VlyJIA15o/WO5EhS0SlZ+FE04eoins7Hec8NnvrMpnMEoWeBuPfDy17JTo74wxZIiqlAKBHmb2BxQCC1qkLy/RCdROkXfcfEPzI+L1sIHAsQ5aISiYWju1r+LuQFSofTKfTWXZ7+3Q6zpcAecDslMVRDFkiKt0uT8zexQJyYTKb+Rs7vf0WAnkErfcDWGvu/MdB7e3t0xmyRFSqjZ65Iavoa9ww/evs8eSlUqk+FXzN4CE2NtbVLWDIElHRRaPROQDeZOwALZzdu6p3PTs9NWHH+YUATxq7mwWOZMgSUdEFCjhw4znGSLelHOdGdnnqFgL5giVnwtDnOwvkIIYsERWdJ7qfoUObCKh3FjtcPJlM5t8QXGXi2BR4YywWa2bIElFxV/CCA8zcmeDKpdlsmh0ucl0LhW9ufO6zcQKW5+3DkCWiouno6JgGxR4GDq3gBawfsMPFl+zrSwnkWiN3s6r7M2SJqGjqrfoeAPXmnS3xl3Q6vZQdLlV9ve/CzM9m92XIElHRiOibTByXF5Dvsrsl3M1ms70AbjbwiNiDIUtExYyj3Q0c1MOZTGYxe1vqiwV6qYHDmm3b9k4MWSIq0olSjAtZgV7JzpZe2HX/BeAF08YVlI3HBEOWiKbKEmi3YWMatyYarmVrS28hkFfgT8YtPD0wZIlo6roikQggMwwb1t+Xrli6mt0t0yrNwKsGAt2VIUtEU5YHosbtQqDXs7Plk3TdxwGkzJpDiDFkiagIK3bzQrbO8+5mZ8seS3cZNiCbIUtExVix24YN6ZklfX0r2NkyzyMR0xY2HT09PXUMWSKa4k7WMmonqxDuYisxjwKBOzeu2YwRWLdqVSdDloimxFPtNGxEDNkKSKVSLwJ4xqQxFUQiDFkimhJLsKNR4/G8J9jVCu1mDXvPrKg1iyFLRFOiQJtBwxnv6Otz2dXK8BRLjBqPpQxZIprq5kNbDBrPsoVAnm2t0GSyzApZUWljyBLRpHV0dLQAEjRoSEvY1cqxYFrIKkOWiCZvumWFjDopCpaxq5UzPD5u1GsF1UIrQ5aIJs0DGo06KXoYYFcrZ8WKFRsAjBl0gDQwZIlo8js/yzLqRe1qYR27WvEumNMDYcgS0dQ0mDQYyxOGbKUjFkb1oJ4hS0STli+IYTtZXc+uVnrzZ9LVBOFOloimsPOzPJPuLIaIbGBXK27YnAml3MkS0ZSMGTWavFk3ctUiBaYZNJgJhiwRTX6hDoyYNB7P8mayqxWfUyb1YIwhS0ST3/iJGBWyIjKDXa04hiwREQBYlmXWZ5gq3MlW3g4GbcvHGbJENGnB0aBpNwqF2NXKSSQSDTDpASeq3MkS0eQ1FoaMulwM1QS7WkHj42bVX2SQIUtEk7Z45coRAGpMxgq62NVK1l/mGzUeD2sYskQ0FR5gzvN+BZgPgOfFim38ZBeTxmOJruZkIqKprdaBPoOGMz0Wi3WwqxXb+Rl1JUFFuJMloimu1qH9Rg0oj93Z1YptZd9o1qLBYsgS0ZTPjH1GjUYKB7On5WfbdgjQNxk1qCCyDFkimmIqGXW5GIAcyqaWXwBYsPH/GLSR9TyGLBFNkSeGhSzeNL99/iw2ttyRpKYtblY4jjPKkCWiqbEM+0wWsPJ1YwexsWV3iFnDEQfgreo1YQEQjEajewColdeKScy2vxCLRI6e39Exlx00PGPz+WWmjUmA49jZ8ol1xOYBht30BC+zaS5RlQnMs+3dVGUvQPeEokcFu6OmHzWmqwHrSQBPQPTRQD5//9L+/uVstTnikcgqQIy5xKrA8LQNTTv1rurlS9zLM3++CchXjFqoCc5POs73gmxv5Xep/ba9l3o4CCIHAXqAp2h+6SE6RiyDZBaghwE4DAoUAkHEI7aj0PtF5H7xvPuT2ewzMOjJQT7czz65qcem7GSbRqdteA+AK9jb0pdbIaeYtuPzPOspoHYuPxrFtm07qHq0Qo7pgx4ExYyNYeqrjLEFYkNxioqFeMR+XoDboHLbOAq3Z7PZQc6UmvIEgMOMGpHgNIZs6UU7owcINGrcwIJYbMw+qRaW+QnbPlBVjwHkaADdLMkWFQB5WOD9o2BZ12cymSUsSXVLhKOnqqhpgeQFoYklrpthh0snHrZ/D8Hphg0rl3KdVgDKkC3hOjgeiewLkZOgOAHAzizJpC0G9FoNBK5Lp9NLWY4q3I1Eo7tbnj5p3MAUl6SyzifY4ZLNm4jl6TIAdWad/XFfynEO4k62JCv6cLeKnA7IiQAirEixz3l4QhR/Kli4wnGcF1iR6tDT01OXW71mHYAGw4Y2FvQKsSV9fSvY5eKLRaIXC/ST5m2x8MOU43yeIVskXV1dMwuj4ycp9MMA9mFFyhK3eaj8XSCXd2Qzty4E8qxJZcUj9kMmzn8FfpJ2nU+zw8UViUR2DkLSMOkl7f/NWMFxSce5CeD3ZKe2CuuM7RWLRC/Lj46uUOilDNiyTuMgBO9S0Zv7IrYbC9vfjcViYdaloj2509CBnRmNRuewv8VVp/I5EwMWgFrj9Q/8b1NL28tKhKPHqHhnA3I4y1FVPIH+Q1W/n8pmH2A5yr2TjRxqbNAqfp/KOh9il4u0QYnF5kvBWwzzPl4AgGdTrrPrS4HBdm+b7tndM+Jh++x4xF6qojczYKtzAaSQd0Cs++MR+8FEOHrCAn5NrWwKIg8CGDVzk47To53RA9nl4lRTCt4lhgYsAH3glVOHthquI9OGPyyCLwLgJaPa46jiIqs+eEkymRxjOUq9m7XvBGDqW2x6Q7Pa3rxo0aIJdnoKu9hI5AMCucrU8Sn0vWnXvf6//3+ALX+diRCLNbfMbP58oX7iGhG8G8AMVqUmhURwpHreB9pCzeujicTTzz//vMeylEZbqLkDkMMMHd6OoxtG1w0O5R5kpycnHA63BMS6ydzzqeY9kU/kcrmXrujwcvGr7D5nTlM8Ev2KFDxHBN8A0MKq1D4Bogq5LLd6zdJEJPJhLjBLVWi5y+wB6rdinbG92OjJzY46sX4LYCeD5/9DjuPkXv5fMWRfVotEOHrCcOO0XkC/CSDEkhjJVshliYj9dCIcPYHlKGJhbXsnVXzF8GE2iOX9paOjo5Ud3z4x2z4Hhr/dSIBbN/PfUdy2jwTwQyh2YzX8tvHC7QWR8zKZzGJWY/IS4egJEL1EAV+Ej0L/knZdLtK2NWA7Y28Ry7sfQL3J4/Qs2ePV5xJfh2yiszOuVuDnAI7iYeBrnkJ+Z9UFvphMJlexHNtxDCUSO2g+/3MoTvPf6PW8lOv+mLNgy6LR6BzL04cB2IYP9RVf3fkvX34u1d3dXT9zWtN5sKxrAbyBhwE3tALsCc/7aEtzaHRwKPco+Nq9rQesbe+jhcJtgBzi02nzttaWkDuYyz3B2bB5XV1dM3Uif7sfzrOquHhwKHfPa2aJ35oej0QOFcjFCuzCQ4Be5+T5gBbkE+n+9FOsxWst2PgO5C+r4svgDWQTgL4r5bq3cma8djMzsm74byI4whdnDfW6N70X258hu8vcuW35YN3PFDiZ05+26eQp+EkB+JrjOKMsx0bzIpE3eBu/47gnq/HSHma9JXL4Msd5hLV4SSBu23+E4kSfjHdxynX22Nw/8MXdxbFI5OiJYN2TDFjaDnVQfC6g+E+sM/YWlgMSD0fPLEAeZcC+pjQzPNU7EtHoEawFkEgkGnwWsBDoH17/nxnMtu1QAPgBFGdy6tMUdip5EflxQ1PTV3t7e8f9Nvp4PL6j5POXK+QdnAtbNA7BaSnHucavBeie3T1jrGn4BlW8zU99l7pgx+vdNGlsyMYjkUMAuRLAXB77VCT/EfVOS2azvb4J2Ejk3QB+A8gstn+bFFTwqbTj/MpvA49EIjvXQW5VYA9fDVxwbcpxTnq9f2ziTQuBhG1/DZDLADTzmKci2hkiZ7Q0h9YPDuWM/vytvb19+o5tbRcAciEg09n6bWYJcExrqDk+ranpn+vWrfPFc47nRaMHieKfAOb5reGq1rmDQ4Pp189gg8RisbAU9I+A7s9jnUp6YEGvmrZhxid6V/WuN21siUhkX914FSjOTk9lg4MnvYB1YjqdXmryoiIeiXwRwNcB8eEbrzSZct0uAK/7PHRjbnyKRSLHSMF7ggFL5TmByilj04cfjXXEjHlK2AIgGI9EvqnAvQzYYizEsIcUvMcS4egpJo7Ptu2dErZ9GyDf9mfAAgJctKWANWUnK/FI9EuAfgN8FjOV34iofCyZzVxZ04vUWGy+lfeuVMHebGlJEvef6lmfSvenlxkwmkA8HP0kRL8FX38kp6tHJiYiK1as2LDFYtXyELtnd89onj3jj4CeBT6HmSqjDoJ3t7aEWgdzudtRg0+Kioejp4l6N0EkynaWbMuTEEs/3toSmtXZ0HDfyuHhmvysNh4O97Q1t9wAwUcANPq6pSI/cvv6bt+G3W6Nrrw7YvMk4N0IYFcewVQl/qEB6+R0Oj1UEyfMeHxHLRQuE8WxbF1ZOVD5buPM6X+ola+EJcLhboh1vgLvA68YAsAIggE7lUq9aGTIJmx7H1XcDGA2e01VRbGsYOGdjuM8V+XH0NtV8TsAO7NpFbNSFT8ZzY//fGuXHCslGo3ubnneeYCcDD5C83/BqbgomXX+b9suYtTa5QrbPgmK3/v9UgVV8QEIDCj02JTrPlhtf9vuc+Y0DTdM+zEEZ4IfsVRN2Irg9/C8K6vhO9jt7e3TG+vq3m2JnK6KwzlPXr2OxrBaEs9kMiuNC9l42P4cBN9n06kGbBCV9yWzmb9Vyx+06Z2eVwGYz/ZU7RJtkapeWRC91nXd58v1WxcAwb5I5CConArB8QBmshevm5o/TDnO57dj0V0TrFgk+nOBfpIdphpa8+YF+HjSdS+v8B8SiEei5wP6FQB17EutbJjwDAR3Arh7wvPuyWazg8U8p86z7d0VOASqhyrkYAbrNlkXmKiPLV2xdLUxIbsACGYjkd8J5BT2l2rzZKlfSbnudyrxy+eHw7GCWFcC2I+tqGkFACkVLBHV5wTW0oKHJQjixbqJifX5+vr1L7/hLpFINIyOjjZNt6yQWtYOnmpUVeZbgq5Nr/l8A4AQy7rd29ivptzMt7Zv41vFuru760fXD/8JwHvYXKrxrL0g5bqfLedvjEUiZwjkIu5QfGUtgGm8YlES7lgh/4b+/v6R7fmXqvZusfb29ulS8P4K8OsFZMQKeL+WUKh5cCj3r1L/Jtu2Q23Nod8K5EsAGlh7X2kA7wIuzRGs8jGnL/vk9v57VdmM9vb26dPq6m8BfPW6JDL9IAX2bW0JtQzmcv8s1e+I2/aRluJfAPZlxYmKdvDel3KdSV2JqrqQTSQSDQGVm0RwODtLBnpra6i5bXBo6LZi/tCOjo5ps1tafgLIT8HLw0RFpHlL5D0DudwLNR+yPT09dSPDw38R4Gg2lgxeFu/d1hxqHhgqzo42EYnsGbAC/wTkGPDrbURFPlzlgqTjXDXZf72aQjYwvb7hSgGOZ1fJ/AMX+7SGWgqDQ7l7p/JTYmH7HIhcA2AnFpWoyHtYIDNjdOR9U3nWdLWErMTD9m8h4Nd0yE8ObWkJvTiYyz22vf+ibdt26w6hm0TwMfBGF6KSZKxA3/vc8uVTeh9wVTzoOR6JfguC09lT8t2GVvGLuG2/b3v+nUQ4empA8YQIDmIFiUqWsZenXPeuKR/jFQ9Y2/4YFJewoeRj457KOzLZzBZfmxUOh1vqLOsSKE5kyYhKma9Y1jjStGfvqt71NR2ysUjkGAFuBCTIrpLPrYUX2D/Vl3p6s8dKOHyYiPwekA6WiqikCZu3RA5Y5jiPFOOnVSxkY52xvcTy7gEwnU0lAgCkAhP1+7z8uai2bTdaiu8KcC545zBRyYng/KTjfK9oP68Sg7Bte6eA6qNclRO95oi8T4LBtyWTybFoNLq7pXoVFLuxMERlOQDvTLmZIwB4xfqJZb8rMZFINEjB+wcg3Wwo0WtEoF64tbk5Loo/A2hnSYjKQNEn9cEjBgYGhov5Y8v+WahOTPwcEL4RhOj1D/bTeGWYqKzGVK3jU8nkqmL/4LKGbDxsnw3go+wnERFVz8JWzk73pR8txY8u23J5nm2/1VPcC6CeHSUioqrIV8gv027mrFL9/LI8jMK27VBB8ScGLBERVZFbw27mnFL+gnKErAQUvxUgyn4S0SS8AGCCZaAi+0/jhqYTFwL5mg7ZeNj+FIB3s59EtN0rdMj1dfmJN0JwGor4tQryvWwe+o5iPNFp63O4hGIdsd0k4D0KoIE9JaLtsA6Cs1OO8/uXzie2/QlR/JKloSl6QQPWwel0emk5flnJvie7AAiubQndAqCTPSWi7fAwCoEjU9nMKx7OPpjLPdYWap4A5DCWiCYpJ9AjUo7TW65fWLKQDUQi3wDwPvaUiLbRBKBfS7nuGYNrB9ds7n8wMDR0X1tLaBqAA1gu2k5r1bPelso6i8r5S0sSstFodG9R/R0gFvtKRNtgiXrWMemscw0A3dL/cCCXu6M11BwEhK/6o201BPWOSfc5D5f7Fxc9ZG3bbgwqbgNkR/aViLZCBbhkZGL8+OzyrLut/9Lg0NDdraHmPCCHsoS0FWug3ttS2ewjlfjlRQ/ZtubmrwJyPPtKRFvxoqicnMw6P1m3bt12f0VncGjovtZQ83pA3gY+h5I2b6VnyeFp132iUn9AUUM2Go12ieIqVOCZyERUQwQ3S13wyGQm/fhUfszg0NBDbaGW5YAezY+n6OUUyKBgHZrJZp6t7FQv4s+KR+w7ARzC9laNFwBkADgQ9InqShVZo561BsBowPLWeZ73vy9iizSoBqZbltfkqbaJyiwV7CRABICNjQ8UaWFZaQqnvvVQ69OpbObSYv7UuG0fCcW1AGayxiSKfxcC8s5MJrOy8uvJIkmEo6eq6BVsb8UsEeBBhfxHRJ8a97zF2Wx2sNi/JBKJ7FxnWbuphz2g2gPR/fleYNrGncUjKFinpvvTy0rx8xORyJsVcgv4ekC/u3FkYvwDK1as2FAVgV+MHxKLxZql4C0FwJudyseF4jZYuC0wXn//0hVLV1fqD4nFYmErrwer6FEAjgDQxvbQy+I1LyLf6XCcby8s8SPsYrFY2Cp4NyuwB+vuy4XcT9Kucx6q6OlgRQnZeCTyQ0A+yxaXXK8qrrXgXZ/MZnur9G8MxCORt4rKCSr6Xu5yfX/aS4rIqUmnfF+daG9vnz69ruE3Cv0A6+8bG0TlY8ls5qpq+8OmHLLzw+FYQaxnwEcnluoktRqw/gDP+n2qL/V0jf3xVrQzur8l+mEITgAwnf301dy9rHHDjP8rx/NhN7v4D9tnQ3ABgDr2wmgpz5LjM5nMk9X4x005ZGORyHUCeS/7XHQPQvBzCQb/mkwmx2p9MLFYrNkqFE5RyNkA5rO9Rlslgo8mHeemSv8h0c7ogZal1wDYmW0xj0BvGVc9rRT3n1RFyMbCsQNEvHvB76gVi6fQGyzgwqTrPmToGK2EbR+rqucBwkfjmecfBcGHHcd5oVr+oPnt82cV6sYvBXAc22OMEUA+l3IzF2MrTwir6ZCNR+yHAOzDfk+ZCuQGaOFrVfxZa9HFI5FDAfkWgP04BWreBoF+Num6v6rWk148HP2oiv5EgCa2q6YtFvVOrpVz5aRDNhaJHC2Qv7PfU3aXQM9Luu7jfi3Aprn0IwC7cjrUIllUED3FcZznqn6udcTmIeBdKcBb2beaUwDkooLolx3HGa2Zo2Oy/2IibD+igr3Z98nuXdEHyJdT2Qy/W4yNr0bsC0fPgOi3AcxmRWqCB8EvGpuaPtvb2zteQ3+3FQ9HPwLRC8CHV9RKUj3liXwkk8n8u/b+9EkFbPRYFb2ZnZ9UuuYh8sumkZHzF69cOcx6vFJHR0drQzD4PSjOZDWqmmtZctqyTObeWh1AV2dne94K/BzAe9jOqjUqgh80NDV9t8YWclMKWYlH7McA7Mn+b7f/WIIPL3OcJ1iKLYtFIscIcAm/Z1uN60T8QeqDZyeTybUmDCcRjp6o0Asg6GRzq8qN4hXOS/b1pWp7E769J79w7B0i3t/Y/+3iieKHzbPbvrpo0aIJlmPbd7X1gcCv+RWxqjlZDGDjF/7/YuBcm9YQCHwawBcAmcFuV3SiPaWe93/pbPZOQ46b7ROP2AsBHMyZsM2Wi+ADSce5h6WY5K7Wtj8kil+AD7Oo3IlCcHugUPjgkr6+FSaP07btnQKq3wLkQyjBq0Bpi1ao4Fthx7lsYYkfv1m1IRvrjO0llvco58I2u8ez5KRqeBNErYtGo7tbnnc9IAlWo6xGVfGFdNb5Gar8+4jFlAiHuxXWVzY9qYyv0CutFwX6g9FC4Vf9/f0j5m3Mt2cXG7b/DMFJnBPbVNmfdTrOZ0xakVXBLiMUUFwN4GhWoywnhyeh3gf89N3tzYTtrirWlwGcxLAtulUi+EnDcNPPK/XozaoKWdu27YDqMkD4QvYtKwj0nKTrXsxSlEQgFon+TKCfZClKxgP0x1JX9xUTHulZpAXeLpbKebLxpQONrMgUKJaphQvH8/k/mLhznXTIxiLRHwv005whW5o7GIZa70tn07ewGqUVj0TPA/SH4CM9iy0rgtOTjrOQpXit+e3zZ3n14x9V1U/yzvftTpv7oPqTlOvehCp6FV1VhKxt240BRT/4ntAtWet58o5MX+Y+lqI8Nt0QdSl4g0qxTgZ/zAvOchwnx2ps2QIg2B+OvgeWfkQVh4GXkl9v67FaYV0RgHfZMtd91qfH1bbsYiMfEMhVnDCvW8QBz7OOTPeleVNYuXe0tn0SFFeCrzObipwKPpl2nD+xFJPY3XZ0zM1bwVNEcBr4aFAAGBfov6DWlagP3OT3jxy2LWTD9j0iOIhzZ7OGoN5hqWx2EUtRGYlw9AQV/RN3tJNyN4KB01OpVB9LMXWxzthbrIB3vCqOA9Dlox1rHip3qoVr8p53YzW/eq7qQnZeJPIGD9ILfva1uYm1HsDbU677IGtR4R1tOHoaRH8HXrbbVmOAfDnlZi6Ejz4fK6doNNolBT1OBO8CsLeBi8CVEPwTwK11ExO3P7d8+Rp2fRIhyxueXte4qne0KU8lMSRoPwXRn7ESW10cPu1Z1imZTOZJ1qJMO9xYrNnK60Ge6CECLACwRw0uCAcBeVBF7xfPuz2Vzf4HPvrudKlCNhCP2H0AdmapXnmWgsoH+QadKjyZcVG4xXkrip/mLXyxll4VZqKOjo7WhkDgrQD2FFhvVuibAcSq6E/cAOgzCutJEX1UPO/+ZDb7DEO1yCEbC8cOF/FuZ5leVTTBN5KO83VWoipZ8Yh9HfhmldcmrFrH8utl1cu27VAQ2AOqCU8lLhYSUMQBJADsUIJfOQGgD4CjkIzAy4haSzxPnkz3p9MACuzK1G3xwRKWeO/nsuU1/pp0nG+wDFXLa9zQdPro9OEuAN0sx8uOZ8vjjWFVbNNXp+7Z9J9XaG9vn97Y2DhLVXcSz5slIrMFaPU81ItInYjOAAD1EIKFUQFGAcADcvCgsDAE1VWWyBovb62pk4k1O/f1vbiQT6Sr3E5203djnwcQYpleslQD1t7pdHqIpahusY7YPAl4jwJoZjX+e7DL1Uk3cworQVTGxe3r/gPVoxmwr7BB1Hs3A7Y2pPvTyxR6BivxPwo91rZtPhKQqCpCFnI8y/OyE5TgvE0f/FOtBK3r3gDoZazES3YIAEeyDEQVDtkFGz+r5cG4iUBvSTvOJaxE7WkaHT0XwFJWYtNcVnkvq0BU4ZDtt+39FWhleQAAQ1ah8HHw1vWatHjlymFr4+PueKckAIUevWArNzwSUYlDVlWOZWk21ULwf0v7+5ezErVrmeM8AuivWAkAQEs2HNuHZSCqYMgC+g6WBgDkzrTj/J51qH3BxsbzoeDzeQEAHl96T1SpkE10dsbhqwdbv+4eNi9aOBu8TGyEJUuWrIOFz7ISgCVgyBJVKmRVgoeyLACAX/FuYrOkHOdaQO/3/fIR2D0xN8EXjhNVImQhegjLgsGxQuHrLIOB+aJ6Lnh1QjRQ4GKaqCIhCxzs96II9IL+/v4BTg8Dd7PZ7CKB3OD71QbfD01U/pC1bXsXAO0+P/2sDjQ2/pxTw+QWF74Gn79DVeAdzIlAVOaQtQBeKlb50ZIlS9Zxapgrmc32ArjG31WQxPyOjrmcDURlDFmo7ufzeqzToPVrTgvzeZZ8Hz7/bDYfDPKSMVE5Q1YgPb7exEIu5QsA/CGTySwG5C5fF0HlAM4EojKFbCKR2AH+/n5sQS38jFPCT4sq70KfV6CHs4CoTCGrExM92MJbecwnt2UyGZdTwj/SrnsbAN/2XIA9enp66jgTiMoQslB5i58LIaKXcjr4jqeK3/l4/I1Dq1e/kdOAqBwhC+zp4zo83+E4f+d08OHiqi7wW/j66zwWLxkTlSVkLezq3zMtrlsI5Dkd/CeVSvWpwrePWlTl57JE5QjZABTzfVsF1Ws4FXx8EIhe6+MF5hs4A4hKHLKxjlgMQINPE7Y/5boPcSr4V8Gy/gL/vtSdIUtU6pC1RP17oKncAj4w3tcymcxKBR7z6fB37OjoaOUsICphyHo+DllRuZXTgKDw7TxoDAT4/miiUoYsROb5dPzjDaPT7+I0IA34d7Hl8ZIxUYlDVrXTp/vYR3tX9a7nNKBMJrMIgC9fDCGw4pwBRCUMWUsQ9mfG6gOcArRJQRUP+fQ46GD7iUoYsgp/HmRSEIYsvZw/54Oik60nKlHI2rYdAmSGHwc/YXmPcgrQSweDhUf8OXJlyBKV6rwiImGfjn2V67rPcwrQS4su1cX+HLl0ABDOAKJShGxBdvTpiWUx208vt3HRpat9OPTG+e3z2zgDiEoQshbUn19EF32a7afNTIxeX+7iGyYYskSlCFnP8mnIekiz/fSaiIU/50VAtYXdJyrJTha+PLhExWH76dUUkvHlmlOVj1YkKkXIqk9XsIUgGLK0mcUXMj4dOneyRKUIWb8eXIFAgHcW02t3dCj4cl4ILIYsUSlCViDT/XguTSaTA2w/vWbxZVlr/Bmy3g7sPlEJQtaD1vtw3IPw7/tDaQt0IrjalwMXqWf3iUqxk1Wp8+G4h9h62pyG8YacH8fteWDIEpUiZCG+PLhG2XranNmren05N0S0jt0nKkXIwn+XiRQYZ+tpcxYCefjxowReLiYqTciq+m8FaylDlrZozHcj5uViotLkjQjUdztZUYutpy0I+u+YEN4ISFSikPXhro6Xxuj1JwcAH34+qby6Q1SKkFUVPx5cDWw9bU4ikaiHD1/7Zgk/QiEqybHlyxWsYjpbT5szPj7uy7mhqhPsPlEpQlbgv4NLMIutp80JekGfzg2LO1miUhxZqr78LGZaR0fHNLafXi0Q9Pz5NhrVMXafqBQ7WVi+fPpRQ0MDd7P0GgVVn84LybH7RCUIWYE36MuR5/OdbD+9Nmsk7MthA3xhBlFpQha+DFkFbLafXhM2qlFfHg/iMWSJShGyKuLLg8tiyNLmF1++DFm/LraJuJMt1clUZT7bT69dfMk8P447L8KQJSrFOaVQ8OdOFoLd2X56uZ6enjoFdvHj2JuGm1ZzBhCVIGTrpLDcp2Pftaenh6/3opfkXsx1wZ9PA1vTu6p3PWcAUQlC1quvXw747yUBABoGVw7uwilA/6VWfg8/jluAfnafqEQhm0wmxwC86MuTi6X7cgrQSwcDZH9fLi4ELrtPVKrzysbDrM+fo9f9OQXopbAB/BmyKn3sPlFJQ1ayPj2rMmQJAGDbdgjAG/15HChDlqiUISuKrE/HH090dsY5DchSPex/i06fEU1yBhCVMGQ9C0v8WwHrSE4DAqyjfLzAeJb9JyphyAZEnvFrARRyNKeB74nAe7tPj4B8w8yZ3MkSlTJkNRDw80r2sFgs1syp4F/zbHtvQDp8ur5I9fb28l2yRKUM2WQyuQpQvz7xpcHK6zs5FfyroDjJx8PnpWKiUocsAKj695IxxDuRU8G/x4Ao3uvf4fv4uCcqZ8hC5Cm/FkEhb49Go3M4HfwnHoksgMDH7xb2HuMsICpDyIqonw+2Oqugp3M6+HIn9xE/jz5QKPybc4CoHCHreY/6+1yLMwEIp4R/7DJ3bhuAd/u4BC8s7e9fzplAVIaQTWazzwHq5zdxxBO2fQSnhH9MBOo+DKDRv+tK5aVionKFLIACIIt8Xo/PcEr4Q3d3dz0EZ/u5Bp7Ko5wJROULWQDi65WtKt4WjUb34LQw3+i6De8DMNfPNRDR+zkTiMoYsiJ6n+8LUtAvcloYLwDRL/i8BmNjhcJDnApEZQzZPHAPgIKvKyI4gbtZsyXC0ZMBvMHPNVDFI/39/SOcDURlDFnHcXKAPOH3mliefo1Tw9xdrIp+yfcHvoWFnApEZQ7Zjby7WRYcF+2MHsgymCceiX4CQJff66Cq93A2EFUkZHEXywKxLO9C+PX9oobq6OhoBfTrrARG+HksUYVCNtjYeD8AvpUDslfctk9jHczREAh8HUCb72c29E5+HktUoZBdsmTJOlV+XgMAUP1RPB7fkYWoffNs+00APsFKACpyC6tAVKGQBQAR+RtLAwAyC/n8BaxDbVsABD3F5YAEWQ3AE7mNVSCqYMh6Fhiy/wvaU2ORyNGsQ+3qt+3PAtiTlQAEeDKTybisBFEFQzaTybgCPMny/PfEJJcnEonZrETtiYfDPar4OiuxkYKXiokqHrIbD0blbvZ/dtJ8/jLwLT01Zfc5c5og1tUA6lmNjTwL17EKRNUQsoXAtSzPK1Yd74yH7U+xELVjuGHaL8DvxL5EgOcymQyvUBFVQ8im+9NPAfo0S/SKs9QF86LRg1iI6hez7Y9D8EFW4hXz9xoWgahKQhYAROSPLNEr1Hme/jkSiezMUlSvebb9VlFcxEq8iufx6pTBbNtuDIfDLeFwuAV8kE4VrW233DQ7oEiDn0W+ij7WNDq6YPHKlcOsRXWJRqMRy9OHAezEarxCNuU6NgBlKapfIpFoyOfzUUs1LipxBXayBHNUMAuK2YDOBuS/D1Zp2cKPKgBYC2ADgDUA1kCwShRrFLJCFI6ikAmqZpb09T3P+VHmkAWAeCR6P6D7s1SvilnB39KO8274/a1F1bWSDwUUDwDYldXYzJxV/Ksg+kHXdZ9nNapGIBEOdwGBPT3RPQXYA0AcQGcFdqNjAJYodLGoPCUWngwUCk8t6etbwTaVMmTD0TMh+muWanNnLfw6lXU+wdVf5XV0dExrCARvBXAwq7HFSbsaIh9NOc6NrEVFdqg7eOPeQSK6ANB9FdhDgKYq/7OXQ3E/gAcB74HObPbJhUCe3SxSyHZ1dc3Mj44tBzCT5dpczsqFaTfzGVaicrq7u+tH1w/fCOAoVmObZ+6lTaOj/8ePPEo/Nzes23CwJd7bILIAij0BBGp87qyHyF0K3OoBtzmO47DTUwjZjbtZ+xIIPsZyve6k+3bKdb/COpRfT09P3dDqgT8p9HhWY7stVc86Jd2XfpSlKO5uFeOFI1X0OABHA2g2PESeU+gtlshfljnOv8Ere9sfsolIZE+FLGK5thi0P0q57uc5wcrHtu1GC7hWFMeyGpM2IdCvJ133B+D9BVMJ1gaMF94J8U5TyNsANPi0FA4E14rqNUnX/Q9nxnbcNRy37X9D8RaWbAsxC/ll2s18CoDHapRW9+zuGaPTN9wI6GGsRlHOBPd5IqfyucbbGa6RyL6qchoEJ2HLd/n60TMquLR+YuLK55YvX8OQ3YpYJHKGQC7nvNlaQeX60cLEqXxfZ+lEIpGdgxufwcuH/hfXkELPSrvu1SzF62tvb58+LdhwCkTPBtDNimzVqAA3QHBp0nEWMmRfb8WWSDToRD4DgA9i2OqOFo9IMPDOVCr1IqtR5J1DONytYv0dQITVKNlZ4bqxfP7j/f39AyzGKxd3dSIfU9WzAJnFikwqcJ5UlQtDs1v/tGjRogmG7KtPcJHI+Qr5DqfKNnGh3vGpbJafZRdJLBI5XiC/A+90L8v8tSw5bVkmc6/fCxGNRrssz/sSgPfzncRF24n0QfSnwcbG3yxZsmQdQ3aTcDjcUieSBWQGZ8k2GYPKp1LZzKUsxZQEErb9FVV8FXz6WHlPhYKfNzY1fba3t3fcb4OfHw7HCpb1eaiewXAtmTUi+AWCwQuTyeRa34csAMRt+6dQnM25sT1nKr3Kqqs7y9RJVEobH+0pV/GpYxWdwY95lnVKJpNZ4ptwFevbAE4CnwFcLi+o4vuehV87jjPq65Dd9DzjpQDqOC+2J2iREfVOTWWzD7Aa2yYWiZwskF/C8O8Z1sj8HRaVT6eymd8YO99isWYpFL4EyNnw71dwKs0Vlc8ls5nrYMjXISd16S0WiV4m0A9zPkziXCW4NNjQcJ7pn0NMRSQS2bkO1s/5gImqdFtB8CHHcV4waExWPBw9BaI/BDCHLa6CYFL8GxbOSTrOw74M2U1vOlkKoJ7TYXKrNVXr/6Wz6VtYilcIJCKRjynku9y9VrUXIPhQynFuq/WBRKPRvQOe/kY3PpifqosH6OUTqp/PZrODvgpZAIiH7V9B8HHOgymV/0541rmpvtTTfq9EwrYXQHERT3Y1QyG4dGR8/P9WrFixodb++Pb29unT6+u/qorzUPPPEjbeSqh8LpXNXOGrkE3MTXRoMJ8EP7uYqgkBLrMK+e8s7e9f7rfBxzpiu4nlfQuCd3Eq1GTWPu1Z1gcymczimplzkcgxmz7rD7N/NbWsuyng5c+qtfPklL4OwTuNi2pUFJfkLfzAsM+7Nr9IC4d3VVhfheAE8A7OWjcm0POTrvsTVPHNKrvPmdM0PG3ahVCcyZbVrBwEH085zjW+CNmN35u1lgFoY++LZhzQa+AFf2jiZeRYOHaAWN7ZULwHvExnGLkzUJg4vRp3GvFwuAdiXQ2gi30yYarhugJwpuM4OaNDFgAStv1/qriQXS86BfROiFwmweCNyWRyrGaDNRZrhuedLIqPAngzW2u0NQo9M+26N1TJ32PFwvZnRfBN8EZN06RF8IFqvwN5yiHb3d1dP7pu+GkI5rHnJcvb1RD5I1SvSbnuQ6iB7491d3fXj6xf/zYBTgLkeADT2Uc/rRDl8mkbpp/bu6p3faX+Btu2Q5seZHIMO2KsCah8JpXN/NzYkAWAuG0fB8Vf2e+yyIriBgTk1rzqvdX0dJRYLNZs5fVtED0awLsUaGW7fB21SUvklGWO80jZ52JHbDcJFG4AJME++GFRp1eNTkx8rBrvdC/ac2DjkegdfLdn2W0AsFAE9xcKcr8G9NFyhu6mJ+TsB2A/iBwM1X35jFd61ekvD1jfTLmZ76JML4WP2/b7VHGZAE2sv38I8KSl3nuWZrNpI0M2FovNl4L3JIBGtrtixhV4RqBPAdZTongOKKSnj405i1euHJ7sDw2Hwy31IlEPiAqsXSG6GxS7A5gH3hlM23aqeSAI79Qlrpsp5S+JRyLfBOTLrLdvrRLou5IbP1YzK2QBIBa2vyqCb7DP1Tn5AKyGYDUUawQyrKLDACAeNqi16TNTxQ4qaBJFG4BZAHYCsAPLR0WwVlT+XzKbubLYP7inp6cut2bNZVCcxjL73ohCT0277vXGheymF7s/Cd4mT0SvR3HNBLxPFOtReYlEYgedmLgekMNZXNrEA/RzKdf9caX/kKJ+T3FgYKDQ1hJ6GsDp4Hs/iWjzS/s3BiAnt7WEHh/I5Zyp/KhIJLKz5eldgOzLwtIrN5ByRGtLaPpgLneHMSELAAO5nNMaap4LSA/7TESvcwpsBnBaW0to+s5z5967atWq7b4pKjE30WFZejeAXVlQeh37t4Radhwcyt1awbQvvt3nzGkabmx8grfPE9HW6dNaCJyc7k8/ta3/RiwWC0uhcCfPMbSNQffHDtc5fSGQr/mdLACsHB6emNXa+qQqLxsT0VZPgTuKpae3tIQGBnO5RVv7X88Ph2OqWAhIjLWjbbTb2lBo3uBQ7kaU+WE+JXt27EAu57aEWpoF4GclRLQ1dQK8oy3U3NMya9adg4ODw6+3g1UP90L4Bh3a/qBtC4U6BoZyfzMiZAGguSV0rwW8B8Bs9peItmFXOx+entYSan5mcGho2cv/SSKRmI184W4IuIOlyXpza6i5dXBoqGyf0ZY0ZHO5XL51h7Z7IfpBAHXsLxFtgxkCObkl1DK7aeaMu9euXZvf+DWdwu0AdmN5aIoLube2hlrqB4dyd9V8yALA4NrBF1tCzS8IhC/lJqJtPhMKsHfQst7d1hL6jxa8ywDsx7JQkRzY0hJ6cTCXe6zkE7lcI4rb9h/4NBYiIqoSBREcn3Scm0r5S8r23NmmkZFPAniGfSUioioQUMUfo9Ho3kbsZAEgEQ53q1gPAZjJ/hIRURVYkYfu5bru8zW9kwWAZDbbC+hJKNMrr4iIiLaiPQi5vru7u74k2+Vyj2ZwaCjZFmrOA8J3zxJtjuBngMYBmc5iEJVFZ358PFSKr/YEKjGagaGh+9tCoXng7fhEr6LfTrnu50KtrVeIyhsAzGdNiMqyun1ra0vIHczlnijumrlCOjo6pjUEg/dA8RY2lwgA8OeU65yM/z32TWK2fY4ovgegkeUhKrkNBUGP4zjPFesHWpUaSX9//0hgvP5oAEvYV+IiGo+OTIx/GK98rqqmHeciUa9HgSdYJKKSmx5Q/LGYn89alRzN0hVLV4tXOAbAi+wt+VhKgsFjVqxYsWFz/zCZzT7jCfYVxUUo88PNiXzozaPr13+7eOvnKhAPh3sgshCQGewv+cyLGrAOTKfTS7flfxwLxw4X8X4PYC5LR1Qynqp3RDqbvbOmd7IvLeOz2UUi8l4A4+wt+cgaeIHDtjVgASCdTd8RmKh/E4C/snxEJWOJWL/t6uqa8jMdAtUyooFcLtUaau4F5D3V9HcRlcgGQI9OZTOLtvdfXLNuzYbBodw1rc0tGYi+DZB6lpOo6Jq9fH7GVL/WU3UvVI9FIscL8GdAguwxGWpcBO9MOs4/p/qDuiKRaB7WlYDuz7ISFZ0H9Q5KZbMPTHpLXG0jSrvu9aLWGQA89pcMNArBu4oRsACwxHUzoVmthwD6bfBJakTFZkGs30zlbuOqvCw7MJRb3BJq7hfIsdW42yaapA2q1jvTbuZfxfyhzz//vDc4NHR3S3PrXSJ6KIAQS01UNLMLExMjA7nc/ZP5l6s6wOK2/T4orgBf+E41ToFhgb4z5bolfVF0IpHYQfP5H0FxJqtOVLQjeH3Q87qW9PWtMGIn+1+DudzTLc2tj4vouxm0VMsHqCVybMp17y71bxoYGBgbzOVuaWtu6RXB4QCmsf5EUyX1HqxZg0O5G43ayf5XLBw+TERu5PdoqQathHrHpLLZRWU/bmKxsBS8KwAczDYY5wVVLBULK0WxXqHDorLeA3IAGkW0CSLNUMxUwQxRxAAkADSwdJPmeZbsm8lk/m1cyAJAwrb3UdW/ATKLvaYa2cEmxfOOTPb1pSr4R1gx2/6cKL4BgF/1qcFJBGgvRO4STx4rBLBERJak0+mhSfysQKKz0/Ysq0tgdQu8gxRyEIAdWOZtbsf9Kdc90MiQBYB4RzwBq/APCOax2VTVBI8iEHhHKpWqikeGxsPhHhHrKgV2YXOq3hpAb4DInQgE7i7lHFoABPttey8Ah6jiHQD2BW823dqxfVTKcW4zMmQBoKOjo7UhELwBvARG1bvavSPY2PieJUuWrKuyY2daQzD4fSg+xRNp1RkX6L+g1hUNM6ff1NvbW5Gn38VisTDy3vtF9COAJNiWzcbmopSbeQu28TniNXmg2bbdGFD8DsD72HCqslXuzzod5zMLgXy1/omJcPRYFb0MwI5sWMW9AMiFY4WJy/v7+weqaSYnbPsgVfksoEdzUfaq4njyrmRf5mZjQ/a/f3s8Ev0yoF9HFT5Ug3xnTAWfSDvO72pkobpTQPFbAEexdRWRBeRHm8J1pJr/0Hm2/aaC6pdk4yNvea7duIV9Iu06e27LbrbmVyexSORogVwNfgGfKud5Ebwn6TgP1+BC9SxAfwh+1ac8BQcGPMGXW9raLlu0aNFELf3t8yKRN3iQCwEcyU4CIjhyW57cZsQlgHhHPIFA/q+AvJGtpzJ7OOgVjp/Ml9SrRSIc3tUT62oB3sR2lnDzo/iD1Ac/l0wmV9X4xuZ4UfkJBJ0+b+kdKdd929b+V0a87WZw7eBAZ2PjFRPBuiiA3Xg8U1lOmtAfh2bNOuWp554bquWBDAwNrWqbPev38AqNgOwDfv5WbL2q1vHpbObnAwMDG2r+fDs09Gx7/dxL83Xj9YC8Fb69hCyxWS2hmwZyuReM38m+Ylcbjp4G8S7mgyuohNYo9PS06/7duOMnEjkUwB8A6WCbi7IWu7JpdPQTi1euHDZxdAnbPlgVfwTQ7tPLE1elXfdUX4UsAESj0S7L0z8BeDMPciru4hX3yUTw5OTyZL+pQ+zo6GitDwR+LZD3suGTPv2uV+Djade92vSRRqPROQHVK1XxNh82esKzpDOTyax8vf+BkS9Hz+Vya9pmz/q9el6TALz8RcUwLtCvdrrumf9ZN5AzeaBr164dGRwauq61JeQCOAx8FN92rsPwnGdZh2Yc524/jDeXyw0P5HJXt7WEgI3PL/DT+TYgHlYNDuUe8NVO9uVi4dgBIt7lAObz8KdJnjWfEtXTk677uN+Gbtu2HVC9EpADOBG2aa48KsHgMbV+c9Nkbfq47nJAgj4adirlOvPwOl/nCZg++sGhwWzTzBmX1wWsIID9uKulbad5EflRY1PT+5csW7bcjxXI5XK5PYaGrhxqDm0QwcF+OGdMIWHvDDY2HL1s2bJBv1ZgcCj3ZFtz6xMQHAf/vDmtta0ldPdALuf6cif7ctHO6IGW5f2WjwujbQjYxwQ404+719eTiET2VchVAGKsxqunC65pnNl0WqUeh1id51q9BT55+cCWboDy3a6uo6NjWmMw+HlVfB5AIw8HepUhVXwtnXV+AaDAcrxSV1fXzPzY2AV8KfwrTqN/73Qzxy2s4kdpVmRRZtsLVHGrH86zCgzPGB2Zs7m7yH136Wft2rX5gVxu4ezmHf4EQRwQflZLm1aceovk645J9advxzY+/Ntv1qxZMz6Yy93SEmp+WiCHAZju7w0sHpkxOnLsI8PDY5wdrzSQyzltLaGnAZwAw79LK0B9PlD/+MBQ7hnfh+xLJ4uhocGBoaE/te3Q8rgK9hGghYeFbz0O6AdSrvvdgXUDa1mOrRscGnq2bcasP8Ly3gQg6tMy9I4X8ocve/55zpnXD9olbaHm1YAcY/yCS9QaHBq6bjMBTIlEogH5/CdV8SUAbayIb7YhfYB8OZXNXAXAY0EmxYpHop8G9Nvw11d9Bj1L3pzJZFxOga2L2/ZFUJxj+DA3NG5omtO7qnf9Kw4Qth9IJpNjScf5SUGQEMEPAIywKkYbUsEXx7x8VyqbuYIBOyVeys1cYAn2AfCMX5ZnIvgQA3bbNTY1fQ6CRw0f5vSxaRte81Yr3o7/MrlcbnQgl7ujbcasP8AqzARkN9bIKOtUcWEwX//+ZF/qX2vXruWNKkUykMu90DRzxu+CluwISI/RCQtclHKdn7Hr227VqlWF2TvscKeKnA6Db4QSwfqBodxN3MlubWe7PNmfct0zNWDNU8gvAfCmhtq2FpDv1OUnoumsc/7SFUtXsyTF19/fPwKRO00eoyj+PW1G0xfY7e23NJtNK/Qjhi/A3o5XfQzLz2S3wfyOjrmFYPCzm762wPdu1soJERhQ6MVjhcJF/f39A6xI6cVt+9cGf71nAl5gz1Rf6ml2ekpz5FooTjB1fJbgzcsc5wnuZLdnBdbfvzzlOOdqwNpZFeduvGGGqng9mVTFudNHR8Ip1/0qA7acpddDDR7cRQzYqcurngNgyNTxFV71UnvuZCehp6enbmjVwHEqOAfQ/VmRqtm7PiCKnyazmRvAB0mUf4cSj3ciX8gaGrD9jRtmvOHVd47SJOdKJPIZQC4w8iwkuD3pOEcwZItknm2/1VP9CCAnAZjJipTdi4BeURC53HGc51iOCp44bft0KH5v5IlT5YRkNvMXdrk4FgDBvkjkcUDeaODw1qVcp+W/C32GbJHYtt0Y9ORYFe9MbHwSDmtbOh6gd4lav2mYOf0mPi+2akL2D1CcZuDQHk+5Tg/4FLBi72bfDcgNRi7KoHv+97nnDIISiMVi85H33i+CEwHsyooUhQJ4WATXWfn8tUv7+5ezJFV20gzbWQg6zZt4enzadW9gh4ufRfFIZLGZu1n5VMrN/IIhWwaJcLgblnWCbrybjoG7nec3Bf4t0Os0ELgunU5nWZIqneeJxGydyL9o4NB6U66zO/jAktJsSGz7/aL4o4FD+3PKdd7PkC2zaDTaFVA9GsBRqjgI/noM3bZaC+AOgdxqFSZu5Y61Rk6W4djhIt7tBu5iT0m77tXscMkE4hH7GQCmvahlacp1uhiyFbT7nDlNGxqmHwrRoxQ4GMAb/NkPzYvKf1T0HgC3hmbNun/RokUTnCG1xdC7RVd2uk7HQr7CrrRzJxz9FERNe4JWYWRifIcVK1ZsCLLFlbHpvYN/2/QfzG+fP8urH99fVQ5U6AEC7QHExP5sAPBvEdxb8OT+6SNND73iaxEuHwdbo/YwbxeLPzJgS0/qA3/WifyPAdSZtENvDDR2A3iUIVst1xY2Purvpk3/2fRd3FXzFYEeWNoDlR6FvkmAphoa1jpAFkN0ETzpVcgzVr31aDKZ5GMqjTtTyptMu/c2ILiCjS29ZDK5Kmbbt4niWJPGZVmF3RmyVWzTJdPeTf+5AgBs2w4FFIM1MoQVKdfpAL/2YLzu7u760fXDXWYtGvDUyx+NRyUOJE+uUFGjQha68a5pPlaxhjQ0NNTQU4zUY8D6w4YNG3YBUG/U+dEDb3Yqp/rA37DxpkeDFmqaYMgS0ZQF8rCN21mJ/oudLZ9kMjkm0HuNWqhBogxZIipCInlGPYBCgIGk6z7Jxpbd3WaFLGwAwpAloimeTaTDrAHJ3eDDJ8pfdZG7DFusNcXj8dkMWSKaEk/UqJBVYCG7Wn7LHGcxoKtNGpNVKEQZskQ0xRW7YTtZLTzErlZovQY8bNZUkjkMWSKaqrBJ58XGkZlL2NIKpSyspUaNJ6BtDFkimqp2gzJ2OV/MXjmieM6s8cgshiwRTVp3d3c9gEZzRmRxF1vJ6gdgVP1FuJMloikYGRmZZtJ4FGDIVlDesPqrMmSJaAoKhcJ0o3Ye8Fawq5WTyWReBFAwZz7JdIYsEU1ag6pRO1morGNXK9sBAAZ9Ji4NDFkimvxOVuuM2smqBYZs5btgUA88hiwRTWXbYdZO1vKEdxZXfvdnTMh6KvUMWSKatEDQrJBVS7mTrfjCzZy38YiAO1kimsIJUdUybEDCrlY8mEyaU8qQJaKphOy4USd4tWayq5XuAWaac3xgnCFLRFM5i4yZdYb3GLKVnlIwJ2RhYYwhS0STPyF6QaN2sp7KDHa14nYwaRHKkCWiyZ9D6gy7XCyyA7ta2RYAaDJnIyu8XExEk1c3MWHWV14MezdurUnMTcwFzLnxSQXrGbJENGleY6NRL9mGootdreB8CoybVX+V1QxZIpq0ZDI5BqhJu1mGbAVZIkbVX+CtYcgS0VRPJSbtZneybTvEnlZq42dWyKpa3MkS0ZRDdo1JowkCu7CnFeKZdSVBIQMMWSKaqhfM2n3o/mxp+S0AghDsY9TyE/nnGbJENMXVOhyzRmQdwq6W33Lb7gHQbNKYxjwvw5Aloimu1k0LWT2op6enjp0tc9VVDzNsSOv6+/t5uZiIprqT9TKGDWnm0OrVe7Gz5Z5HMOoKggBpAGDIEtGUWEDGuEGJHMnOlk9XV9dMQIz6LFx14xUehiwRTU1dXXLjRsSoE+QHNm5GqBzyY2PvAWDUu4khupQhS0RTlkwm15p38xPi8XB4P3a3XKsanGbakEStxQxZIirSCQWLzRuVdSo7W3rzOzrmAjjYtHEVAmDIElHRUvYp88aEE23bbmRzSysfDJ4KIGDYsCYCgcAShiwRFSljLQN3smixgA+xu6XT3d1dL4pPGLhAe27jc70ZskRUBBYKi8xcPOBz/M5s6YwOD38IQNi4gXn4z/+ODSKiKVqazaYBLDdwaHZuzZqT2eHi6+npqVPF541cnIncz5AloqJS6ENmDky/DPM+M6y43Jo1HxAgamTIwnuAIUtExV6+P2DowBLxcPQMNrh4Ojo6pqniq4YOb80y132OIUtExd3wiTxo7gJCvze/ff4sdrk4GgJ1XzZ1F6uCB/Gyh7MwZImoKDKZzCIBBgwdXlu+buL77PLUxTpi8wD9jLED9HDny/9fhiwRFUtB5ZUnGKM2s9AzErZ9MNs8xToGvJ8BaDB2gEHrVoYsEZWEAreanA+qelkikdiBnZ7kLta2PwHgSIPnfyadTi9lyBJRSXgbQ1bNHaEkdDz/G3Z6EgHbEdtNFD82fJ/+mkUmQ5aIisZxnBcAPG72eRQnJSLRj7Db266rq2umWN71MO1NO6/ZyjJkiajkGaTXmz5Ghf4sGo3uzm5v25TIj479BoJ5ho9zyKq3bmfIElFJWap/htGXjAEA0yxPb41GoxF2fMvikei3AbzP+IEqbvzv84oZskRUMhsfsSj/8cFQ262C3h6Px3dk1zdv441Oer4/9ut6zWYXnZwGRFQC1/jjxIp5KBRu6Z7dPYMtf9UO1rZPEsUvfDLcwcYZM+5kyBJRWWhArgHg+WOweMvo9OGburq6ZrLzm3awkcjxUFzhm4xRXNvb2zvOkCWiskin01kA//LRkA/Nj4090NXZ2e77gLXtDwnwZwD1vllUqnXZ6/0zhiwRlWhxr5f6bMC7TViB+zc+NtCnARu2Py+K3wIS9NGwF6f70o8xZImorFpmzfobgBf8NGYBohLw7o2FYwf4adwdHR3TEhH7tyLw3fOdBbrFh5MwZImoJBYtWjQhit/7cOg7iRTuTtj2F/1wjrVte5eGQPBhBT7kw15vyItczZAlooqwvPwvAEz4b+QSVMV345Hov2zb3snUUSbC0VMCqo8C8OWDORTye8dxcgxZIqqIpf39ywVyrX8roIcFFP+J2fb7TRpVV2dne9y2r1HRKwHx69eXPBTkoq0uNHkaIKJSKlj4Icx/AtSW7CyKP8Yj9sJEONxdywNZAARjYfucvBV4FooT/TyvBfLXdH96GUOWiCoqk8ksBuQuVgIHq1j/SYTt73V0dLTW2h+fiEaP6IvYi0RwEQC+7g/eNr1RiCFLRKU/HSl+wCoAAOpV8IWGQNCJ2/YPotHonGrfsCXC0WNjEfth9fSf8Olnr5txT9J1H9q2HS/VBNu2dwp6cvjGz0BqQk6hpyAQuD+dTg+xgxS37XuhOJCVeIURCC4tAL9yHOe5avmjOjo6ptUHAu+xIJ9VYA+26VW7U0sOXpbJ3MuQrWHz2+fPyteNHQFYhwr0QADza3cTg8UiuFcKcuf08Q13Ll65cpgd9p+EbR+sioWsxOucjBX/VpErAxN1f166YunqiuxabfsgKE5T4L3gJeHNF0lwe9Jxjtjm/z1LVkUnoUjkzQrrHYAeDeAtAAIGDnNMBPcCuBWFws3Jvr4UO++j3Wwkcjsgh7MSWzQO4E6B3gHg7qTrPokSPQd6l7lz28aDwQWbFvPHAOCr+7YesvsmHedhhmwNBauncoKIngBIwodTdpGqXheEd93GV6SR4bvZfVTxIM8922WNQBZ6oo9Bdaml+lzDzJnJ13sg/esucOLxHaVQeIN6Ml+gu6rgYGy8FMx7c7Y5MPWWpOseu33/DpWdbds7BTycBsEZALpYkZc8DJXfSn3gmmQyuZblMHU3a/8RwPtZianQPAAHkNWArofIoCjWe5ANIloHxQ4qaBLFDAVaBLABhFi3KZkoCHbf3s/OGbLlY8UikaNE5EyoHu2zB2hv3+kDGBbFdWLh19tzWYZqJGTj8U7kC88BmM5qUA2dl36Sdp1Pb//ul0qqq6trZn5k/P0QPRfAG1iR7fYfqPy6YOkVjuOMshxmSNj211XxNVaCasSqgmD+1h6hyJAto0gksnMA1nkC/Qh4l14xPA/FRcFpDb9asmTJOpajtrW3t0+fVlf/LIAwq0FVT/DxlOP8enL/KhVVLBYLi+d9BoqPApjGihTdWhH8ajSf/2F/f/8Ay1HDx0okcrRA/s5KUDVT4JG06+yHSd7hHWAJiyMajc5pbW75gaj+HsB+AOpYlZJoAHBA0LI+0RpqCXY2NixaOTw8wbLUnsGhoWWtodAuAN7IalCVGrfUO3pgaOjFyW+CaUp2nzOnaX3DtP8ngvPBy8KVWGeuVpULrPrgRclkcoz1qC3z2+fPKtSNPwNgNqtB1UYE30g6zten8jO4k508KxaJfGgiWPc3Ebxr0w6Lyn8YTBfB4fC8E9paQssGcjk+3KKGrFm3ZkNrc8tKCN7NalCV6ZW64KkDAwOFKZ2hWMftl4hE9lTIz7HxsjBVU+RCb7FUz+GDLWpL3Lav8fur06iqTKhn7Z/uSz869XMSbXu4JhI7eBOF7wn04+BTUqrZiEC/3Txr1o8WLVrEz2trwC5z57ZNBOsWA2hnNagKluufS7mZHxVn4U/bttKORI4C5BLwKwe1ZLF61ofTfenHWIoaWMRufIHAXVzAUoXdk3KdQ1Gk50XzM9mtsG071NrcfKlAfgCgmRWpKXNEvDNaQ62NsUT8vueff95jSarXQC7ntoaaZwLCj2GoUtYECvm3rVm7tmiPdeVOdksr60hkX4VcBSDGatQ6fcyzrFMymcwS1qJ6LQCCfRH7DgAHsxpUZh4Ex6Qc57Zi/lBeltmMnp6eungk+h2F3MeANYXsJZ4uioejH2UtqtdCIF8QvA/AClaDynqGgH6l2AHLnexmxOPxHZEv/AnAoayGsf7UNDryUb48vnpteiXePQDqWQ0qQ8LenHKc4wBosX80d7KvPLAXIF9YzIA13vuHGxsfjkajfM1glUo6zsMqOJeVoNLnK55TyzqtFAEL8Man/+1gI5HPALgCED61yR+H1o6iOK21JfTcYC73HOtRfQZzucdaQqFmAfZlNahEXgxCD0k6zgul+gW+D9kFQNCKRH8uwJcA4c7eXxoAnNTWEpKBXG4hy1GFQTuUu701FNoNfE0kFd+IQI9e5rpPlXin7F/hcLilTqy/gJeHua8Fftcwo+njvb2946xGdeno6JjWEAjeCe5oqXg8hZ6Qdt0bynBu8adoNBqxPP0nAH4uR/91V7Cx4Ti+r7b6JBKJ2TqRv4c7WioCVcFZacf5VZkW8P4zLxJ5g6fyTwg6Od/oVYfEIgSto1Op1IusRXWZ39ExtxAI3gt+rY6mlLD4Qjrr/KBcv893n0FGo9G9PeBeBiy9ziHYg3zhoURnZ5y1qC5L+/uXa8A6BIDLatAkj+9vlTNgfbeTnReNHlTw9B8CNHGy0VZkA+odwrf5VOVCucvydCGAnVgN2uZ4hVyYdjOfKffv9c1ONhaOHeB5egsDlrZRuABrYbwjnmApqksmk1kShO4HgAsg2rbdpOAHlQhY3+xkE7Z9sKf4OwOWJrH87RMtHJLs6+PL4KtvRxuxPO8OQLgQotc/hAVfTDvO9ysW8MbvYDtjbxHLuxPATE43miRH8sEDk8uT/SxFdYlEIjsHIbcD6GY16DVLZMjZKTfzi4ruoo0O2FhsvhS8+wDsyPlGUzxcl6EucADvOq4+m77vfgOABawGbTKm0DPSrvvHSv8hxn4mG4/HO6Xg3c6ApSItR+ehULilq6uLV0SqTDabHWyc0fR2hV7FapAAA5YlR1RDwAKGPlYxkUjsgHz+LkDmccpREc318oU37zGUu8YB+AL4KrJq1arC4NDQjW0tIXBH62tpz5JDU5nMf6rlDzIuZBcAwbU77HATIHwEG5VkDbc21NwyODR0K0tRfQZyuYUtoeZlAjkKQB0r4h+q+Fd9YeLIZDbbV01/l3Eha0WiPwfwPk45Kh15a2uoZc3gUO7frEX1GRwaeqq5JXRDADgcwCxWxPx8FcEPU67z4dXr1lXdO6KNuvEpEYl8UiEXc85RGRRUvbens9k7WYrqZNt2KKByFaDHsBrGGhLB6UnHualql+QGBey+ClkIoJ7zjspkFYKBnlQq1cdSVC0rHol+GtDv8Nxg2PYVeMTyCh+o9u+wG3F3cTQanaOQ63gQUZnNlonCXxKJRANLUbW8lJu5AF6gB8BilsOMnkLws5ZZbQfWwkNiTPhMNtDWHLoZwO6ce1R2grnqaevgUO4fLEb1Glw7+OK0pulX1FmBNgh64PN3adcwR9V6Z9rN/Ob555+viTv8az5k45HolwCcwblHlctZvKWtJfTEQC63hNWoXuvWrZsYHMr9PbRDy10i2A+8KaqWKASXBhsb3p1MJ5M1dn6oXbHO2F5ieQ+Ct+pT5c8Bq4Oet8eSvr4VrEX16+jomNYYDH5eFefz/FH1x9bTIvLRpOM8XIt/fc1+JtvV1TVTLO/PPECoStars/KW9QfwMmRN6O/vH0k6ztcFug+Ah1mRaty6YhjQLzfOmNFTqwEL1PDl4lDTzJ9CcASnIlVR0MZaWkIrB3O5x1iL2jAwNPT84FDut23NLb0Q7A0gxKpUQb4K/qKWHJd2nL+tWrWqUNNnhVr8oxO2vUAVd3HXQFVonQasN6bT6SxLUVt2nzOnabix8QuAfAbANFakIrvXRwKCc5Y5ziPGLL1r7Q9ub2+fPq2u7km+Q5Kq+LC6M+Vm3rbxnEE1t4hPJGYjn/+MKs4B0MiKlEWvqHwjmc38xbTjpuYuF+/YOut7AN7BOUlVLNbW3JIaGMrxe5k1aGBgYMNALndHS1vrlQJtwsavBwZYmZJ4VlTOSmWdsweGcr1GLrlraoUZDu+qYj0B3uxE1e8FDVi7pNPpIZaittm2bQeAc6H6YUBmsCJTp8AjlsoFyWzmBhj+RquaWp21hFr+DICXiakWzBDotMFc7jaWorblcrncYC53W9vs2RdrwVspom8EZAdWZrt5Av27auCsdDZz/sBQ7hn44COVmtnJJsLRE1X0Gs5TqqH1et6zrJ5MJsPLxgbp7u6uHx0efjdUPwLIoTDk8bQl9III/qD5wGWp/lTSb4OviZBNJBINOpF/DoDN+TrF0z4wLNBBQIYBWQ8gJ6KeKuoAmQl4zYA0AWgBb/qY+gEmuD3pOPyqmaHmh8OxPKyPiOB0AO2syEsKAP6l0MtaZs3626JFiyZ8ew6oiZCNRD6tkB9z3m5fmFqCB1VlMRRLxdKlBZFnM5nMym2dG9FoNBwAutTDfAXeIMAegO4Nfia+XTyVIzLZzO2shNGshG0fpB5OguB4ALN9OdUV91ui12gw+JdUKvUip0UNhOzGd0IiCaCN7dqiCQAPbvz+sHXXtJnT/t3b2zte7F/SPbt7xmjT8AFQPRSwDgV0T/D7ylvzeMp19oLhN3jQSwLRcPTQgOi7PeBIAaIGj3UUinsA/COohb/wsaI1GLKJsP09FXyBrXrdFi6C6hVSH/xTMplcVe7fvuly2akiOBVAnP14nSsLgpPTjvMnVsJ/otFol6geJR6OhOj+tX6HsgDPKfQOBW4dnZhYuGLFig3sco2G7C5z57ZNBIMOb5t/zSl7vcL6jaWF3yaz2Wr5bpnEw+H9AOujEJwMXlJ+tWdTrvNG7mb9bQEQ7AuH9wCs/WFhfyj2BzC3iv/kMQD/AfQBEbkfweCDlVjMM2RLJB6JfAuQL7NNLxkUwc9H8/mf9vf3D1TrH2nbth1UfE6BD4E3T/3vYFM5KZnNXMtK0MvNb58/Kx8c3QOWtZul2E0Fu0ERQ3k/IhsHNCvAc57KU2LhSfG8pzuy2SULgTy7ZGDIbvos1gHQzDZhnQi+F2ho+MWSJUvW1cofHYlEdg6KfAGqnwQkyDZiccp13gQ+bpG2QVdX18zx8fFoIA/bE42K6CyBtKlgFhSzFGgR4L/f150OoOFVP2IIG6+cTAAYBGQNVFeryBoL3hpVq98KwPEsK5NKpZaDV1n8FbLxSORLgHzb9x1SXBPUwqdr+YaCWEdsNwl6F0NxIHez8s5kNvM3nnqIGLIV09PTU5dbvSaD6v6sotTpmoTIp1KOY8oTgyQejp4K0R8B2NHHx9zdKdc5lKceIn+oyieVDK0aeJ/PA/bKkYmJPQwKWADQVDZzRWCivhvArT4+5g6JRqN78NRDxJCt3NnY0k/5tB/rFPqBlOueZupt8UtXLF2dcp1jVHEuNn5W5DsBT8/mqYfIH6rucnHCtvdRxUM+bMSTXsE6Id2fXuaXMUc7owdalv4Z/nsc3ehYIT+3mu8QJyJDd7Kq+mEf9mEh6oIH+SlgASDTl7nPs2Q/AZ7zWb8bG6zgKTz9EDFky2r3OXOaADnRZz24sSA4KplMrvXjBMxkMu5oIb8/gAd9duR9hKcfIoZsWQ1Pm3YC/ve9L+MJ8KuU67zXcZxRP0/C/v7+gcYNTW+H4p++GbRit1hn7C08BRExZMt54jndP6XXy5KucxY2vhLK93pX9a4vWDgOwEL/HH16OjtPxJAtC9u2dwJ88rACwc2drvsJ8Mk/r+A4zqjUBd8F4D/+mAb6XgABdp6IIVtyAQ8n+uSEc08BOGkhnwe6Wclkcq3UBY8EsNQHw50Tj0QOYteJGLJlWNb74oanpRqw3uX3z2C3IWhXacF6BzY+e9VsKiex40QM2ZKKRCI7A7qf4bUe9Sw5MZ1OD3HabV26P71MVMy/A1dwHKr0oTBEZEjI1gFHowZeID/FHcs5mUzmSU657djRZjN/UcjFhg9zTqwz1sNuEzFkS5c/kKMN361cm8pmfsPpNokJWhf4DCCLjB5jwDuGnSZiyJZEd3d3PYDDDa7xC2pZZ3KqTXI3m0yOiRZOAzBu6hhVlSFLxJAtjbHh4X1h8AMoFHoeP4edYtBms8+I4CfmjlB6EonEbHaaiCFbdJ6HBebuUHBv2nX/yGk2dRvGx78JwDE1Zb2JiQPZZSKGbPHPLoKDDa3teED04+ADJ4pixYoVGxT6GWP3siIHs8tEDNmi2vR57D5G7mIhly5z3Wc5xYon7bo3QHCfkSGrYMgSMWSLa3T9+r0ATDOwrhNq4UecXiUII+A7Zi7KsJtt2yF2mIghW8Qzi+xlaBBclclkXE6v4ks6zj8heNTEYzGguic7TMSQLeZvN/FL+IWCJT/g1OJudhIHBB9KQcSQLeZO1siV+82ZTGYJp1ZJd7M3AzCvxqoMWSKGbHG0t7dPB+QNxu2yBH/gtCp9HAn0CgPHxcvFRAzZ4pheV9cF815tt6ahqelWTqvS8wKBqwB4Zq3QELdtu5HdJWLITv0kKbKLgRusP/b29o5zWpVeOp3OArjXtOMxUAgk2F0ihmwxfnGXcbsry7qKU6qMSxrolaaNScTbhZ0lYshO/QTpwbSTyYuZTOZRTqkyziHL+jsMe6KWChiyRAzZovzmmGHbqrvBRyiWVSaTWQnAqKdqCTTKzhIxZIsRSh2GVfJuTqeKTKS7TBqNZ9pxQcSQLb+enp46ADsadarPW3dxOlVirWbW4kYEnewqEUN2SgYHB3eGWV/feSHdn17G6VR+wYkG0+4w5k6WiCE7NQHP29mwOvJtOxWydMXS1QBeNGhIM7tnd89gZ4kYspNWUG0zqYgCPMepVEm61KTRjMwcaWVPiRiyU9FiUhE9BZ9VXMmIhWVU/VW1hV0lYshOYednGXUSEYshW9H6G/aygABDloghO8W9X7NRRVTlu2MrGbIKx6ydOULsKhFDdiq/dppRJ/lCYS2nUgVDydJ1hoXsNHaViCE7la1HnUlF9Bob13EqVTKV1KhFjgD1bCoRQ3byJxHPqJOIJpPJYU6lCjagEDBrkeMJQ5aIITuVc4iYtJMdAVDgVKpgJgU9o0JWxKtjV4kYslM6jxhUwwlOo8qqz+eN6oHCsthVIobs5H+pqkkvNp9h2KKh5owHgzONGpBinF0lYshO/hxiGXUSCbS3t/Nu0EpO4oJlVshaOsauEjFkp5CyRu1kMW3aND5rtpIkv4NhI2LIEjFkp5KxYtRnaDI+PpNTqYL1t8zayaphi1Aihmy5T4qiRn3lRUV24lSqIE+MejexbLxjnYgYspMOpQGjQtay5nMqVXKRgy6jxuMFVrOrRAzZyf9ST1YbVsQuTqWK7vyMqn+dVWDIEjFkp7Lz8NYYtfNQhmyFO7CLSaMp1NWtYU+JGLKTPyUGzLocJsAunEqV0d3dXQ9oxKAhTSSTST4Lm4ghO3n5fH6VUfsoYJ5t2yFOp/IbW7++B5CgQUNatXFKERFDdpKy2ewggCGD6hgIAgdzOlVkgXOoYUNy2FUihuyUCYx70fYhnE4VmUlGhaxAMuwpEUO2GKFk2snkUE6n8rJtuxHAvmYt1jyGLBFDtggrdjXsspjijZFIZGdOqTJOXs86AIBRz40WXi4mYsgWJZNEUobVUupE3scpVdaVmnn1Nu+4IGLIVuZcok+ZVkxVnMIpVR62bTcK9HjTxhWcmHiK3SViyE5ZHngS5n1VYc9YR2w3TqvSCwDHAQgZNqzlzy1fzgdREDFkp85xnBwU/aYVVIIed7NluWyAUw0c1WI2loghW8REgnmXxhQf2n3OnCZOrdKJd8QTAN5u4MrhaXaXiCFbzJR93MCazt4wbdqZnFolnDWBwhcBBIyLWDHyeCBiyFZu0+c9aGJRVfHZTd/hpGLvYuPxToWZN5hJIHA/O0zEkC0aT+RBAJ6Bdd05AJzO6VWCBUze+wKAegOHtjyVSvWxw0QM2aJxHCcH6DNmpgHOb29vn84pVjxdkUhUoGcYOrz72GEihmzxbdzNmig8ra7hS5xixTMh8lMARl6GFygvFRMxZEux4cNCc8ur59m2zXfNFkHCtt8limONnSle8B52mYghW3Tj+fw/ARQMrW99QHEJAOFUm7yOjo5pnuInBi/G+lN9qV52moghW3T9/f0DAB41uMYHxyKRD3GqTV6jFfyuAFGDh3gr+KJ2IoZsydbxittMLrJALo5Go3twum2/WCRyjArOMXmMCrPnPxFDtuJnGesfxm/GPP0jnwS1faLRaMSCXAGzL7dPIBC4k90mYsiWTLov/RgA1/Ba7zrcMO0XnHLbZgEQtDz9owKthg/1znQ6PcSOEzFkS7qXVcj1xldb8MF4JHoep93WK9UfsX8NYD8fzIlr2G4ihmzpU9byy8lGfxizbd4ItQVx2/6+Amf4YKjjY/n8zew4EUO25DKZzL8BpPywSxPFr2ORyNGcfq+ViETOguJzvlhuCf656e56ImLIliF9FNf5pO51gFybsO2DOQX/JxaJnKGQn/lmwKp/ZteJGLJlPOkULoNPvi8oQJMq/pkIR0/gNARiYfscgVxadXOydHKjExM3svNEDNmySfb1pQD46fFyDSr6p5htf9zHc1Ditv0DEVzko4AFoFeuWLFiA09BRGaruhdft4SaJwRyvJ8WOgK8o60lJAO53L3w0ZN/Ojo6pu3Y0vp7AL5bZHiWdWYul1vJUxCR4buIavuDEolEg05M9AMyy4f9uKsg+IDjOC+YPtBoNNoV8PQaBXz3JCwFHkm7zj48/RD5YBdVbX9QMpkcg8hvfdqPQwOKRfOi0YNMHmQiHD3V8rzH/BiwACAqv+Sph4g72YqZ39ExtxAIpgHU+7QvBUC+P1aY+E5/f/+IKYOa3z5/VqFu7EJATvXvIaf9jTNmxHt7e8d5+iHiTrYilvb3L4fAz19vCAD6pYZA8OlYJHKMCYu5eDh6WqFu/Bl/BywAWD9lwBJxJ1tx0Wh0D8vTx8F3sQLAjUHop5e4bqbW/vCI+UuWAAAHo0lEQVRYZ2wvS7yLVbA324i1GrDCfFYxEUO2KsTD9m0QvJ1tAgBMCHCVV7C+l+5PL6v2PzZh2/tA9UsKOYYLpf/SH6Vc93OsAxFDtmpO1Kp4iG16hQKAaz1Lvp/JZBZX3cIoEjkEwPmAHM5WvSJg10tdXSyZTK5iLYgYslV00o7eAugxbNVmPaOKKzQgv89kMhX7zmU8Hu/UicLJIjgDwHy2ZbOH2ndTbuZLrAMRQ7a6drORyJ4KeQy85LglEyq4Dao3eiJ3OY7jlHrexDvj3SqFw0T0vYDsz/5s0dBYIR/jywCIGLJVupu1rwfwHrZrm6UVcjfg3a2W9fTExMTSqXwVKBaLNWMC80X0zRA9BMAhAOawzNtGFV9PZ51vsBJEDNmqFOuIzZOA9zT8+73ZqfIAZFWxFCLLLNV1HpCzRNepWusFGPEsnSGezFBLmywgpKqtgMwD0AVgZ5Zw0pY3bmjapXdV73qWgoghW8W72ciPADmPLaOaOsBUTk1mM1exEkT+VDNvPQk2Nn4TwAtsGdWQh5PZzNUsA5F/BWrlD12zZs14a3PLWgiOZduoBqglOGEgl+tnKYi4k60JqWzmckAeYNuo6gkuXeY4j7AQRAzZWuIVRD8CYIytoyr2woTnfYFlIKJArf3BuVxudVtLKAhgAdtH1UihpzvZ7OOsBBFZtfhHNzQ1fRdAL9tH1Uagt6Rd9wZWgohqNmR7e3vH1bM+BGCCLaQqsiov8lGWgYj+K1Crf/jg2sEVbaHmAiCHsY1UFbtYT05OZ51FrAQRvXReqPWdeDxi34GNj/kjqhiF/DLtZs5iJYjoFSFV43+/J/ngaQLwwetUSc+OTox9lmUgItNCFsnlyX6ofBAbn89LVO497HpR74QVK1ZsYC2I6NUCJgxiYCi3tDXUXAfIQWwplZOodWoy6y5kJYjI2JAFgMGhoXtaQ6G9AcxjW6lMEfvjVDbzE9aBiF6PZdBYvLFC/hQFMmwrlcHCTjfDpzoRkW9CFv39/QMB6DEABtlaKqGU1AVPXAjkWQoi8k3IAsAy133WsuQ48PnGVBK6WgvWUclkchVrQURbEzBxUAO5nNvaEkoCOB61/11gqh6jAI5K9zlPshRE5NuQBYDBXO7ptlDzBJ8IRUXaweYBvC/lurezFkTk+5AFgIGhofvamkONEBzAVtNUElaAj6Vc948sBRExZF8RtLk7W0ItOwiwL9tNkwlYFZyVct3fsBRExJDdjMGh3O1toVAYwJvZcto+8vm06/yUdSAihuyWd7Q3t4aa2wDZm22nbdnBAvrZlOtcwFIQEUN2m3a0Q7e1hFpm8tIxbTVgVc5JZZ2LWAoiYshuV9Dm/tXSHBoVweFsP21GAYIzUq7Dz2CJiCE7yaB9oK0ltBbA28Dv0dJL21cMQ633pt3MdawGERWDrwMmbtvHQXE1gOmcCr73gnrWsem+9GMsBRExZIskGo3ubXl6M4A5nA6+1etZckwmk3FZCiIqJsvvBchkMv8OQvcVgI/K86d/aMDanwFLRNzJlpBt241BxS8V+BCr4Qsqgh8mHed8AB7LQUQM2TKIh6NnQvTnAOpZDWOtBfSDKdf9K0tBRAzZcgdtJLIfIFcDsFkNwya84t8WvPcvzWbTrAYRlZrFErxWynUflLrgHoBeyWoYw4PgZw0zmw5kwBIRd7JVIhGOnqCivwbQwmrUrKwITks6zj0sBRFxJ1tFktnMdRqw3gTgVlaj5igEv9GAtTsDloi4k62NXe3FAGazGlUvpep9LJ3N3slSEFGlBFiCbTcwlHtmdtOOv9NgYScAu3ORUpXGAPlBQfC+jOsuYzmIiDvZGhTrjO0llvdTAPuxGtVC77CAs5e57rOsBRExZA2oXyIcfa+KXgAgzHJUbBI/p9BPp1yXn5sTUVXh5eIpGhjKPdNeP/eyQv3EegHeDGAaq1I2jgo+3ek6H398aGgpy0FE3MkarHt294yRacNnieALAEKsSKlov6pcYNUHL0kmk2OsBxExZH2ko6OjtTEYPFsVnwTvRC6mlEAvzIv81nGcUZaDiBiyPpZIJBp0vHASRL8A4A2syKT9Byo/7cxm/rgQyLMcRMSQpZezErZ9rCo+BuDt4ENAtsWoQK73VC5JZ9P3sxxExJClrerq7GyfkMCpIvg4+AKCzU3I5zzF74P5+suXrli6mhUhIoYsTUYgFo4dIlI4CZB3A2jzcS2ygF6rXuCadF/6MU4NImLIUtH09PTU5VavPhwqJ0JwNIAdTR+zAhkR3Cyq1yRd9+GN/xUREUOWSiwRDnd7sN4hoocDcjCAOgOGNQro/apyh8C7I5XNLmKniYghSxVl23bIUt1PYO0H6AEA3gJgeg386TkADwr0AbGs+0cmJh7t7+8fYUeJiCFLVaunp6cut2rV7iqyh6Wym4rsBnh7ADKrgn9WFpCnRPUpz8Jiy/MWJ7PZZwF47BgRMWSp5iUSidmFQiEaKMD2oFEBbIh0AtoGRRsEs7H9T6HyAKwRYI1C1kB0DQBHAEeBjCeSCQQCmWQyuZYdICJiyPraAiCYDodnNnredFhWAwAUgBYAsCyrIJ63FgDGLWuD53lj2Ww2B96QREQ0af8fWXVjdbXcUOoAAAAldEVYdGRhdGU6Y3JlYXRlADIwMjQtMDctMDdUMTQ6MjU6NDkrMDA6MDAV2zSAAAAAJXRFWHRkYXRlOm1vZGlmeQAyMDI0LTA3LTA3VDE0OjI1OjQ5KzAwOjAwZIaMPAAAAABJRU5ErkJggg==;" vertex="1" parent="FR8kBGyASRBOxjCdUhm_-7">
          <mxGeometry y="30" width="98.54" height="160" as="geometry" />
        </mxCell>
        <mxCell id="FR8kBGyASRBOxjCdUhm_-6" value="&lt;font style=&quot;font-size: 15px;&quot;&gt;Node: kafka-0&lt;/font&gt;" style="text;html=1;align=center;verticalAlign=middle;whiteSpace=wrap;rounded=0;" vertex="1" parent="FR8kBGyASRBOxjCdUhm_-7">
          <mxGeometry width="120" height="30" as="geometry" />
        </mxCell>
        <mxCell id="FR8kBGyASRBOxjCdUhm_-8" value="" style="group" vertex="1" connectable="0" parent="1">
          <mxGeometry x="240" y="320" width="120" height="190" as="geometry" />
        </mxCell>
        <mxCell id="FR8kBGyASRBOxjCdUhm_-9" value="" style="shape=image;verticalLabelPosition=bottom;labelBackgroundColor=default;verticalAlign=top;aspect=fixed;imageAspect=0;image=data:image/png,iVBORw0KGgoAAAANSUhEUgAAAdkAAAMACAYAAABo6R3MAAAABGdBTUEAALGPC/xhBQAAACBjSFJNAAB6JgAAgIQAAPoAAACA6AAAdTAAAOpgAAA6mAAAF3CculE8AAAABmJLR0QA/wD/AP+gvaeTAAAAB3RJTUUH6AcHDhkx2XRTzgAAgABJREFUeNrt3Xl4XGXZP/DvfWaytGnJJGkppMnMmaUNEgEliOyURWQRRRFQZFFUXPgJvIob7vuGiAuKAi4sKiAIiIKylR2EChQCtJ3lnElaKG2TSds028y5f3+0Ikvpksz6nO/nurze6xVJ8tz3c873ec6cOUdAxuju7q4fGRqJqKW2BUQhXofCahPRWVDMBtAGYMam/9Rt+tdCAATQPCDrNv13owBGAOSgWCWCNQpdoyprxIIrQKYg4mQymX4ABVaeiGjzhCWozTAdHx7e1fNkd4i3m4jsoapvAKQdgFXGP2UCQBaCXqguFrUWFwJYnMlkkgxfIiKGbE2wbXunoCdvgaX7q8oBgO4FoKGK/+QNgDwO0UXiyf3Bwvhdzy1fvoadJCKGLFXc7nPmNG1omH4oRI9S4AgA8RofkifAUxDcBuC25ra2BxYtWjTBThMRQ5bKoquzsz0vgfeKhXeo4qAq36lO1VoAd0BwcwG4yXGcHGcAETFkqah2mTu3bSJQf4yId4ICRwIS9GEZxgR6u6p1ndQHbkwmk2s5M4iIIUuTsgAI9tn2O6DyEUCPBBBgVV4yAuhfPM+6NNOXuY/lICKGLG2Trkgkmof1EUA/CKCdFdnqxHxOoZcFJhr+sHTF0tWsCBExZOk14uFwD0TOAfB+n14OnqoxQK+1gO8tc91nWQ4iYsiSFY9E3gVYnwF0f5ajKDwAN0O9C1LZ7AMsBxExZH0oFo4dLuL9EMCbWY2STdsHRPTLScdZyFoQEUPWN+Fa+B4ge7Ea5aJ3qBc4P92XfpS1ICKGrIESkcieKnIRFAeyGpVJWiiu1aD1uXQ6nWU5iIgha4Bd5s5tm6ir+yoUZ4Ffw6kGIyL4WaCh4TtLlixZx3IQEUO2NgUSkcg5CvkagB1Yjqrb2PaLWp9OZjPXsRZExJCtIbGO2G6W5V2mgr1Zjaqf2n9H0PpEKpXqYy2IqGK7MpZg62zbbpwVCn0ZoldCEGZFasJ8ePrhlubQyOBQ7lEAypIQEXeyVSYRibxZIVcDeAOrUbPulnzwtOTyZD9LQUTlZLEEr78AiYXtcxTyEAO25h2iwfzTsUjkZJaCiLiTrbD5HR1zC4HgFQAOZTWMm/C/bdjQdE7vqt71rAYRMWTLbF40epDn6TUAdmI1jLVE1Ds+mc32shREVEq8XPwy8XD0TM/TOxiwxutSsR5KhKPvZSmIqJR4dzGA7tndM3bYselKAF9gTXyjAYITWppDDYNDuYXg3cdEVAK+v1wciUR2DsL6G6A9nA6+dVuwseFEPimKiBiyRRTvjL8RVuHvAL/7ygMBT1qF/DFL+/uXsxpEVCy+/Uw2Fo4dDqtwPwOWAECBPQqB4P2JcHhXVoOIGLJTkAhHTxTx/gGgmVOAXsZWsR5I2PY+LAURMWQns4ONRE5W8a4GUMf202aEPMUd8UiE35EmIobs9ojb9scEciUgQbaeXo8ATYD8LWHbb2c1iIghuy072LB9DhS/Ar8bTNtmuipuikUiR7MURDSFRbsPAta2PySKy8GvLNH2GxfBO5OO80+WgogYsq+SCEffq6J/Bh8yQZO3wfPkyExf5j6WgogYspvEI5F3A7iWn8FSEeQEemjSdR9nKYjI9yEbjUb3tjy9G8B0tpmK5HnPkn0zmYzLUhCRb0N2fjgcK4j1EIAd2WIqsmcKgv0dx8mxFES0NcbdabvL3LltBbFuZcBSiewaUPy1u7u7nqUgIl+FbHd3d/1EMHgjgPlsLZXQgpH1G37JMhDR1hh1x+3M6TN+JsDxbCuVmgB7traEXhjM5RaxGkS0hXOFGWKRyAcEchVbSmU0AfUOSWWzD7AURGRsyEaj0T0sTx8E7ySm8ns+D+1xXfd5loKIXq3mP5Pt6uqaaXl6PQOWKmTnOpE/gI/rJKLNqPnPZENNM38DwSFsJVVQvDXUvG5waOghloKIXq6mLxfHIpHjBfIXtpGqwJgl2GeZ4zzBUhBRzYdsYm6iA8H8kwq0so1UJZ4dmRjfa8WKFRtYCiICavdzJNHgxO8YsFRl3tBYV/9tloGIanonu+nVdb9l+6gKeQI9IOm6/HyWiGovZG3b3imo6OUulqr4qHoq1NbWs2jRogkWg8jfau5ycQD4GQOWqppit9zq1Z9jIYiopnay8UjkKED+wbZRDRgNqNe9NJtNsxRE3MlWvQVAEJAfsWVUIxoLYnG+EjFka0O/bX8KQDdbRjXkPYlo9AiWgci/auJy8fz2+bMKdeNLAbSwZVOyCsAyVawXC0OiWKeC9QKMeCozRLVJRWcIEAIQAmQegGaWbUoWp1xnTwAFloLIf4K18EcW6sa+BggDdtt5AJ5QyEKIPm2pPjdaKCzp7+8f2N4fFIlEdg4Cu0BkPjy8CYJDwff1bo/d4+HoGals5lKWgog72aoTjUYjlqdLADSwXVuUBfQmAHePFQr3TCZQt/nKQkfHXM+qO1Shh4rgnbzbeysUfVIfnJdMJsdYDCKGbFWJRyKXAvIRtmqzRiC4RTy5MpnN/AMVuCTZ3d1dP7Zuw9vV0lOheBeAerZlc0ErZ6eymZ+zEEQM2aqR6OyMqxV4FkAdW/UKz0Lww6aRkesWr1w5XC1/1MbPzic+COinAezMNr3C8yMT4wk+15jIX6r6VXctra0XAdiTbXrJ46JydirrfGowl3t85fBwVT1RaM26NRsGh3IPNreELhbBCtl4N3iIbQMAzKwLWIN8HR4Rd7JVIR6PdyJfSHEXCwBYqmp9Jp1N/x2A1sof3dPTUze0euB0hX4HwI5sI5Y3zmiK9fb2jrMURP5Qvd+TzXvnMGAxIoJvSF1w93Q2fUstBSwALFq0aCLpZi4rCLog+Bn4NZa5o8PD7+dph4g72YpKJBI76EQ+C19/R1P+HoT3qSWumzFlRLHO2FvE8i6Bnz8CEDyVcpw9am3BREQG7WR1YuKjPg7YMVWcm3Izx5oUsACQ7ks/2uk6bxXBN7Dxu7z+o9gtYdt8ChQRQ7Zyf5NCzvJpP1JQb/901vmpqTudhUA+6ThfF0/eLcCAH5usirN56iFiyFZEIho9XICoD3txo9QF90xls4v8MNhkX+bmgiV7AvqYD3v99ng83snTDxFDtuw8z/uo35ogwO86XeeEZDK51k/jzmQybtPo6AIAt/ms5QGdKJzB0w8RQ7asotHoHIG8y1cBK/hB0nXOWAjk/TgBF69cOdw4o+ldAP7kr77rR1Dl31MnIsNC1vJwGvzztR0V6FlJx/mC3ydhb2/veMp1TgHUR48dlI64bb+NpyAihmz5TjvQD/in9PrZpOv+klPwJV7Kdc9RyOX+mQJ6MttOZPhyulr+kGg02mV5+pwvii74AXewrysQj9jXAniPD8a6bqyQn9Pf3z/CthNxJ1va4CnoSb7YvECvSjrOFzn1XldhrJA/BYL7fDDWmQ3B4NvZciKGbBl2d3qCD+p9T9h1PwQ+7WeL+vv7R8by+eMAOD5YdZ3EjhMxZEsqGo12AfJGw2u9KugVTl7o07uIJxG0A5bgfQAmzB6pviORSDSw40QM2ZIJqB5teJ09EZy6pK9vBafctlvmOI8AavildZnhjXsHsttEDNnSJZCHI43eqyh+kHScf3K6bb+U616ogr+ZnbN6FDtNxJAtid3nzGkSwUEG1/iZltltX+NUm8IaReSjAHLGZiz0SLaZiCFbEusbmg4B0GhwRnxq0aJFE5xqk5fJZFZC5asGD3HXaDQaYaeJGLIlWMZ7hxobr9CrUq57F6fZ1KWymV8C+I+xu1nVQ9llIoZsKexnaG1zalnncYoVTcESfBKmvodWZX+2mIghW1QdHR3TBHizkedMxU8ymcxKTrHiWeY4jwjkr0buZKEHsMNEDNmiagwG3wqg3sC6rsvD+zmnVwnCSPTbMPNhHvMTicRsdpiIIVtM+5oZBPhlNpsd5PQqyW72CUD+YeRmdqywLztMxJAtGlXsZWBNRydUf8qpVcJJK/otIwcW0B52l4ghW8SUxW6mFVQhV7uu+zynVkl3s48AeNi4uaPYnd0lYsgWxe5z5jRBEDduM2LhCk6r0hPolQYOazd2loghWxQbpk3bDVX20vgicJdlMvdxWpXeaKHwZwBjhg0rlkgkdmB3iRiyU6cmvnVHrwBfY1cW/f39AwBMuwFKkM/vyu4SMWSLkLE6z7RiepZ1NadUGecQ9CrjBuXJPHaWiCFbDLZhtXQzmcwSTqkyCgTuBFAwauEgxh0XRAzZComatauSOzidyiudTg+JYpFJYxJolJ0lYsgWIZVMO5l4d3M6VYRRL2BQcCdLxJCdot3nzGkCZJZJhazzGLKVUICY9pYj7mSJGLJTs6G+fifD6ugs6etbwelUftNHpj8Es+7o3oldJWLITokEArMMq+NznEqV0buqdz2gyw0aUuPGKz1ExJCdpIKqUSErypCt8DQ26q7uddOnz2JPiRiyUwglq82kInoW+NWdClKYVf+A57Wxq0QM2cmfFC1tNWsnq0s5lSpZf7OuJBQMW4QSMWTLH0pGfeakgUA/p1IF6y/ecqMOSvFmsKtEDNmpaDBq51EorONUqmDIqmVW/UXq2VUihuwUziFmnURmbJjBkK2ggKVm1d+TBnaViCE7+XOIwqSQ9XpX9W7gVKpkBzyjQlYE3MkSMWSndBox6SQyDMDjVKpgxgaDhl1J8LiTJWLITi1lWXoq3s5PjHqHr8Li8UHEkJ3KSVEnDKphEyr7NiOG7MTEDkYNSDHOrhIxZKdwElGTTiJW9+zu6ZxKleyANdOs8egYm0rEkJ3KrzVpJ4v109fP5FSqnIInRtVfwZ0sEUN2akZNKmIgEGDIVpCIZ1b9lTtZIobs1JbqOaNO8oXCXE6lCtZfLaPqL8Agu0rEkJ3KScSokFWRLk6lStYfRtXftOODiCFbZh7EqJW65YEhW9FQ8oyqf16EO1kihuxUTop5o04iKtiFU6miDTBtkcOdLBFDdgohq/qCUed4cCdbKbvPmdMEQYdBQxp1HGeInSViyE5aPhBYvjGbzCBAdH5HB29+qoB1DdP3g0lPEFP0mXRsEDFkK8BxnFEAq00qZD4QWMDpVIkFjh5i2ID62FUihmwRFuxYblgpD+F0qkgoHWrYePrZVCKGbBHOJXDMKqUeyulUXrFYrFmgPWZNI3XZWSKG7NRDVvGcWRsQRGOx2HxOqTIqFA4DJGhUxgJL2FgihuzUTyaWeScTy/NO5pQq58JGPmDcmFSfY2eJGLLFOJkYF7KqOB18V25ZhMPhFgDHmDaFpL5+GbtLxJCdsrzIszDvqwp2tDN6AKdV6QUt6yQADYZl7PJkMrmW3SViyE6Z4zg5AGnjCmp5p3FalZ4ojKuzijzOzhIxZIt4psR/DDz9nxyPx3fk1CqdaDS6N4B9jRuYh8fYXSKGbPFW7h4WGVjT6TpROJdTq5S7WP2yoQNjyBIxZIv6600MWYjgLNu2Q5xexTfPtt8kineYODa1zDweiBiyFTJtZNrDACYMrOsOAZX/x+lVfB5wPoy8g1uTmUxmJTtMxJAtmt5VvesVJn4uCwD6aX42W1yxzthboDjeyNkC6x52mIghW3QCvdfQ2rZgovBDTrHizVVLvF9Uw5wtyeAUDFkihmwpVvAGn1wEp82LRg/iNJu6RCTycRXsber4vKAwZIkYssU3bcOMewCMmRqznudd3NPTU8epNnnRaHSOQr5j8BCXptPpLDtNxJAtut5VvetFcK+5JZY35lav/iqn2uQLaHl6CYCQqQNU4O9sMxFDtpRuNTwnzk9Eo0dwum2/mG2fA+A4o2cH9BZ2moghWzKeZZm+krfU0ysikcjOnHLbEbCdsbeI4geGD3Nt44wZ97PbRAzZkkmn00sheMrwWs8JQq4GEOC02zrbtkOwvGsA1Bs9UMWtvb294+w4EUO2xCcbuc4H9T4kHon8Dnwd3hZ1d3fXB1SvEyBq/GBFr2HHiRiypc/YgPjkZCOnxiPRb3Pqva7AyPr1VwNyuA/Gum6sULiNLSdiyJZcOp1eqsAT/ii7nh8P22dz+r1W3LZ/KZD3+mK5Bbm5v79/hF0nYsiW548RXOGbygt+Eg9HP8op+L+KxCLRH0Nxpl8GrPCuZtuJGLJlE5yYuALmPpjitbUX/U3Ctr/v90m4AAjGItFLBfpp/4xa+1Ou+y+egogYsmXz3PLlawTiq+8MquLzsUjU2Gfybk17e/v0voh9k0A/7Kttu8jlAAo8BRExZMvKg/dbvzVBoGfFIpFrurq6Zvpp3Im5iY7Guvq7ABzts5Z7eeD3PP0Q+eH8XoXBH49ElgCS8GE/llqCk5Y5zhOmDzQWiRwtwB8AmeXDPv8j5TrH8PRDZL5gNa7yofJzCH7qw37M9xQPxWz7/9KOc4mJA1wABPsike8Cch58+n1hT+UinnpoMhuQRCLRls/n2wKe1yYaaIOgwROvXtRqAgC1dLoAI/BERbwC1FoLAAUgF7R0lRcIrBkZGVmzYsWKDSynf3ey6OrqmpkfHesHsIOPO3OzJ3J2JpNxTRlSIhLZU0UugeIt/j3k9OmU6+4OQHn6odccI3MTHVqXf6OoxhSIKmALYAMSBrBjEX/VCKDLATgAMgI4HuBYwHOoq+tNJpNj7IbBIQsAsYh9oQD/5+fmKDAMwbenNTVdWMuP3rNtOxRQ/RYgn4DPHysp0I8kXfdynnrItu1dLGBfAd4ExW4C7KFAaxWcefKALIXiKbHwpOdZj04bmfZw76re9eyaQSE7v6NjbiEQTAFoYJvwLKCfSbluTb2taAEQ7LPtU6D4PoA5bCNWFARxx3FGWQrfCSRs+y3q4SBY2B+q+9XY/QgFAE8C+gBEHgiM19+5dMXS1WxrDYcsAMTD9iUQfIxteqlZT6rKhals5ioAXrX+nT09PXW5VQPvh+iXAMxn5zbtDxTnprPOT1kJf5jfPn+WF5w4RC09HIpjAZj0Fi4PkMdF9A7Ps+4IZ9MLFwJ5dr3GQta2bTugWAqgjq16RdeeUtXveyI3VNOuyLbtUMDDaQDOg6CTjXqFF8YK+Rgfo2i2SCSycxDW8YB3EiD7wT/ff39RgOshuDbpOPdW8yaAIfsqsUj0Mr89qGA75AC9zvOsKzN9mftRgZtpenp66oZWDRzpiXeaQN4BoJFt2ew+9ryU6/6YdTBPLBZrFs97HxTvA3Ag+DrL5wH9i3qBK9N96UcZslUuMTfRocH8UgDTeDhvUVoUNwNyF+oD9ySTybUl3LHuZAGHiOqhgLwLwGyWf4sB2z9WKMznLtYs8UhkP6h8FIITAUxnRTYbME8Cemle5GrHcXIM2WqdzLb9Ayg+xym7zQoKPCaCe1R1MbzAEqvBWjqZ4J3fPn9WITjaJSK7KLAHIIcC6GaJtyNiBWekHed3rETta29vn95YX3+6KM7icbBdNkBxrReQizKZzJMM2SoTDodb6sRKAWjhXJ2SFapIwsKQKNZDsA5ADip5AA0QnQkPzRCZAWgrNt601MayTekIeyrlOG8Gn1Nc06LR6BzL8/4fgI/79CllxVx23iEiFyQd51/wwffFa+aJO7GwfY4ILuIEpRo7oRxda1+9ov/ZePOlng/IaeDXCYu+AFXge2nHuQYG3yhVMyG7AAj2RexFAHbn7KTayFfclMo6x7EQtWfTk5c+u+n9xryZr7SegcoPqv2ricaHLAAkbHuBKu7mnKQaMFIQ7Oo4jsNS1I757fNnFerHvwzFxxiuZfc4oF8y7cpPTd1qPpDLOa2hUBeA3TgfqcrXr9/MuM7NrENt6OnpqZtW1/ApDRSuB7AA1fnyFNPtDMgHWkOhtza3hBblcjkjnihVc29BicfjOyKf7+XNB1TFnpG64J58yHqNnFMikaMEcqECu7AaVWNCFBePw/tmNpsdZMiWWSwS+YBAruI8pCpUsAT7L3OcR1iK6tbV2dmetwK/APBuVqNqvaiCc9OO8yeGbLlXn2H7RgjexTlI1UV/lHJdfqe7ys978XD0VIheCH5FrVb8QwPWJ9LpdJYhW95V6GIeJFRFlowV8m/mk52q1/xwOFYQ63Js/NyVass6gX4h6bq/Qg19v1ZqueJx2z4Oir9y7lEVmLAEB/IycfVKhKMnqOhvAIRYjVqmdwQ97/QlfX0rauGvrekHWQ/mcs+1hpo7ANmTE48qfOB/Pum617EO1ScWizW37RC6XEW/BX4txwAS88Q6rW2HliUDa3NLuJMtsd3nzGkabpz2KIA3cPJRReJV8a901jkKfL1X1YmHw/sD1p/46kUzDz1AL26cMeMzvb2949X6R9b8uw4Xr1w5LOq9F9D1nHNUAcs1IKcxYKtPIhI5C2LdxYA1d0sLyP8bXT+8cH5Hx1zuZEt9QIWjJ6roNZx3VEYTqtah6Wz6fpaieti23RhUXKzAGayGbza1q1X1fels9s5q+8uMebnwwFCut605FIJgH044Ks8KVc9OZZ3rWYkqWmzPTXSI5d0B4GhWw1dH43QRnNwaah0cHMr9myFbIrsP5e5cGwrtDSDBSUelDVj8Num6X2Elqsc8236TWt5d2PiKRvLfUWkBOLqtORQaGMrdjir5mo9lUokXAvlgY8OJEDzFCUcldE/DjKZPsAxVtIONRo/wFPcAmMtq+JsKzo1H7Ovb29unV8mC3DxdkUg0D3kYwI6cclRkzxQE+zuOk2MpqkM8HP0oxPslIHyoP/0v3BT/tvL1xyxdsbSiLxqwTCzuEtfNqGcdA2AdpxoV0QtB6DsYsFW0g41EPg3RXzNgaTM72r0LdeP3RCKRnRmyJZDuSz8G6LsA8E0oVAxDAj16ietmWIrqEAvbn1fIj2HoFTkqil2DkAcTnZ1xhmwJpFz3blE5FUCBc40mvSIGhgV6VNJ1H2c1qmQHa9vfF8H3WQnaBrZK4O5YR2weQ7YEktnMdVA5A3xYAE3OqGXJe5Ku+xBLUTU72O+q4vOsBG0zQacECnd1RSJRhmwpdrTZzBUQMGhpe42JyonJTOZfLEV1iEeiXxbBF1kJmkTSduQhC6PRaKS8+e6nFbBtf0gUl/llcUFTskHVelc6m76Dpaia4/dcUfyElaApht5zGgwcnEqlXmTIlmIlbNsnQXEFgHpON9o8XQ/gnSnXvZu1qKoF8uXgTU5UjCMceMKqCx6cTCbXlvp3+W5Hl3KcawA9Cvx6D21+1TkgwBEM2OqRsO0ForiEAUtFPM7fpOP5axcAJf/qV8CPBR4cGsq0hprvAeQ4ANM55WgTRwPWgpTjPMlSVId4Z/yNEP0XgCZWg4qctIm1oeadB4eG/saQLU3Q9rXMbP2riB4JQRtnnO89HvQKhydd12EpqkMkEtnZEr0bwBxWg0qUtD0tLaGxwVyuZG/SCvi5vINrBweaZs64OmhZbwVgc8L5dUEr1zeNjrzzmRUrBliN6tDT01M3vmH07wB2YzWotMc/DmsJNT81ODT0LEO2BNauXTvS3jH3T/nx8Z0A6eGU8xUF9Dsp1/nkyuHhcZajekyva/glBO9mJagcOSuQt7fMbL1hcO1g0RfavJHgZRKRyIcV8gsAjayG+esrhZ6Rdl2+D7bKbLqT+LesBJV5S/tU08jIvotXrhwu5o/l90VfJum6l6tnHQQgy2qYfTBpwHoLA7b6xMPhHlH8kpWgslPsNtw47dJi/9gAK/tKg2sHV8xs3uEPQbESAHZlRUzLV/xuZGL8Pdls9gVWo7p0z+6eka/L3w7hjU5UMbu1hJr7BoeGivaccl4u3uKqOnoaxLsYkBmsRs0bUuhZade9mqWoTrFI9DKBfpiVoMpuaDGMgLVnOp1eWoyfx8vFW5DKZq4oiLwFwMOsRg3vXgW3Bwr5bgZsNQds5D0MWKqK8wXQZOW9K3t6euqK8fN4uXgrcrnc6sGh3O9bQ81rATkQQB2rUjPWquDclOOcu2bt2rUsR3Xq6uxsV7H+AT4YhqonaeeObtggg0NDU37yG3ey26aQct0fa8HaA8BClqP6qeBvkg92px3nEgDKilSvvBW4GOADYajqfGGebb+pCDtj2l6xSORkgfwIQDurUW3pij6BfCaZzVzHYlS/RDh6gopey0pQlW5pF3W6mX0WAvnJ/gReLp6EwaGhp3bcac6lXt6rB7AX61gVRkTwvZGJ8fe7/X189nANCIfDLZbILQB4YyFVq/a1oZb1g0O5B7mTrdRKvLMzrhL4DgQnsp4V4Qnw54Il52cyGZflqKFjJ2JfrsAZrARVuQ0B9XZbms2mGbIVFI1G97Y8/T6AQ1iNcpG/exa+lMlkuHOtMfNs+62e4iGeg6gmKG5KZZ3jGLLVELad0QMtC18D9DBWo0TRKrjd86xvprPp+1mN2mxhPGI/CGAfloJqJmfVels6m76DIVsl4uHw/pDAFze9IJ53cU+dB+BG9azvp/vSj7IctSsRjp6ioleyElRjMft0p+u+eeF23gTFkC31zjYa7bIKei4Ep4HfA5zMxF4Plass0Z8tc91nWY/atvucOU3DjdOWAJjLamy3cQBJAM+JYqlaWKKqL1oiw+p560U1lw8EhgE0Bj2vSSxrRsGzZlrQkApswJuvKl0i2AXAjizn9hPo/0u67sUM2Sq0y9y5bRPB4AcF8hEFdmFFthquSRH5pWdZv02n00OshyG7WNv+oiq+y0psk3WA3Cvw7gJwd9J1FwMoFOMHz2+fPytfN3YQYB0q0EPA57RvqxcbNzTFe1f1rmfIVvPutjN6oBXQj6jieAGaWJH/nVQE+ItY8vtlmcx94EMkjBKLxZqtgpdWoJXVeF2rIPgTVK/pdN1/L5zC9zO3RyQS2bkO1jEqehoUBzAbthCagvOTjvM9hmwNaG9vnz6tvv5YKN4H4CgADT4sw5gK/mV5ct30sQ03FPtdjlRVu9ivq+JrrMRrjAvkb/BwRfOOrbcuWrRoopJ/TFckEp1QOVU2fsQVZ3teE5oDXsCKbesVNoZsFa3yxfOOEsWxAI40fLW/DsDtCr3eqqu7JZlM8rnChuvo6GhtCATTAJpZjZdsgOBSmQhekFye7K/Cv89KhKPv8US/JMCb2K7/UcXX01nnGwzZ2hWIdkb3syzvbQAOAWRvAPU1PB4PwBOq+Kdl4Z/NbW0PVnq1TuUVj0S+CchXWAkAwFpVXCx1gYtSqdSLtbB5i0UiRwvkSwD2ZfsAAENSFwxvywaBIVsDdp8zp2nD9On7q6c3AWiskZXevSJyv8J7AIHAA7x5yb/a29unT6urcwGZ5fcNEKBXeZb12Uwms7ImF0u2fRIUF4LPbQeg56Vc98cMWaN2A/YQgB1qYfalXIffDSYAQCIS+aRCLvZ5GZZ6Kv8vk83cbsSif9q0z6rii6jtK2xTPc31h2bNim3tqhxPhERUSpaqnOvj8RdU8bXQrLY3mhCwALB45crhpON83bNkb0Cf9m9rpWNw9eoTt3oA8BxARKUSt+13QjDPp8NfIYLD0lnnmybeg5DJZJ4cmZh4qwC/9W3MQj7DkCWiyvHwcZ+O/K6CoCfpOPcYvYpYsWJD0nU+LCqnArreh31+czQa3ZshS0RlZ9u2DcHb/DdyvSDlOm9zHOcFv4w4mc1cBS+4L6D9fuu2eDiTIUtEZRdQ/bDPzjEqgm+kXPez2Pi1NV9J9aWeDnreWyF4ylchC++kRCKxA0OWiMpmARAE5EM+GnJBIGcmHefrfu77kr6+FWP5/AIAD/ooZmfoeOEkhiwRlU02EjkCvnnTjuYBPSHpZi5j54H+/v6BptGRIwD1z/ueRT/EkCWi8p1zRE7yyVBVgI+nXPev7Pr/LF65clgDgXco8IRPhryPbds2Q5aISi6RSDRA8S6fJOz5Sde9nF1/rXQ6PVTnFY4B4PhhXRlQOYEhS0SlN1Z4O/zwIgDBT9OO8302/PUt6etb4VlyJIA15o/WO5EhS0SlZ+FE04eoins7Hec8NnvrMpnMEoWeBuPfDy17JTo74wxZIiqlAKBHmb2BxQCC1qkLy/RCdROkXfcfEPzI+L1sIHAsQ5aISiYWju1r+LuQFSofTKfTWXZ7+3Q6zpcAecDslMVRDFkiKt0uT8zexQJyYTKb+Rs7vf0WAnkErfcDWGvu/MdB7e3t0xmyRFSqjZ65Iavoa9ww/evs8eSlUqk+FXzN4CE2NtbVLWDIElHRRaPROQDeZOwALZzdu6p3PTs9NWHH+YUATxq7mwWOZMgSUdEFCjhw4znGSLelHOdGdnnqFgL5giVnwtDnOwvkIIYsERWdJ7qfoUObCKh3FjtcPJlM5t8QXGXi2BR4YywWa2bIElFxV/CCA8zcmeDKpdlsmh0ucl0LhW9ufO6zcQKW5+3DkCWiouno6JgGxR4GDq3gBawfsMPFl+zrSwnkWiN3s6r7M2SJqGjqrfoeAPXmnS3xl3Q6vZQdLlV9ve/CzM9m92XIElHRiOibTByXF5Dvsrsl3M1ms70AbjbwiNiDIUtExYyj3Q0c1MOZTGYxe1vqiwV6qYHDmm3b9k4MWSIq0olSjAtZgV7JzpZe2HX/BeAF08YVlI3HBEOWiKbKEmi3YWMatyYarmVrS28hkFfgT8YtPD0wZIlo6roikQggMwwb1t+Xrli6mt0t0yrNwKsGAt2VIUtEU5YHosbtQqDXs7Plk3TdxwGkzJpDiDFkiagIK3bzQrbO8+5mZ8seS3cZNiCbIUtExVix24YN6ZklfX0r2NkyzyMR0xY2HT09PXUMWSKa4k7WMmonqxDuYisxjwKBOzeu2YwRWLdqVSdDloimxFPtNGxEDNkKSKVSLwJ4xqQxFUQiDFkimhJLsKNR4/G8J9jVCu1mDXvPrKg1iyFLRFOiQJtBwxnv6Otz2dXK8BRLjBqPpQxZIprq5kNbDBrPsoVAnm2t0GSyzApZUWljyBLRpHV0dLQAEjRoSEvY1cqxYFrIKkOWiCZvumWFjDopCpaxq5UzPD5u1GsF1UIrQ5aIJs0DGo06KXoYYFcrZ8WKFRsAjBl0gDQwZIlo8js/yzLqRe1qYR27WvEumNMDYcgS0dQ0mDQYyxOGbKUjFkb1oJ4hS0STli+IYTtZXc+uVnrzZ9LVBOFOloimsPOzPJPuLIaIbGBXK27YnAml3MkS0ZSMGTWavFk3ctUiBaYZNJgJhiwRTX6hDoyYNB7P8mayqxWfUyb1YIwhS0ST3/iJGBWyIjKDXa04hiwREQBYlmXWZ5gq3MlW3g4GbcvHGbJENGnB0aBpNwqF2NXKSSQSDTDpASeq3MkS0eQ1FoaMulwM1QS7WkHj42bVX2SQIUtEk7Z45coRAGpMxgq62NVK1l/mGzUeD2sYskQ0FR5gzvN+BZgPgOfFim38ZBeTxmOJruZkIqKprdaBPoOGMz0Wi3WwqxXb+Rl1JUFFuJMloimu1qH9Rg0oj93Z1YptZd9o1qLBYsgS0ZTPjH1GjUYKB7On5WfbdgjQNxk1qCCyDFkimmIqGXW5GIAcyqaWXwBYsPH/GLSR9TyGLBFNkSeGhSzeNL99/iw2ttyRpKYtblY4jjPKkCWiqbEM+0wWsPJ1YwexsWV3iFnDEQfgreo1YQEQjEajewColdeKScy2vxCLRI6e39Exlx00PGPz+WWmjUmA49jZ8ol1xOYBht30BC+zaS5RlQnMs+3dVGUvQPeEokcFu6OmHzWmqwHrSQBPQPTRQD5//9L+/uVstTnikcgqQIy5xKrA8LQNTTv1rurlS9zLM3++CchXjFqoCc5POs73gmxv5Xep/ba9l3o4CCIHAXqAp2h+6SE6RiyDZBaghwE4DAoUAkHEI7aj0PtF5H7xvPuT2ewzMOjJQT7czz65qcem7GSbRqdteA+AK9jb0pdbIaeYtuPzPOspoHYuPxrFtm07qHq0Qo7pgx4ExYyNYeqrjLEFYkNxioqFeMR+XoDboHLbOAq3Z7PZQc6UmvIEgMOMGpHgNIZs6UU7owcINGrcwIJYbMw+qRaW+QnbPlBVjwHkaADdLMkWFQB5WOD9o2BZ12cymSUsSXVLhKOnqqhpgeQFoYklrpthh0snHrZ/D8Hphg0rl3KdVgDKkC3hOjgeiewLkZOgOAHAzizJpC0G9FoNBK5Lp9NLWY4q3I1Eo7tbnj5p3MAUl6SyzifY4ZLNm4jl6TIAdWad/XFfynEO4k62JCv6cLeKnA7IiQAirEixz3l4QhR/Kli4wnGcF1iR6tDT01OXW71mHYAGw4Y2FvQKsSV9fSvY5eKLRaIXC/ST5m2x8MOU43yeIVskXV1dMwuj4ycp9MMA9mFFyhK3eaj8XSCXd2Qzty4E8qxJZcUj9kMmzn8FfpJ2nU+zw8UViUR2DkLSMOkl7f/NWMFxSce5CeD3ZKe2CuuM7RWLRC/Lj46uUOilDNiyTuMgBO9S0Zv7IrYbC9vfjcViYdaloj2509CBnRmNRuewv8VVp/I5EwMWgFrj9Q/8b1NL28tKhKPHqHhnA3I4y1FVPIH+Q1W/n8pmH2A5yr2TjRxqbNAqfp/KOh9il4u0QYnF5kvBWwzzPl4AgGdTrrPrS4HBdm+b7tndM+Jh++x4xF6qojczYKtzAaSQd0Cs++MR+8FEOHrCAn5NrWwKIg8CGDVzk47To53RA9nl4lRTCt4lhgYsAH3glVOHthquI9OGPyyCLwLgJaPa46jiIqs+eEkymRxjOUq9m7XvBGDqW2x6Q7Pa3rxo0aIJdnoKu9hI5AMCucrU8Sn0vWnXvf6//3+ALX+diRCLNbfMbP58oX7iGhG8G8AMVqUmhURwpHreB9pCzeujicTTzz//vMeylEZbqLkDkMMMHd6OoxtG1w0O5R5kpycnHA63BMS6ydzzqeY9kU/kcrmXrujwcvGr7D5nTlM8Ev2KFDxHBN8A0MKq1D4Bogq5LLd6zdJEJPJhLjBLVWi5y+wB6rdinbG92OjJzY46sX4LYCeD5/9DjuPkXv5fMWRfVotEOHrCcOO0XkC/CSDEkhjJVshliYj9dCIcPYHlKGJhbXsnVXzF8GE2iOX9paOjo5Ud3z4x2z4Hhr/dSIBbN/PfUdy2jwTwQyh2YzX8tvHC7QWR8zKZzGJWY/IS4egJEL1EAV+Ej0L/knZdLtK2NWA7Y28Ry7sfQL3J4/Qs2ePV5xJfh2yiszOuVuDnAI7iYeBrnkJ+Z9UFvphMJlexHNtxDCUSO2g+/3MoTvPf6PW8lOv+mLNgy6LR6BzL04cB2IYP9RVf3fkvX34u1d3dXT9zWtN5sKxrAbyBhwE3tALsCc/7aEtzaHRwKPco+Nq9rQesbe+jhcJtgBzi02nzttaWkDuYyz3B2bB5XV1dM3Uif7sfzrOquHhwKHfPa2aJ35oej0QOFcjFCuzCQ4Be5+T5gBbkE+n+9FOsxWst2PgO5C+r4svgDWQTgL4r5bq3cma8djMzsm74byI4whdnDfW6N70X258hu8vcuW35YN3PFDiZ05+26eQp+EkB+JrjOKMsx0bzIpE3eBu/47gnq/HSHma9JXL4Msd5hLV4SSBu23+E4kSfjHdxynX22Nw/8MXdxbFI5OiJYN2TDFjaDnVQfC6g+E+sM/YWlgMSD0fPLEAeZcC+pjQzPNU7EtHoEawFkEgkGnwWsBDoH17/nxnMtu1QAPgBFGdy6tMUdip5EflxQ1PTV3t7e8f9Nvp4PL6j5POXK+QdnAtbNA7BaSnHucavBeie3T1jrGn4BlW8zU99l7pgx+vdNGlsyMYjkUMAuRLAXB77VCT/EfVOS2azvb4J2Ejk3QB+A8gstn+bFFTwqbTj/MpvA49EIjvXQW5VYA9fDVxwbcpxTnq9f2ziTQuBhG1/DZDLADTzmKci2hkiZ7Q0h9YPDuWM/vytvb19+o5tbRcAciEg09n6bWYJcExrqDk+ranpn+vWrfPFc47nRaMHieKfAOb5reGq1rmDQ4Pp189gg8RisbAU9I+A7s9jnUp6YEGvmrZhxid6V/WuN21siUhkX914FSjOTk9lg4MnvYB1YjqdXmryoiIeiXwRwNcB8eEbrzSZct0uAK/7PHRjbnyKRSLHSMF7ggFL5TmByilj04cfjXXEjHlK2AIgGI9EvqnAvQzYYizEsIcUvMcS4egpJo7Ptu2dErZ9GyDf9mfAAgJctKWANWUnK/FI9EuAfgN8FjOV34iofCyZzVxZ04vUWGy+lfeuVMHebGlJEvef6lmfSvenlxkwmkA8HP0kRL8FX38kp6tHJiYiK1as2LDFYtXyELtnd89onj3jj4CeBT6HmSqjDoJ3t7aEWgdzudtRg0+Kioejp4l6N0EkynaWbMuTEEs/3toSmtXZ0HDfyuHhmvysNh4O97Q1t9wAwUcANPq6pSI/cvv6bt+G3W6Nrrw7YvMk4N0IYFcewVQl/qEB6+R0Oj1UEyfMeHxHLRQuE8WxbF1ZOVD5buPM6X+ola+EJcLhboh1vgLvA68YAsAIggE7lUq9aGTIJmx7H1XcDGA2e01VRbGsYOGdjuM8V+XH0NtV8TsAO7NpFbNSFT8ZzY//fGuXHCslGo3ubnneeYCcDD5C83/BqbgomXX+b9suYtTa5QrbPgmK3/v9UgVV8QEIDCj02JTrPlhtf9vuc+Y0DTdM+zEEZ4IfsVRN2Irg9/C8K6vhO9jt7e3TG+vq3m2JnK6KwzlPXr2OxrBaEs9kMiuNC9l42P4cBN9n06kGbBCV9yWzmb9Vyx+06Z2eVwGYz/ZU7RJtkapeWRC91nXd58v1WxcAwb5I5CConArB8QBmshevm5o/TDnO57dj0V0TrFgk+nOBfpIdphpa8+YF+HjSdS+v8B8SiEei5wP6FQB17EutbJjwDAR3Arh7wvPuyWazg8U8p86z7d0VOASqhyrkYAbrNlkXmKiPLV2xdLUxIbsACGYjkd8J5BT2l2rzZKlfSbnudyrxy+eHw7GCWFcC2I+tqGkFACkVLBHV5wTW0oKHJQjixbqJifX5+vr1L7/hLpFINIyOjjZNt6yQWtYOnmpUVeZbgq5Nr/l8A4AQy7rd29ivptzMt7Zv41vFuru760fXD/8JwHvYXKrxrL0g5bqfLedvjEUiZwjkIu5QfGUtgGm8YlES7lgh/4b+/v6R7fmXqvZusfb29ulS8P4K8OsFZMQKeL+WUKh5cCj3r1L/Jtu2Q23Nod8K5EsAGlh7X2kA7wIuzRGs8jGnL/vk9v57VdmM9vb26dPq6m8BfPW6JDL9IAX2bW0JtQzmcv8s1e+I2/aRluJfAPZlxYmKdvDel3KdSV2JqrqQTSQSDQGVm0RwODtLBnpra6i5bXBo6LZi/tCOjo5ps1tafgLIT8HLw0RFpHlL5D0DudwLNR+yPT09dSPDw38R4Gg2lgxeFu/d1hxqHhgqzo42EYnsGbAC/wTkGPDrbURFPlzlgqTjXDXZf72aQjYwvb7hSgGOZ1fJ/AMX+7SGWgqDQ7l7p/JTYmH7HIhcA2AnFpWoyHtYIDNjdOR9U3nWdLWErMTD9m8h4Nd0yE8ObWkJvTiYyz22vf+ibdt26w6hm0TwMfBGF6KSZKxA3/vc8uVTeh9wVTzoOR6JfguC09lT8t2GVvGLuG2/b3v+nUQ4empA8YQIDmIFiUqWsZenXPeuKR/jFQ9Y2/4YFJewoeRj457KOzLZzBZfmxUOh1vqLOsSKE5kyYhKma9Y1jjStGfvqt71NR2ysUjkGAFuBCTIrpLPrYUX2D/Vl3p6s8dKOHyYiPwekA6WiqikCZu3RA5Y5jiPFOOnVSxkY52xvcTy7gEwnU0lAgCkAhP1+7z8uai2bTdaiu8KcC545zBRyYng/KTjfK9oP68Sg7Bte6eA6qNclRO95oi8T4LBtyWTybFoNLq7pXoVFLuxMERlOQDvTLmZIwB4xfqJZb8rMZFINEjB+wcg3Wwo0WtEoF64tbk5Loo/A2hnSYjKQNEn9cEjBgYGhov5Y8v+WahOTPwcEL4RhOj1D/bTeGWYqKzGVK3jU8nkqmL/4LKGbDxsnw3go+wnERFVz8JWzk73pR8txY8u23J5nm2/1VPcC6CeHSUioqrIV8gv027mrFL9/LI8jMK27VBB8ScGLBERVZFbw27mnFL+gnKErAQUvxUgyn4S0SS8AGCCZaAi+0/jhqYTFwL5mg7ZeNj+FIB3s59EtN0rdMj1dfmJN0JwGor4tQryvWwe+o5iPNFp63O4hGIdsd0k4D0KoIE9JaLtsA6Cs1OO8/uXzie2/QlR/JKloSl6QQPWwel0emk5flnJvie7AAiubQndAqCTPSWi7fAwCoEjU9nMKx7OPpjLPdYWap4A5DCWiCYpJ9AjUo7TW65fWLKQDUQi3wDwPvaUiLbRBKBfS7nuGYNrB9ds7n8wMDR0X1tLaBqAA1gu2k5r1bPelso6i8r5S0sSstFodG9R/R0gFvtKRNtgiXrWMemscw0A3dL/cCCXu6M11BwEhK/6o201BPWOSfc5D5f7Fxc9ZG3bbgwqbgNkR/aViLZCBbhkZGL8+OzyrLut/9Lg0NDdraHmPCCHsoS0FWug3ttS2ewjlfjlRQ/ZtubmrwJyPPtKRFvxoqicnMw6P1m3bt12f0VncGjovtZQ83pA3gY+h5I2b6VnyeFp132iUn9AUUM2Go12ieIqVOCZyERUQwQ3S13wyGQm/fhUfszg0NBDbaGW5YAezY+n6OUUyKBgHZrJZp6t7FQv4s+KR+w7ARzC9laNFwBkADgQ9InqShVZo561BsBowPLWeZ73vy9iizSoBqZbltfkqbaJyiwV7CRABICNjQ8UaWFZaQqnvvVQ69OpbObSYv7UuG0fCcW1AGayxiSKfxcC8s5MJrOy8uvJIkmEo6eq6BVsb8UsEeBBhfxHRJ8a97zF2Wx2sNi/JBKJ7FxnWbuphz2g2gPR/fleYNrGncUjKFinpvvTy0rx8xORyJsVcgv4ekC/u3FkYvwDK1as2FAVgV+MHxKLxZql4C0FwJudyseF4jZYuC0wXn//0hVLV1fqD4nFYmErrwer6FEAjgDQxvbQy+I1LyLf6XCcby8s8SPsYrFY2Cp4NyuwB+vuy4XcT9Kucx6q6OlgRQnZeCTyQ0A+yxaXXK8qrrXgXZ/MZnur9G8MxCORt4rKCSr6Xu5yfX/aS4rIqUmnfF+daG9vnz69ruE3Cv0A6+8bG0TlY8ls5qpq+8OmHLLzw+FYQaxnwEcnluoktRqw/gDP+n2qL/V0jf3xVrQzur8l+mEITgAwnf301dy9rHHDjP8rx/NhN7v4D9tnQ3ABgDr2wmgpz5LjM5nMk9X4x005ZGORyHUCeS/7XHQPQvBzCQb/mkwmx2p9MLFYrNkqFE5RyNkA5rO9Rlslgo8mHeemSv8h0c7ogZal1wDYmW0xj0BvGVc9rRT3n1RFyMbCsQNEvHvB76gVi6fQGyzgwqTrPmToGK2EbR+rqucBwkfjmecfBcGHHcd5oVr+oPnt82cV6sYvBXAc22OMEUA+l3IzF2MrTwir6ZCNR+yHAOzDfk+ZCuQGaOFrVfxZa9HFI5FDAfkWgP04BWreBoF+Num6v6rWk148HP2oiv5EgCa2q6YtFvVOrpVz5aRDNhaJHC2Qv7PfU3aXQM9Luu7jfi3Aprn0IwC7cjrUIllUED3FcZznqn6udcTmIeBdKcBb2beaUwDkooLolx3HGa2Zo2Oy/2IibD+igr3Z98nuXdEHyJdT2Qy/W4yNr0bsC0fPgOi3AcxmRWqCB8EvGpuaPtvb2zteQ3+3FQ9HPwLRC8CHV9RKUj3liXwkk8n8u/b+9EkFbPRYFb2ZnZ9UuuYh8sumkZHzF69cOcx6vFJHR0drQzD4PSjOZDWqmmtZctqyTObeWh1AV2dne94K/BzAe9jOqjUqgh80NDV9t8YWclMKWYlH7McA7Mn+b7f/WIIPL3OcJ1iKLYtFIscIcAm/Z1uN60T8QeqDZyeTybUmDCcRjp6o0Asg6GRzq8qN4hXOS/b1pWp7E769J79w7B0i3t/Y/+3iieKHzbPbvrpo0aIJlmPbd7X1gcCv+RWxqjlZDGDjF/7/YuBcm9YQCHwawBcAmcFuV3SiPaWe93/pbPZOQ46b7ROP2AsBHMyZsM2Wi+ADSce5h6WY5K7Wtj8kil+AD7Oo3IlCcHugUPjgkr6+FSaP07btnQKq3wLkQyjBq0Bpi1ao4Fthx7lsYYkfv1m1IRvrjO0llvco58I2u8ez5KRqeBNErYtGo7tbnnc9IAlWo6xGVfGFdNb5Gar8+4jFlAiHuxXWVzY9qYyv0CutFwX6g9FC4Vf9/f0j5m3Mt2cXG7b/DMFJnBPbVNmfdTrOZ0xakVXBLiMUUFwN4GhWoywnhyeh3gf89N3tzYTtrirWlwGcxLAtulUi+EnDcNPPK/XozaoKWdu27YDqMkD4QvYtKwj0nKTrXsxSlEQgFon+TKCfZClKxgP0x1JX9xUTHulZpAXeLpbKebLxpQONrMgUKJaphQvH8/k/mLhznXTIxiLRHwv005whW5o7GIZa70tn07ewGqUVj0TPA/SH4CM9iy0rgtOTjrOQpXit+e3zZ3n14x9V1U/yzvftTpv7oPqTlOvehCp6FV1VhKxt240BRT/4ntAtWet58o5MX+Y+lqI8Nt0QdSl4g0qxTgZ/zAvOchwnx2ps2QIg2B+OvgeWfkQVh4GXkl9v67FaYV0RgHfZMtd91qfH1bbsYiMfEMhVnDCvW8QBz7OOTPeleVNYuXe0tn0SFFeCrzObipwKPpl2nD+xFJPY3XZ0zM1bwVNEcBr4aFAAGBfov6DWlagP3OT3jxy2LWTD9j0iOIhzZ7OGoN5hqWx2EUtRGYlw9AQV/RN3tJNyN4KB01OpVB9LMXWxzthbrIB3vCqOA9Dlox1rHip3qoVr8p53YzW/eq7qQnZeJPIGD9ILfva1uYm1HsDbU677IGtR4R1tOHoaRH8HXrbbVmOAfDnlZi6Ejz4fK6doNNolBT1OBO8CsLeBi8CVEPwTwK11ExO3P7d8+Rp2fRIhyxueXte4qne0KU8lMSRoPwXRn7ESW10cPu1Z1imZTOZJ1qJMO9xYrNnK60Ge6CECLACwRw0uCAcBeVBF7xfPuz2Vzf4HPvrudKlCNhCP2H0AdmapXnmWgsoH+QadKjyZcVG4xXkrip/mLXyxll4VZqKOjo7WhkDgrQD2FFhvVuibAcSq6E/cAOgzCutJEX1UPO/+ZDb7DEO1yCEbC8cOF/FuZ5leVTTBN5KO83VWoipZ8Yh9HfhmldcmrFrH8utl1cu27VAQ2AOqCU8lLhYSUMQBJADsUIJfOQGgD4CjkIzAy4haSzxPnkz3p9MACuzK1G3xwRKWeO/nsuU1/pp0nG+wDFXLa9zQdPro9OEuAN0sx8uOZ8vjjWFVbNNXp+7Z9J9XaG9vn97Y2DhLVXcSz5slIrMFaPU81ItInYjOAAD1EIKFUQFGAcADcvCgsDAE1VWWyBovb62pk4k1O/f1vbiQT6Sr3E5203djnwcQYpleslQD1t7pdHqIpahusY7YPAl4jwJoZjX+e7DL1Uk3cworQVTGxe3r/gPVoxmwr7BB1Hs3A7Y2pPvTyxR6BivxPwo91rZtPhKQqCpCFnI8y/OyE5TgvE0f/FOtBK3r3gDoZazES3YIAEeyDEQVDtkFGz+r5cG4iUBvSTvOJaxE7WkaHT0XwFJWYtNcVnkvq0BU4ZDtt+39FWhleQAAQ1ah8HHw1vWatHjlymFr4+PueKckAIUevWArNzwSUYlDVlWOZWk21ULwf0v7+5ezErVrmeM8AuivWAkAQEs2HNuHZSCqYMgC+g6WBgDkzrTj/J51qH3BxsbzoeDzeQEAHl96T1SpkE10dsbhqwdbv+4eNi9aOBu8TGyEJUuWrIOFz7ISgCVgyBJVKmRVgoeyLACAX/FuYrOkHOdaQO/3/fIR2D0xN8EXjhNVImQhegjLgsGxQuHrLIOB+aJ6Lnh1QjRQ4GKaqCIhCxzs96II9IL+/v4BTg8Dd7PZ7CKB3OD71QbfD01U/pC1bXsXAO0+P/2sDjQ2/pxTw+QWF74Gn79DVeAdzIlAVOaQtQBeKlb50ZIlS9Zxapgrmc32ArjG31WQxPyOjrmcDURlDFmo7ufzeqzToPVrTgvzeZZ8Hz7/bDYfDPKSMVE5Q1YgPb7exEIu5QsA/CGTySwG5C5fF0HlAM4EojKFbCKR2AH+/n5sQS38jFPCT4sq70KfV6CHs4CoTCGrExM92MJbecwnt2UyGZdTwj/SrnsbAN/2XIA9enp66jgTiMoQslB5i58LIaKXcjr4jqeK3/l4/I1Dq1e/kdOAqBwhC+zp4zo83+E4f+d08OHiqi7wW/j66zwWLxkTlSVkLezq3zMtrlsI5Dkd/CeVSvWpwrePWlTl57JE5QjZABTzfVsF1Ws4FXx8EIhe6+MF5hs4A4hKHLKxjlgMQINPE7Y/5boPcSr4V8Gy/gL/vtSdIUtU6pC1RP17oKncAj4w3tcymcxKBR7z6fB37OjoaOUsICphyHo+DllRuZXTgKDw7TxoDAT4/miiUoYsROb5dPzjDaPT7+I0IA34d7Hl8ZIxUYlDVrXTp/vYR3tX9a7nNKBMJrMIgC9fDCGw4pwBRCUMWUsQ9mfG6gOcArRJQRUP+fQ46GD7iUoYsgp/HmRSEIYsvZw/54Oik60nKlHI2rYdAmSGHwc/YXmPcgrQSweDhUf8OXJlyBKV6rwiImGfjn2V67rPcwrQS4su1cX+HLl0ABDOAKJShGxBdvTpiWUx208vt3HRpat9OPTG+e3z2zgDiEoQshbUn19EF32a7afNTIxeX+7iGyYYskSlCFnP8mnIekiz/fSaiIU/50VAtYXdJyrJTha+PLhExWH76dUUkvHlmlOVj1YkKkXIqk9XsIUgGLK0mcUXMj4dOneyRKUIWb8eXIFAgHcW02t3dCj4cl4ILIYsUSlCViDT/XguTSaTA2w/vWbxZVlr/Bmy3g7sPlEJQtaD1vtw3IPw7/tDaQt0IrjalwMXqWf3iUqxk1Wp8+G4h9h62pyG8YacH8fteWDIEpUiZCG+PLhG2XranNmren05N0S0jt0nKkXIwn+XiRQYZ+tpcxYCefjxowReLiYqTciq+m8FaylDlrZozHcj5uViotLkjQjUdztZUYutpy0I+u+YEN4ISFSikPXhro6Xxuj1JwcAH34+qby6Q1SKkFUVPx5cDWw9bU4ikaiHD1/7Zgk/QiEqybHlyxWsYjpbT5szPj7uy7mhqhPsPlEpQlbgv4NLMIutp80JekGfzg2LO1miUhxZqr78LGZaR0fHNLafXi0Q9Pz5NhrVMXafqBQ7WVi+fPpRQ0MDd7P0GgVVn84LybH7RCUIWYE36MuR5/OdbD+9Nmsk7MthA3xhBlFpQha+DFkFbLafXhM2qlFfHg/iMWSJShGyKuLLg8tiyNLmF1++DFm/LraJuJMt1clUZT7bT69dfMk8P447L8KQJSrFOaVQ8OdOFoLd2X56uZ6enjoFdvHj2JuGm1ZzBhCVIGTrpLDcp2Pftaenh6/3opfkXsx1wZ9PA1vTu6p3PWcAUQlC1quvXw747yUBABoGVw7uwilA/6VWfg8/jluAfnafqEQhm0wmxwC86MuTi6X7cgrQSwcDZH9fLi4ELrtPVKrzysbDrM+fo9f9OQXopbAB/BmyKn3sPlFJQ1ayPj2rMmQJAGDbdgjAG/15HChDlqiUISuKrE/HH090dsY5DchSPex/i06fEU1yBhCVMGQ9C0v8WwHrSE4DAqyjfLzAeJb9JyphyAZEnvFrARRyNKeB74nAe7tPj4B8w8yZ3MkSlTJkNRDw80r2sFgs1syp4F/zbHtvQDp8ur5I9fb28l2yRKUM2WQyuQpQvz7xpcHK6zs5FfyroDjJx8PnpWKiUocsAKj695IxxDuRU8G/x4Ao3uvf4fv4uCcqZ8hC5Cm/FkEhb49Go3M4HfwnHoksgMDH7xb2HuMsICpDyIqonw+2Oqugp3M6+HIn9xE/jz5QKPybc4CoHCHreY/6+1yLMwEIp4R/7DJ3bhuAd/u4BC8s7e9fzplAVIaQTWazzwHq5zdxxBO2fQSnhH9MBOo+DKDRv+tK5aVionKFLIACIIt8Xo/PcEr4Q3d3dz0EZ/u5Bp7Ko5wJROULWQDi65WtKt4WjUb34LQw3+i6De8DMNfPNRDR+zkTiMoYsiJ6n+8LUtAvcloYLwDRL/i8BmNjhcJDnApEZQzZPHAPgIKvKyI4gbtZsyXC0ZMBvMHPNVDFI/39/SOcDURlDFnHcXKAPOH3mliefo1Tw9xdrIp+yfcHvoWFnApEZQ7Zjby7WRYcF+2MHsgymCceiX4CQJff66Cq93A2EFUkZHEXywKxLO9C+PX9oobq6OhoBfTrrARG+HksUYVCNtjYeD8AvpUDslfctk9jHczREAh8HUCb72c29E5+HktUoZBdsmTJOlV+XgMAUP1RPB7fkYWoffNs+00APsFKACpyC6tAVKGQBQAR+RtLAwAyC/n8BaxDbVsABD3F5YAEWQ3AE7mNVSCqYMh6Fhiy/wvaU2ORyNGsQ+3qt+3PAtiTlQAEeDKTybisBFEFQzaTybgCPMny/PfEJJcnEonZrETtiYfDPar4OiuxkYKXiokqHrIbD0blbvZ/dtJ8/jLwLT01Zfc5c5og1tUA6lmNjTwL17EKRNUQsoXAtSzPK1Yd74yH7U+xELVjuGHaL8DvxL5EgOcymQyvUBFVQ8im+9NPAfo0S/SKs9QF86LRg1iI6hez7Y9D8EFW4hXz9xoWgahKQhYAROSPLNEr1Hme/jkSiezMUlSvebb9VlFcxEq8iufx6pTBbNtuDIfDLeFwuAV8kE4VrW233DQ7oEiDn0W+ij7WNDq6YPHKlcOsRXWJRqMRy9OHAezEarxCNuU6NgBlKapfIpFoyOfzUUs1LipxBXayBHNUMAuK2YDOBuS/D1Zp2cKPKgBYC2ADgDUA1kCwShRrFLJCFI6ikAmqZpb09T3P+VHmkAWAeCR6P6D7s1SvilnB39KO8274/a1F1bWSDwUUDwDYldXYzJxV/Ksg+kHXdZ9nNapGIBEOdwGBPT3RPQXYA0AcQGcFdqNjAJYodLGoPCUWngwUCk8t6etbwTaVMmTD0TMh+muWanNnLfw6lXU+wdVf5XV0dExrCARvBXAwq7HFSbsaIh9NOc6NrEVFdqg7eOPeQSK6ANB9FdhDgKYq/7OXQ3E/gAcB74HObPbJhUCe3SxSyHZ1dc3Mj44tBzCT5dpczsqFaTfzGVaicrq7u+tH1w/fCOAoVmObZ+6lTaOj/8ePPEo/Nzes23CwJd7bILIAij0BBGp87qyHyF0K3OoBtzmO47DTUwjZjbtZ+xIIPsZyve6k+3bKdb/COpRfT09P3dDqgT8p9HhWY7stVc86Jd2XfpSlKO5uFeOFI1X0OABHA2g2PESeU+gtlshfljnOv8Ere9sfsolIZE+FLGK5thi0P0q57uc5wcrHtu1GC7hWFMeyGpM2IdCvJ133B+D9BVMJ1gaMF94J8U5TyNsANPi0FA4E14rqNUnX/Q9nxnbcNRy37X9D8RaWbAsxC/ll2s18CoDHapRW9+zuGaPTN9wI6GGsRlHOBPd5IqfyucbbGa6RyL6qchoEJ2HLd/n60TMquLR+YuLK55YvX8OQ3YpYJHKGQC7nvNlaQeX60cLEqXxfZ+lEIpGdgxufwcuH/hfXkELPSrvu1SzF62tvb58+LdhwCkTPBtDNimzVqAA3QHBp0nEWMmRfb8WWSDToRD4DgA9i2OqOFo9IMPDOVCr1IqtR5J1DONytYv0dQITVKNlZ4bqxfP7j/f39AyzGKxd3dSIfU9WzAJnFikwqcJ5UlQtDs1v/tGjRogmG7KtPcJHI+Qr5DqfKNnGh3vGpbJafZRdJLBI5XiC/A+90L8v8tSw5bVkmc6/fCxGNRrssz/sSgPfzncRF24n0QfSnwcbG3yxZsmQdQ3aTcDjcUieSBWQGZ8k2GYPKp1LZzKUsxZQEErb9FVV8FXz6WHlPhYKfNzY1fba3t3fcb4OfHw7HCpb1eaiewXAtmTUi+AWCwQuTyeRa34csAMRt+6dQnM25sT1nKr3Kqqs7y9RJVEobH+0pV/GpYxWdwY95lnVKJpNZ4ptwFevbAE4CnwFcLi+o4vuehV87jjPq65Dd9DzjpQDqOC+2J2iREfVOTWWzD7Aa2yYWiZwskF/C8O8Z1sj8HRaVT6eymd8YO99isWYpFL4EyNnw71dwKs0Vlc8ls5nrYMjXISd16S0WiV4m0A9zPkziXCW4NNjQcJ7pn0NMRSQS2bkO1s/5gImqdFtB8CHHcV4waExWPBw9BaI/BDCHLa6CYFL8GxbOSTrOw74M2U1vOlkKoJ7TYXKrNVXr/6Wz6VtYilcIJCKRjynku9y9VrUXIPhQynFuq/WBRKPRvQOe/kY3PpifqosH6OUTqp/PZrODvgpZAIiH7V9B8HHOgymV/0541rmpvtTTfq9EwrYXQHERT3Y1QyG4dGR8/P9WrFixodb++Pb29unT6+u/qorzUPPPEjbeSqh8LpXNXOGrkE3MTXRoMJ8EP7uYqgkBLrMK+e8s7e9f7rfBxzpiu4nlfQuCd3Eq1GTWPu1Z1gcymczimplzkcgxmz7rD7N/NbWsuyng5c+qtfPklL4OwTuNi2pUFJfkLfzAsM+7Nr9IC4d3VVhfheAE8A7OWjcm0POTrvsTVPHNKrvPmdM0PG3ahVCcyZbVrBwEH085zjW+CNmN35u1lgFoY++LZhzQa+AFf2jiZeRYOHaAWN7ZULwHvExnGLkzUJg4vRp3GvFwuAdiXQ2gi30yYarhugJwpuM4OaNDFgAStv1/qriQXS86BfROiFwmweCNyWRyrGaDNRZrhuedLIqPAngzW2u0NQo9M+26N1TJ32PFwvZnRfBN8EZN06RF8IFqvwN5yiHb3d1dP7pu+GkI5rHnJcvb1RD5I1SvSbnuQ6iB7491d3fXj6xf/zYBTgLkeADT2Uc/rRDl8mkbpp/bu6p3faX+Btu2Q5seZHIMO2KsCah8JpXN/NzYkAWAuG0fB8Vf2e+yyIriBgTk1rzqvdX0dJRYLNZs5fVtED0awLsUaGW7fB21SUvklGWO80jZ52JHbDcJFG4AJME++GFRp1eNTkx8rBrvdC/ac2DjkegdfLdn2W0AsFAE9xcKcr8G9NFyhu6mJ+TsB2A/iBwM1X35jFd61ekvD1jfTLmZ76JML4WP2/b7VHGZAE2sv38I8KSl3nuWZrNpI0M2FovNl4L3JIBGtrtixhV4RqBPAdZTongOKKSnj405i1euHJ7sDw2Hwy31IlEPiAqsXSG6GxS7A5gH3hlM23aqeSAI79Qlrpsp5S+JRyLfBOTLrLdvrRLou5IbP1YzK2QBIBa2vyqCb7DP1Tn5AKyGYDUUawQyrKLDACAeNqi16TNTxQ4qaBJFG4BZAHYCsAPLR0WwVlT+XzKbubLYP7inp6cut2bNZVCcxjL73ohCT0277vXGheymF7s/Cd4mT0SvR3HNBLxPFOtReYlEYgedmLgekMNZXNrEA/RzKdf9caX/kKJ+T3FgYKDQ1hJ6GsDp4Hs/iWjzS/s3BiAnt7WEHh/I5Zyp/KhIJLKz5eldgOzLwtIrN5ByRGtLaPpgLneHMSELAAO5nNMaap4LSA/7TESvcwpsBnBaW0to+s5z5967atWq7b4pKjE30WFZejeAXVlQeh37t4Radhwcyt1awbQvvt3nzGkabmx8grfPE9HW6dNaCJyc7k8/ta3/RiwWC0uhcCfPMbSNQffHDtc5fSGQr/mdLACsHB6emNXa+qQqLxsT0VZPgTuKpae3tIQGBnO5RVv7X88Ph2OqWAhIjLWjbbTb2lBo3uBQ7kaU+WE+JXt27EAu57aEWpoF4GclRLQ1dQK8oy3U3NMya9adg4ODw6+3g1UP90L4Bh3a/qBtC4U6BoZyfzMiZAGguSV0rwW8B8Bs9peItmFXOx+entYSan5mcGho2cv/SSKRmI184W4IuIOlyXpza6i5dXBoqGyf0ZY0ZHO5XL51h7Z7IfpBAHXsLxFtgxkCObkl1DK7aeaMu9euXZvf+DWdwu0AdmN5aIoLube2hlrqB4dyd9V8yALA4NrBF1tCzS8IhC/lJqJtPhMKsHfQst7d1hL6jxa8ywDsx7JQkRzY0hJ6cTCXe6zkE7lcI4rb9h/4NBYiIqoSBREcn3Scm0r5S8r23NmmkZFPAniGfSUioioQUMUfo9Ho3kbsZAEgEQ53q1gPAZjJ/hIRURVYkYfu5bru8zW9kwWAZDbbC+hJKNMrr4iIiLaiPQi5vru7u74k2+Vyj2ZwaCjZFmrOA8J3zxJtjuBngMYBmc5iEJVFZ358PFSKr/YEKjGagaGh+9tCoXng7fhEr6LfTrnu50KtrVeIyhsAzGdNiMqyun1ra0vIHczlnijumrlCOjo6pjUEg/dA8RY2lwgA8OeU65yM/z32TWK2fY4ovgegkeUhKrkNBUGP4zjPFesHWpUaSX9//0hgvP5oAEvYV+IiGo+OTIx/GK98rqqmHeciUa9HgSdYJKKSmx5Q/LGYn89alRzN0hVLV4tXOAbAi+wt+VhKgsFjVqxYsWFz/zCZzT7jCfYVxUUo88PNiXzozaPr13+7eOvnKhAPh3sgshCQGewv+cyLGrAOTKfTS7flfxwLxw4X8X4PYC5LR1Qynqp3RDqbvbOmd7IvLeOz2UUi8l4A4+wt+cgaeIHDtjVgASCdTd8RmKh/E4C/snxEJWOJWL/t6uqa8jMdAtUyooFcLtUaau4F5D3V9HcRlcgGQI9OZTOLtvdfXLNuzYbBodw1rc0tGYi+DZB6lpOo6Jq9fH7GVL/WU3UvVI9FIscL8GdAguwxGWpcBO9MOs4/p/qDuiKRaB7WlYDuz7ISFZ0H9Q5KZbMPTHpLXG0jSrvu9aLWGQA89pcMNArBu4oRsACwxHUzoVmthwD6bfBJakTFZkGs30zlbuOqvCw7MJRb3BJq7hfIsdW42yaapA2q1jvTbuZfxfyhzz//vDc4NHR3S3PrXSJ6KIAQS01UNLMLExMjA7nc/ZP5l6s6wOK2/T4orgBf+E41ToFhgb4z5bolfVF0IpHYQfP5H0FxJqtOVLQjeH3Q87qW9PWtMGIn+1+DudzTLc2tj4vouxm0VMsHqCVybMp17y71bxoYGBgbzOVuaWtu6RXB4QCmsf5EUyX1HqxZg0O5G43ayf5XLBw+TERu5PdoqQathHrHpLLZRWU/bmKxsBS8KwAczDYY5wVVLBULK0WxXqHDorLeA3IAGkW0CSLNUMxUwQxRxAAkADSwdJPmeZbsm8lk/m1cyAJAwrb3UdW/ATKLvaYa2cEmxfOOTPb1pSr4R1gx2/6cKL4BgF/1qcFJBGgvRO4STx4rBLBERJak0+mhSfysQKKz0/Ysq0tgdQu8gxRyEIAdWOZtbsf9Kdc90MiQBYB4RzwBq/APCOax2VTVBI8iEHhHKpWqikeGxsPhHhHrKgV2YXOq3hpAb4DInQgE7i7lHFoABPttey8Ah6jiHQD2BW823dqxfVTKcW4zMmQBoKOjo7UhELwBvARG1bvavSPY2PieJUuWrKuyY2daQzD4fSg+xRNp1RkX6L+g1hUNM6ff1NvbW5Gn38VisTDy3vtF9COAJNiWzcbmopSbeQu28TniNXmg2bbdGFD8DsD72HCqslXuzzod5zMLgXy1/omJcPRYFb0MwI5sWMW9AMiFY4WJy/v7+weqaSYnbPsgVfksoEdzUfaq4njyrmRf5mZjQ/a/f3s8Ev0yoF9HFT5Ug3xnTAWfSDvO72pkobpTQPFbAEexdRWRBeRHm8J1pJr/0Hm2/aaC6pdk4yNvea7duIV9Iu06e27LbrbmVyexSORogVwNfgGfKud5Ebwn6TgP1+BC9SxAfwh+1ac8BQcGPMGXW9raLlu0aNFELf3t8yKRN3iQCwEcyU4CIjhyW57cZsQlgHhHPIFA/q+AvJGtpzJ7OOgVjp/Ml9SrRSIc3tUT62oB3sR2lnDzo/iD1Ac/l0wmV9X4xuZ4UfkJBJ0+b+kdKdd929b+V0a87WZw7eBAZ2PjFRPBuiiA3Xg8U1lOmtAfh2bNOuWp554bquWBDAwNrWqbPev38AqNgOwDfv5WbL2q1vHpbObnAwMDG2r+fDs09Gx7/dxL83Xj9YC8Fb69hCyxWS2hmwZyuReM38m+Ylcbjp4G8S7mgyuohNYo9PS06/7duOMnEjkUwB8A6WCbi7IWu7JpdPQTi1euHDZxdAnbPlgVfwTQ7tPLE1elXfdUX4UsAESj0S7L0z8BeDMPciru4hX3yUTw5OTyZL+pQ+zo6GitDwR+LZD3suGTPv2uV+Djade92vSRRqPROQHVK1XxNh82esKzpDOTyax8vf+BkS9Hz+Vya9pmz/q9el6TALz8RcUwLtCvdrrumf9ZN5AzeaBr164dGRwauq61JeQCOAx8FN92rsPwnGdZh2Yc524/jDeXyw0P5HJXt7WEgI3PL/DT+TYgHlYNDuUe8NVO9uVi4dgBIt7lAObz8KdJnjWfEtXTk677uN+Gbtu2HVC9EpADOBG2aa48KsHgMbV+c9Nkbfq47nJAgj4adirlOvPwOl/nCZg++sGhwWzTzBmX1wWsIID9uKulbad5EflRY1PT+5csW7bcjxXI5XK5PYaGrhxqDm0QwcF+OGdMIWHvDDY2HL1s2bJBv1ZgcCj3ZFtz6xMQHAf/vDmtta0ldPdALuf6cif7ctHO6IGW5f2WjwujbQjYxwQ404+719eTiET2VchVAGKsxqunC65pnNl0WqUeh1id51q9BT55+cCWboDy3a6uo6NjWmMw+HlVfB5AIw8HepUhVXwtnXV+AaDAcrxSV1fXzPzY2AV8KfwrTqN/73Qzxy2s4kdpVmRRZtsLVHGrH86zCgzPGB2Zs7m7yH136Wft2rX5gVxu4ezmHf4EQRwQflZLm1aceovk645J9advxzY+/Ntv1qxZMz6Yy93SEmp+WiCHAZju7w0sHpkxOnLsI8PDY5wdrzSQyzltLaGnAZwAw79LK0B9PlD/+MBQ7hnfh+xLJ4uhocGBoaE/te3Q8rgK9hGghYeFbz0O6AdSrvvdgXUDa1mOrRscGnq2bcasP8Ly3gQg6tMy9I4X8ocve/55zpnXD9olbaHm1YAcY/yCS9QaHBq6bjMBTIlEogH5/CdV8SUAbayIb7YhfYB8OZXNXAXAY0EmxYpHop8G9Nvw11d9Bj1L3pzJZFxOga2L2/ZFUJxj+DA3NG5omtO7qnf9Kw4Qth9IJpNjScf5SUGQEMEPAIywKkYbUsEXx7x8VyqbuYIBOyVeys1cYAn2AfCMX5ZnIvgQA3bbNTY1fQ6CRw0f5vSxaRte81Yr3o7/MrlcbnQgl7ujbcasP8AqzARkN9bIKOtUcWEwX//+ZF/qX2vXruWNKkUykMu90DRzxu+CluwISI/RCQtclHKdn7Hr227VqlWF2TvscKeKnA6Db4QSwfqBodxN3MlubWe7PNmfct0zNWDNU8gvAfCmhtq2FpDv1OUnoumsc/7SFUtXsyTF19/fPwKRO00eoyj+PW1G0xfY7e23NJtNK/Qjhi/A3o5XfQzLz2S3wfyOjrmFYPCzm762wPdu1soJERhQ6MVjhcJF/f39A6xI6cVt+9cGf71nAl5gz1Rf6ml2ekpz5FooTjB1fJbgzcsc5wnuZLdnBdbfvzzlOOdqwNpZFeduvGGGqng9mVTFudNHR8Ip1/0qA7acpddDDR7cRQzYqcurngNgyNTxFV71UnvuZCehp6enbmjVwHEqOAfQ/VmRqtm7PiCKnyazmRvAB0mUf4cSj3ciX8gaGrD9jRtmvOHVd47SJOdKJPIZQC4w8iwkuD3pOEcwZItknm2/1VP9CCAnAZjJipTdi4BeURC53HGc51iOCp44bft0KH5v5IlT5YRkNvMXdrk4FgDBvkjkcUDeaODw1qVcp+W/C32GbJHYtt0Y9ORYFe9MbHwSDmtbOh6gd4lav2mYOf0mPi+2akL2D1CcZuDQHk+5Tg/4FLBi72bfDcgNRi7KoHv+97nnDIISiMVi85H33i+CEwHsyooUhQJ4WATXWfn8tUv7+5ezJFV20gzbWQg6zZt4enzadW9gh4ufRfFIZLGZu1n5VMrN/IIhWwaJcLgblnWCbrybjoG7nec3Bf4t0Os0ELgunU5nWZIqneeJxGydyL9o4NB6U66zO/jAktJsSGz7/aL4o4FD+3PKdd7PkC2zaDTaFVA9GsBRqjgI/noM3bZaC+AOgdxqFSZu5Y61Rk6W4djhIt7tBu5iT0m77tXscMkE4hH7GQCmvahlacp1uhiyFbT7nDlNGxqmHwrRoxQ4GMAb/NkPzYvKf1T0HgC3hmbNun/RokUTnCG1xdC7RVd2uk7HQr7CrrRzJxz9FERNe4JWYWRifIcVK1ZsCLLFlbHpvYN/2/QfzG+fP8urH99fVQ5U6AEC7QHExP5sAPBvEdxb8OT+6SNND73iaxEuHwdbo/YwbxeLPzJgS0/qA3/WifyPAdSZtENvDDR2A3iUIVst1xY2Purvpk3/2fRd3FXzFYEeWNoDlR6FvkmAphoa1jpAFkN0ETzpVcgzVr31aDKZ5GMqjTtTyptMu/c2ILiCjS29ZDK5Kmbbt4niWJPGZVmF3RmyVWzTJdPeTf+5AgBs2w4FFIM1MoQVKdfpAL/2YLzu7u760fXDXWYtGvDUyx+NRyUOJE+uUFGjQha68a5pPlaxhjQ0NNTQU4zUY8D6w4YNG3YBUG/U+dEDb3Yqp/rA37DxpkeDFmqaYMgS0ZQF8rCN21mJ/oudLZ9kMjkm0HuNWqhBogxZIipCInlGPYBCgIGk6z7Jxpbd3WaFLGwAwpAloimeTaTDrAHJ3eDDJ8pfdZG7DFusNcXj8dkMWSKaEk/UqJBVYCG7Wn7LHGcxoKtNGpNVKEQZskQ0xRW7YTtZLTzErlZovQY8bNZUkjkMWSKaqrBJ58XGkZlL2NIKpSyspUaNJ6BtDFkimqp2gzJ2OV/MXjmieM6s8cgshiwRTVp3d3c9gEZzRmRxF1vJ6gdgVP1FuJMloikYGRmZZtJ4FGDIVlDesPqrMmSJaAoKhcJ0o3Ye8Fawq5WTyWReBFAwZz7JdIYsEU1ag6pRO1morGNXK9sBAAZ9Ji4NDFkimvxOVuuM2smqBYZs5btgUA88hiwRTWXbYdZO1vKEdxZXfvdnTMh6KvUMWSKatEDQrJBVS7mTrfjCzZy38YiAO1kimsIJUdUybEDCrlY8mEyaU8qQJaKphOy4USd4tWayq5XuAWaac3xgnCFLRFM5i4yZdYb3GLKVnlIwJ2RhYYwhS0STPyF6QaN2sp7KDHa14nYwaRHKkCWiyZ9D6gy7XCyyA7ta2RYAaDJnIyu8XExEk1c3MWHWV14MezdurUnMTcwFzLnxSQXrGbJENGleY6NRL9mGootdreB8CoybVX+V1QxZIpq0ZDI5BqhJu1mGbAVZIkbVX+CtYcgS0VRPJSbtZneybTvEnlZq42dWyKpa3MkS0ZRDdo1JowkCu7CnFeKZdSVBIQMMWSKaqhfM2n3o/mxp+S0AghDsY9TyE/nnGbJENMXVOhyzRmQdwq6W33Lb7gHQbNKYxjwvw5Aloimu1k0LWT2op6enjp0tc9VVDzNsSOv6+/t5uZiIprqT9TKGDWnm0OrVe7Gz5Z5HMOoKggBpAGDIEtGUWEDGuEGJHMnOlk9XV9dMQIz6LFx14xUehiwRTU1dXXLjRsSoE+QHNm5GqBzyY2PvAWDUu4khupQhS0RTlkwm15p38xPi8XB4P3a3XKsanGbakEStxQxZIirSCQWLzRuVdSo7W3rzOzrmAjjYtHEVAmDIElHRUvYp88aEE23bbmRzSysfDJ4KIGDYsCYCgcAShiwRFSljLQN3smixgA+xu6XT3d1dL4pPGLhAe27jc70ZskRUBBYKi8xcPOBz/M5s6YwOD38IQNi4gXn4z/+ODSKiKVqazaYBLDdwaHZuzZqT2eHi6+npqVPF541cnIncz5AloqJS6ENmDky/DPM+M6y43Jo1HxAgamTIwnuAIUtExV6+P2DowBLxcPQMNrh4Ojo6pqniq4YOb80y132OIUtExd3wiTxo7gJCvze/ff4sdrk4GgJ1XzZ1F6uCB/Gyh7MwZImoKDKZzCIBBgwdXlu+buL77PLUxTpi8wD9jLED9HDny/9fhiwRFUtB5ZUnGKM2s9AzErZ9MNs8xToGvJ8BaDB2gEHrVoYsEZWEAreanA+qelkikdiBnZ7kLta2PwHgSIPnfyadTi9lyBJRSXgbQ1bNHaEkdDz/G3Z6EgHbEdtNFD82fJ/+mkUmQ5aIisZxnBcAPG72eRQnJSLRj7Db266rq2umWN71MO1NO6/ZyjJkiajkGaTXmz5Ghf4sGo3uzm5v25TIj479BoJ5ho9zyKq3bmfIElFJWap/htGXjAEA0yxPb41GoxF2fMvikei3AbzP+IEqbvzv84oZskRUMhsfsSj/8cFQ262C3h6Px3dk1zdv441Oer4/9ut6zWYXnZwGRFQC1/jjxIp5KBRu6Z7dPYMtf9UO1rZPEsUvfDLcwcYZM+5kyBJRWWhArgHg+WOweMvo9OGburq6ZrLzm3awkcjxUFzhm4xRXNvb2zvOkCWiskin01kA//LRkA/Nj4090NXZ2e77gLXtDwnwZwD1vllUqnXZ6/0zhiwRlWhxr5f6bMC7TViB+zc+NtCnARu2Py+K3wIS9NGwF6f70o8xZImorFpmzfobgBf8NGYBohLw7o2FYwf4adwdHR3TEhH7tyLw3fOdBbrFh5MwZImoJBYtWjQhit/7cOg7iRTuTtj2F/1wjrVte5eGQPBhBT7kw15vyItczZAlooqwvPwvAEz4b+QSVMV345Hov2zb3snUUSbC0VMCqo8C8OWDORTye8dxcgxZIqqIpf39ywVyrX8roIcFFP+J2fb7TRpVV2dne9y2r1HRKwHx69eXPBTkoq0uNHkaIKJSKlj4Icx/AtSW7CyKP8Yj9sJEONxdywNZAARjYfucvBV4FooT/TyvBfLXdH96GUOWiCoqk8ksBuQuVgIHq1j/SYTt73V0dLTW2h+fiEaP6IvYi0RwEQC+7g/eNr1RiCFLRKU/HSl+wCoAAOpV8IWGQNCJ2/YPotHonGrfsCXC0WNjEfth9fSf8Olnr5txT9J1H9q2HS/VBNu2dwp6cvjGz0BqQk6hpyAQuD+dTg+xgxS37XuhOJCVeIURCC4tAL9yHOe5avmjOjo6ptUHAu+xIJ9VYA+26VW7U0sOXpbJ3MuQrWHz2+fPyteNHQFYhwr0QADza3cTg8UiuFcKcuf08Q13Ll65cpgd9p+EbR+sioWsxOucjBX/VpErAxN1f166YunqiuxabfsgKE5T4L3gJeHNF0lwe9Jxjtjm/z1LVkUnoUjkzQrrHYAeDeAtAAIGDnNMBPcCuBWFws3Jvr4UO++j3Wwkcjsgh7MSWzQO4E6B3gHg7qTrPokSPQd6l7lz28aDwQWbFvPHAOCr+7YesvsmHedhhmwNBauncoKIngBIwodTdpGqXheEd93GV6SR4bvZfVTxIM8922WNQBZ6oo9Bdaml+lzDzJnJ13sg/esucOLxHaVQeIN6Ml+gu6rgYGy8FMx7c7Y5MPWWpOseu33/DpWdbds7BTycBsEZALpYkZc8DJXfSn3gmmQyuZblMHU3a/8RwPtZianQPAAHkNWArofIoCjWe5ANIloHxQ4qaBLFDAVaBLABhFi3KZkoCHbf3s/OGbLlY8UikaNE5EyoHu2zB2hv3+kDGBbFdWLh19tzWYZqJGTj8U7kC88BmM5qUA2dl36Sdp1Pb//ul0qqq6trZn5k/P0QPRfAG1iR7fYfqPy6YOkVjuOMshxmSNj211XxNVaCasSqgmD+1h6hyJAto0gksnMA1nkC/Qh4l14xPA/FRcFpDb9asmTJOpajtrW3t0+fVlf/LIAwq0FVT/DxlOP8enL/KhVVLBYLi+d9BoqPApjGihTdWhH8ajSf/2F/f/8Ay1HDx0okcrRA/s5KUDVT4JG06+yHSd7hHWAJiyMajc5pbW75gaj+HsB+AOpYlZJoAHBA0LI+0RpqCXY2NixaOTw8wbLUnsGhoWWtodAuAN7IalCVGrfUO3pgaOjFyW+CaUp2nzOnaX3DtP8ngvPBy8KVWGeuVpULrPrgRclkcoz1qC3z2+fPKtSNPwNgNqtB1UYE30g6zten8jO4k508KxaJfGgiWPc3Ebxr0w6Lyn8YTBfB4fC8E9paQssGcjk+3KKGrFm3ZkNrc8tKCN7NalCV6ZW64KkDAwOFKZ2hWMftl4hE9lTIz7HxsjBVU+RCb7FUz+GDLWpL3Lav8fur06iqTKhn7Z/uSz869XMSbXu4JhI7eBOF7wn04+BTUqrZiEC/3Txr1o8WLVrEz2trwC5z57ZNBOsWA2hnNagKluufS7mZHxVn4U/bttKORI4C5BLwKwe1ZLF61ofTfenHWIoaWMRufIHAXVzAUoXdk3KdQ1Gk50XzM9mtsG071NrcfKlAfgCgmRWpKXNEvDNaQ62NsUT8vueff95jSarXQC7ntoaaZwLCj2GoUtYECvm3rVm7tmiPdeVOdksr60hkX4VcBSDGatQ6fcyzrFMymcwS1qJ6LQCCfRH7DgAHsxpUZh4Ex6Qc57Zi/lBeltmMnp6eungk+h2F3MeANYXsJZ4uioejH2UtqtdCIF8QvA/AClaDynqGgH6l2AHLnexmxOPxHZEv/AnAoayGsf7UNDryUb48vnpteiXePQDqWQ0qQ8LenHKc4wBosX80d7KvPLAXIF9YzIA13vuHGxsfjkajfM1glUo6zsMqOJeVoNLnK55TyzqtFAEL8Man/+1gI5HPALgCED61yR+H1o6iOK21JfTcYC73HOtRfQZzucdaQqFmAfZlNahEXgxCD0k6zgul+gW+D9kFQNCKRH8uwJcA4c7eXxoAnNTWEpKBXG4hy1GFQTuUu701FNoNfE0kFd+IQI9e5rpPlXin7F/hcLilTqy/gJeHua8Fftcwo+njvb2946xGdeno6JjWEAjeCe5oqXg8hZ6Qdt0bynBu8adoNBqxPP0nAH4uR/91V7Cx4Ti+r7b6JBKJ2TqRv4c7WioCVcFZacf5VZkW8P4zLxJ5g6fyTwg6Od/oVYfEIgSto1Op1IusRXWZ39ExtxAI3gt+rY6mlLD4Qjrr/KBcv893n0FGo9G9PeBeBiy9ziHYg3zhoURnZ5y1qC5L+/uXa8A6BIDLatAkj+9vlTNgfbeTnReNHlTw9B8CNHGy0VZkA+odwrf5VOVCucvydCGAnVgN2uZ4hVyYdjOfKffv9c1ONhaOHeB5egsDlrZRuABrYbwjnmApqksmk1kShO4HgAsg2rbdpOAHlQhY3+xkE7Z9sKf4OwOWJrH87RMtHJLs6+PL4KtvRxuxPO8OQLgQotc/hAVfTDvO9ysW8MbvYDtjbxHLuxPATE43miRH8sEDk8uT/SxFdYlEIjsHIbcD6GY16DVLZMjZKTfzi4ruoo0O2FhsvhS8+wDsyPlGUzxcl6EucADvOq4+m77vfgOABawGbTKm0DPSrvvHSv8hxn4mG4/HO6Xg3c6ApSItR+ehULilq6uLV0SqTDabHWyc0fR2hV7FapAAA5YlR1RDwAKGPlYxkUjsgHz+LkDmccpREc318oU37zGUu8YB+AL4KrJq1arC4NDQjW0tIXBH62tpz5JDU5nMf6rlDzIuZBcAwbU77HATIHwEG5VkDbc21NwyODR0K0tRfQZyuYUtoeZlAjkKQB0r4h+q+Fd9YeLIZDbbV01/l3Eha0WiPwfwPk45Kh15a2uoZc3gUO7frEX1GRwaeqq5JXRDADgcwCxWxPx8FcEPU67z4dXr1lXdO6KNuvEpEYl8UiEXc85RGRRUvbens9k7WYrqZNt2KKByFaDHsBrGGhLB6UnHualql+QGBey+ClkIoJ7zjspkFYKBnlQq1cdSVC0rHol+GtDv8Nxg2PYVeMTyCh+o9u+wG3F3cTQanaOQ63gQUZnNlonCXxKJRANLUbW8lJu5AF6gB8BilsOMnkLws5ZZbQfWwkNiTPhMNtDWHLoZwO6ce1R2grnqaevgUO4fLEb1Glw7+OK0pulX1FmBNgh64PN3adcwR9V6Z9rN/Ob555+viTv8az5k45HolwCcwblHlctZvKWtJfTEQC63hNWoXuvWrZsYHMr9PbRDy10i2A+8KaqWKASXBhsb3p1MJ5M1dn6oXbHO2F5ieQ+Ct+pT5c8Bq4Oet8eSvr4VrEX16+jomNYYDH5eFefz/FH1x9bTIvLRpOM8XIt/fc1+JtvV1TVTLO/PPECoStars/KW9QfwMmRN6O/vH0k6ztcFug+Ah1mRaty6YhjQLzfOmNFTqwEL1PDl4lDTzJ9CcASnIlVR0MZaWkIrB3O5x1iL2jAwNPT84FDut23NLb0Q7A0gxKpUQb4K/qKWHJd2nL+tWrWqUNNnhVr8oxO2vUAVd3HXQFVonQasN6bT6SxLUVt2nzOnabix8QuAfAbANFakIrvXRwKCc5Y5ziPGLL1r7Q9ub2+fPq2u7km+Q5Kq+LC6M+Vm3rbxnEE1t4hPJGYjn/+MKs4B0MiKlEWvqHwjmc38xbTjpuYuF+/YOut7AN7BOUlVLNbW3JIaGMrxe5k1aGBgYMNALndHS1vrlQJtwsavBwZYmZJ4VlTOSmWdsweGcr1GLrlraoUZDu+qYj0B3uxE1e8FDVi7pNPpIZaittm2bQeAc6H6YUBmsCJTp8AjlsoFyWzmBhj+RquaWp21hFr+DICXiakWzBDotMFc7jaWorblcrncYC53W9vs2RdrwVspom8EZAdWZrt5Av27auCsdDZz/sBQ7hn44COVmtnJJsLRE1X0Gs5TqqH1et6zrJ5MJsPLxgbp7u6uHx0efjdUPwLIoTDk8bQl9III/qD5wGWp/lTSb4OviZBNJBINOpF/DoDN+TrF0z4wLNBBQIYBWQ8gJ6KeKuoAmQl4zYA0AWgBb/qY+gEmuD3pOPyqmaHmh8OxPKyPiOB0AO2syEsKAP6l0MtaZs3626JFiyZ8ew6oiZCNRD6tkB9z3m5fmFqCB1VlMRRLxdKlBZFnM5nMym2dG9FoNBwAutTDfAXeIMAegO4Nfia+XTyVIzLZzO2shNGshG0fpB5OguB4ALN9OdUV91ui12gw+JdUKvUip0UNhOzGd0IiCaCN7dqiCQAPbvz+sHXXtJnT/t3b2zte7F/SPbt7xmjT8AFQPRSwDgV0T/D7ylvzeMp19oLhN3jQSwLRcPTQgOi7PeBIAaIGj3UUinsA/COohb/wsaI1GLKJsP09FXyBrXrdFi6C6hVSH/xTMplcVe7fvuly2akiOBVAnP14nSsLgpPTjvMnVsJ/otFol6geJR6OhOj+tX6HsgDPKfQOBW4dnZhYuGLFig3sco2G7C5z57ZNBIMOb5t/zSl7vcL6jaWF3yaz2Wr5bpnEw+H9AOujEJwMXlJ+tWdTrvNG7mb9bQEQ7AuH9wCs/WFhfyj2BzC3iv/kMQD/AfQBEbkfweCDlVjMM2RLJB6JfAuQL7NNLxkUwc9H8/mf9vf3D1TrH2nbth1UfE6BD4E3T/3vYFM5KZnNXMtK0MvNb58/Kx8c3QOWtZul2E0Fu0ERQ3k/IhsHNCvAc57KU2LhSfG8pzuy2SULgTy7ZGDIbvos1gHQzDZhnQi+F2ho+MWSJUvW1cofHYlEdg6KfAGqnwQkyDZiccp13gQ+bpG2QVdX18zx8fFoIA/bE42K6CyBtKlgFhSzFGgR4L/f150OoOFVP2IIG6+cTAAYBGQNVFeryBoL3hpVq98KwPEsK5NKpZaDV1n8FbLxSORLgHzb9x1SXBPUwqdr+YaCWEdsNwl6F0NxIHez8s5kNvM3nnqIGLIV09PTU5dbvSaD6v6sotTpmoTIp1KOY8oTgyQejp4K0R8B2NHHx9zdKdc5lKceIn+oyieVDK0aeJ/PA/bKkYmJPQwKWADQVDZzRWCivhvArT4+5g6JRqN78NRDxJCt3NnY0k/5tB/rFPqBlOueZupt8UtXLF2dcp1jVHEuNn5W5DsBT8/mqYfIH6rucnHCtvdRxUM+bMSTXsE6Id2fXuaXMUc7owdalv4Z/nsc3ehYIT+3mu8QJyJDd7Kq+mEf9mEh6oIH+SlgASDTl7nPs2Q/AZ7zWb8bG6zgKTz9EDFky2r3OXOaADnRZz24sSA4KplMrvXjBMxkMu5oIb8/gAd9duR9hKcfIoZsWQ1Pm3YC/ve9L+MJ8KuU67zXcZxRP0/C/v7+gcYNTW+H4p++GbRit1hn7C08BRExZMt54jndP6XXy5KucxY2vhLK93pX9a4vWDgOwEL/HH16OjtPxJAtC9u2dwJ88rACwc2drvsJ8Mk/r+A4zqjUBd8F4D/+mAb6XgABdp6IIVtyAQ8n+uSEc08BOGkhnwe6Wclkcq3UBY8EsNQHw50Tj0QOYteJGLJlWNb74oanpRqw3uX3z2C3IWhXacF6BzY+e9VsKiex40QM2ZKKRCI7A7qf4bUe9Sw5MZ1OD3HabV26P71MVMy/A1dwHKr0oTBEZEjI1gFHowZeID/FHcs5mUzmSU657djRZjN/UcjFhg9zTqwz1sNuEzFkS5c/kKMN361cm8pmfsPpNokJWhf4DCCLjB5jwDuGnSZiyJZEd3d3PYDDDa7xC2pZZ3KqTXI3m0yOiRZOAzBu6hhVlSFLxJAtjbHh4X1h8AMoFHoeP4edYtBms8+I4CfmjlB6EonEbHaaiCFbdJ6HBebuUHBv2nX/yGk2dRvGx78JwDE1Zb2JiQPZZSKGbPHPLoKDDa3teED04+ADJ4pixYoVGxT6GWP3siIHs8tEDNmi2vR57D5G7mIhly5z3Wc5xYon7bo3QHCfkSGrYMgSMWSLa3T9+r0ATDOwrhNq4UecXiUII+A7Zi7KsJtt2yF2mIghW8Qzi+xlaBBclclkXE6v4ks6zj8heNTEYzGguic7TMSQLeZvN/FL+IWCJT/g1OJudhIHBB9KQcSQLeZO1siV+82ZTGYJp1ZJd7M3AzCvxqoMWSKGbHG0t7dPB+QNxu2yBH/gtCp9HAn0CgPHxcvFRAzZ4pheV9cF815tt6ahqelWTqvS8wKBqwB4Zq3QELdtu5HdJWLITv0kKbKLgRusP/b29o5zWpVeOp3OArjXtOMxUAgk2F0ihmwxfnGXcbsry7qKU6qMSxrolaaNScTbhZ0lYshO/QTpwbSTyYuZTOZRTqkyziHL+jsMe6KWChiyRAzZovzmmGHbqrvBRyiWVSaTWQnAqKdqCTTKzhIxZIsRSh2GVfJuTqeKTKS7TBqNZ9pxQcSQLb+enp46ADsadarPW3dxOlVirWbW4kYEnewqEUN2SgYHB3eGWV/feSHdn17G6VR+wYkG0+4w5k6WiCE7NQHP29mwOvJtOxWydMXS1QBeNGhIM7tnd89gZ4kYspNWUG0zqYgCPMepVEm61KTRjMwcaWVPiRiyU9FiUhE9BZ9VXMmIhWVU/VW1hV0lYshOYednGXUSEYshW9H6G/aygABDloghO8W9X7NRRVTlu2MrGbIKx6ydOULsKhFDdiq/dppRJ/lCYS2nUgVDydJ1hoXsNHaViCE7la1HnUlF9Bob13EqVTKV1KhFjgD1bCoRQ3byJxHPqJOIJpPJYU6lCjagEDBrkeMJQ5aIITuVc4iYtJMdAVDgVKpgJgU9o0JWxKtjV4kYslM6jxhUwwlOo8qqz+eN6oHCsthVIobs5H+pqkkvNp9h2KKh5owHgzONGpBinF0lYshO/hxiGXUSCbS3t/Nu0EpO4oJlVshaOsauEjFkp5CyRu1kMW3aND5rtpIkv4NhI2LIEjFkp5KxYtRnaDI+PpNTqYL1t8zayaphi1Aihmy5T4qiRn3lRUV24lSqIE+MejexbLxjnYgYspMOpQGjQtay5nMqVXKRgy6jxuMFVrOrRAzZyf9ST1YbVsQuTqWK7vyMqn+dVWDIEjFkp7Lz8NYYtfNQhmyFO7CLSaMp1NWtYU+JGLKTPyUGzLocJsAunEqV0d3dXQ9oxKAhTSSTST4Lm4ghO3n5fH6VUfsoYJ5t2yFOp/IbW7++B5CgQUNatXFKERFDdpKy2ewggCGD6hgIAgdzOlVkgXOoYUNy2FUihuyUCYx70fYhnE4VmUlGhaxAMuwpEUO2GKFk2snkUE6n8rJtuxHAvmYt1jyGLBFDtggrdjXsspjijZFIZGdOqTJOXs86AIBRz40WXi4mYsgWJZNEUobVUupE3scpVdaVmnn1Nu+4IGLIVuZcok+ZVkxVnMIpVR62bTcK9HjTxhWcmHiK3SViyE5ZHngS5n1VYc9YR2w3TqvSCwDHAQgZNqzlzy1fzgdREDFkp85xnBwU/aYVVIIed7NluWyAUw0c1WI2loghW8REgnmXxhQf2n3OnCZOrdKJd8QTAN5u4MrhaXaXiCFbzJR93MCazt4wbdqZnFolnDWBwhcBBIyLWDHyeCBiyFZu0+c9aGJRVfHZTd/hpGLvYuPxToWZN5hJIHA/O0zEkC0aT+RBAJ6Bdd05AJzO6VWCBUze+wKAegOHtjyVSvWxw0QM2aJxHCcH6DNmpgHOb29vn84pVjxdkUhUoGcYOrz72GEihmzxbdzNmig8ra7hS5xixTMh8lMARl6GFygvFRMxZEux4cNCc8ur59m2zXfNFkHCtt8limONnSle8B52mYghW3Tj+fw/ARQMrW99QHEJAOFUm7yOjo5pnuInBi/G+lN9qV52moghW3T9/f0DAB41uMYHxyKRD3GqTV6jFfyuAFGDh3gr+KJ2IoZsydbxittMLrJALo5Go3twum2/WCRyjArOMXmMCrPnPxFDtuJnGesfxm/GPP0jnwS1faLRaMSCXAGzL7dPIBC4k90mYsiWTLov/RgA1/Ba7zrcMO0XnHLbZgEQtDz9owKthg/1znQ6PcSOEzFkS7qXVcj1xldb8MF4JHoep93WK9UfsX8NYD8fzIlr2G4ihmzpU9byy8lGfxizbd4ItQVx2/6+Amf4YKjjY/n8zew4EUO25DKZzL8BpPywSxPFr2ORyNGcfq+ViETOguJzvlhuCf656e56ImLIliF9FNf5pO51gFybsO2DOQX/JxaJnKGQn/lmwKp/ZteJGLJlPOkULoNPvi8oQJMq/pkIR0/gNARiYfscgVxadXOydHKjExM3svNEDNmySfb1pQD46fFyDSr6p5htf9zHc1Ditv0DEVzko4AFoFeuWLFiA09BRGaruhdft4SaJwRyvJ8WOgK8o60lJAO53L3w0ZN/Ojo6pu3Y0vp7AL5bZHiWdWYul1vJUxCR4buIavuDEolEg05M9AMyy4f9uKsg+IDjOC+YPtBoNNoV8PQaBXz3JCwFHkm7zj48/RD5YBdVbX9QMpkcg8hvfdqPQwOKRfOi0YNMHmQiHD3V8rzH/BiwACAqv+Sph4g72YqZ39ExtxAIpgHU+7QvBUC+P1aY+E5/f/+IKYOa3z5/VqFu7EJATvXvIaf9jTNmxHt7e8d5+iHiTrYilvb3L4fAz19vCAD6pYZA8OlYJHKMCYu5eDh6WqFu/Bl/BywAWD9lwBJxJ1tx0Wh0D8vTx8F3sQLAjUHop5e4bqbW/vCI+UuWAAAHo0lEQVRYZ2wvS7yLVbA324i1GrDCfFYxEUO2KsTD9m0QvJ1tAgBMCHCVV7C+l+5PL6v2PzZh2/tA9UsKOYYLpf/SH6Vc93OsAxFDtmpO1Kp4iG16hQKAaz1Lvp/JZBZX3cIoEjkEwPmAHM5WvSJg10tdXSyZTK5iLYgYslV00o7eAugxbNVmPaOKKzQgv89kMhX7zmU8Hu/UicLJIjgDwHy2ZbOH2ndTbuZLrAMRQ7a6drORyJ4KeQy85LglEyq4Dao3eiJ3OY7jlHrexDvj3SqFw0T0vYDsz/5s0dBYIR/jywCIGLJVupu1rwfwHrZrm6UVcjfg3a2W9fTExMTSqXwVKBaLNWMC80X0zRA9BMAhAOawzNtGFV9PZ51vsBJEDNmqFOuIzZOA9zT8+73ZqfIAZFWxFCLLLNV1HpCzRNepWusFGPEsnSGezFBLmywgpKqtgMwD0AVgZ5Zw0pY3bmjapXdV73qWgoghW8W72ciPADmPLaOaOsBUTk1mM1exEkT+VDNvPQk2Nn4TwAtsGdWQh5PZzNUsA5F/BWrlD12zZs14a3PLWgiOZduoBqglOGEgl+tnKYi4k60JqWzmckAeYNuo6gkuXeY4j7AQRAzZWuIVRD8CYIytoyr2woTnfYFlIKJArf3BuVxudVtLKAhgAdtH1UihpzvZ7OOsBBFZtfhHNzQ1fRdAL9tH1Uagt6Rd9wZWgohqNmR7e3vH1bM+BGCCLaQqsiov8lGWgYj+K1Crf/jg2sEVbaHmAiCHsY1UFbtYT05OZ51FrAQRvXReqPWdeDxi34GNj/kjqhiF/DLtZs5iJYjoFSFV43+/J/ngaQLwwetUSc+OTox9lmUgItNCFsnlyX6ofBAbn89LVO497HpR74QVK1ZsYC2I6NUCJgxiYCi3tDXUXAfIQWwplZOodWoy6y5kJYjI2JAFgMGhoXtaQ6G9AcxjW6lMEfvjVDbzE9aBiF6PZdBYvLFC/hQFMmwrlcHCTjfDpzoRkW9CFv39/QMB6DEABtlaKqGU1AVPXAjkWQoi8k3IAsAy133WsuQ48PnGVBK6WgvWUclkchVrQURbEzBxUAO5nNvaEkoCOB61/11gqh6jAI5K9zlPshRE5NuQBYDBXO7ptlDzBJ8IRUXaweYBvC/lurezFkTk+5AFgIGhofvamkONEBzAVtNUElaAj6Vc948sBRExZF8RtLk7W0ItOwiwL9tNkwlYFZyVct3fsBRExJDdjMGh3O1toVAYwJvZcto+8vm06/yUdSAihuyWd7Q3t4aa2wDZm22nbdnBAvrZlOtcwFIQEUN2m3a0Q7e1hFpm8tIxbTVgVc5JZZ2LWAoiYshuV9Dm/tXSHBoVweFsP21GAYIzUq7Dz2CJiCE7yaB9oK0ltBbA28Dv0dJL21cMQ633pt3MdawGERWDrwMmbtvHQXE1gOmcCr73gnrWsem+9GMsBRExZIskGo3ubXl6M4A5nA6+1etZckwmk3FZCiIqJsvvBchkMv8OQvcVgI/K86d/aMDanwFLRNzJlpBt241BxS8V+BCr4Qsqgh8mHed8AB7LQUQM2TKIh6NnQvTnAOpZDWOtBfSDKdf9K0tBRAzZcgdtJLIfIFcDsFkNwya84t8WvPcvzWbTrAYRlZrFErxWynUflLrgHoBeyWoYw4PgZw0zmw5kwBIRd7JVIhGOnqCivwbQwmrUrKwITks6zj0sBRFxJ1tFktnMdRqw3gTgVlaj5igEv9GAtTsDloi4k62NXe3FAGazGlUvpep9LJ3N3slSEFGlBFiCbTcwlHtmdtOOv9NgYScAu3ORUpXGAPlBQfC+jOsuYzmIiDvZGhTrjO0llvdTAPuxGtVC77CAs5e57rOsBRExZA2oXyIcfa+KXgAgzHJUbBI/p9BPp1yXn5sTUVXh5eIpGhjKPdNeP/eyQv3EegHeDGAaq1I2jgo+3ek6H398aGgpy0FE3MkarHt294yRacNnieALAEKsSKlov6pcYNUHL0kmk2OsBxExZH2ko6OjtTEYPFsVnwTvRC6mlEAvzIv81nGcUZaDiBiyPpZIJBp0vHASRL8A4A2syKT9Byo/7cxm/rgQyLMcRMSQpZezErZ9rCo+BuDt4ENAtsWoQK73VC5JZ9P3sxxExJClrerq7GyfkMCpIvg4+AKCzU3I5zzF74P5+suXrli6mhUhIoYsTUYgFo4dIlI4CZB3A2jzcS2ygF6rXuCadF/6MU4NImLIUtH09PTU5VavPhwqJ0JwNIAdTR+zAhkR3Cyq1yRd9+GN/xUREUOWSiwRDnd7sN4hoocDcjCAOgOGNQro/apyh8C7I5XNLmKniYghSxVl23bIUt1PYO0H6AEA3gJgeg386TkADwr0AbGs+0cmJh7t7+8fYUeJiCFLVaunp6cut2rV7iqyh6Wym4rsBnh7ADKrgn9WFpCnRPUpz8Jiy/MWJ7PZZwF47BgRMWSp5iUSidmFQiEaKMD2oFEBbIh0AtoGRRsEs7H9T6HyAKwRYI1C1kB0DQBHAEeBjCeSCQQCmWQyuZYdICJiyPraAiCYDodnNnredFhWAwAUgBYAsCyrIJ63FgDGLWuD53lj2Ww2B96QREQ0af8fWXVjdbXcUOoAAAAldEVYdGRhdGU6Y3JlYXRlADIwMjQtMDctMDdUMTQ6MjU6NDkrMDA6MDAV2zSAAAAAJXRFWHRkYXRlOm1vZGlmeQAyMDI0LTA3LTA3VDE0OjI1OjQ5KzAwOjAwZIaMPAAAAABJRU5ErkJggg==;" vertex="1" parent="FR8kBGyASRBOxjCdUhm_-8">
          <mxGeometry y="30" width="98.54" height="160" as="geometry" />
        </mxCell>
        <mxCell id="FR8kBGyASRBOxjCdUhm_-10" value="&lt;font style=&quot;font-size: 15px;&quot;&gt;Node: kafka-1&lt;/font&gt;" style="text;html=1;align=center;verticalAlign=middle;whiteSpace=wrap;rounded=0;" vertex="1" parent="FR8kBGyASRBOxjCdUhm_-8">
          <mxGeometry width="120" height="30" as="geometry" />
        </mxCell>
        <mxCell id="FR8kBGyASRBOxjCdUhm_-25" style="edgeStyle=orthogonalEdgeStyle;rounded=0;orthogonalLoop=1;jettySize=auto;html=1;exitX=0.5;exitY=1;exitDx=0;exitDy=0;entryX=0.5;entryY=1;entryDx=0;entryDy=0;" edge="1" parent="1" source="FR8kBGyASRBOxjCdUhm_-11" target="FR8kBGyASRBOxjCdUhm_-19">
          <mxGeometry relative="1" as="geometry">
            <Array as="points">
              <mxPoint x="584" y="600" />
              <mxPoint x="20" y="600" />
            </Array>
          </mxGeometry>
        </mxCell>
        <mxCell id="FR8kBGyASRBOxjCdUhm_-11" value="" style="shape=image;verticalLabelPosition=bottom;labelBackgroundColor=default;verticalAlign=top;aspect=fixed;imageAspect=0;image=data:image/png,iVBORw0KGgoAAAANSUhEUgAAAFoAAABVCAYAAADJ/vPXAAAACXBIWXMAAbybAAG8mwFQ9uauAAAGxGlUWHRYTUw6Y29tLmFkb2JlLnhtcAAAAAAAPD94cGFja2V0IGJlZ2luPSLvu78iIGlkPSJXNU0wTXBDZWhpSHpyZVN6TlRjemtjOWQiPz4gPHg6eG1wbWV0YSB4bWxuczp4PSJhZG9iZTpuczptZXRhLyIgeDp4bXB0az0iQWRvYmUgWE1QIENvcmUgNS42LWMxNDAgNzkuMTYwNDUxLCAyMDE3LzA1LzA2LTAxOjA4OjIxICAgICAgICAiPiA8cmRmOlJERiB4bWxuczpyZGY9Imh0dHA6Ly93d3cudzMub3JnLzE5OTkvMDIvMjItcmRmLXN5bnRheC1ucyMiPiA8cmRmOkRlc2NyaXB0aW9uIHJkZjphYm91dD0iIiB4bWxuczp4bXA9Imh0dHA6Ly9ucy5hZG9iZS5jb20veGFwLzEuMC8iIHhtbG5zOmRjPSJodHRwOi8vcHVybC5vcmcvZGMvZWxlbWVudHMvMS4xLyIgeG1sbnM6cGhvdG9zaG9wPSJodHRwOi8vbnMuYWRvYmUuY29tL3Bob3Rvc2hvcC8xLjAvIiB4bWxuczp4bXBNTT0iaHR0cDovL25zLmFkb2JlLmNvbS94YXAvMS4wL21tLyIgeG1sbnM6c3RFdnQ9Imh0dHA6Ly9ucy5hZG9iZS5jb20veGFwLzEuMC9zVHlwZS9SZXNvdXJjZUV2ZW50IyIgeG1wOkNyZWF0b3JUb29sPSJBZG9iZSBQaG90b3Nob3AgQ0MgMjAxOCAoTWFjaW50b3NoKSIgeG1wOkNyZWF0ZURhdGU9IjIwMjItMDItMThUMTc6NDA6MTErMDM6MDAiIHhtcDpNb2RpZnlEYXRlPSIyMDIyLTAyLTE4VDE3OjQ4OjI5KzAzOjAwIiB4bXA6TWV0YWRhdGFEYXRlPSIyMDIyLTAyLTE4VDE3OjQ4OjI5KzAzOjAwIiBkYzpmb3JtYXQ9ImltYWdlL3BuZyIgcGhvdG9zaG9wOkNvbG9yTW9kZT0iMyIgcGhvdG9zaG9wOklDQ1Byb2ZpbGU9InNSR0IgSUVDNjE5NjYtMi4xIiB4bXBNTTpJbnN0YW5jZUlEPSJ4bXAuaWlkOjlhOTQ5MWRjLTE2NmYtNDAzOC04ZWU4LTc0YzEzMzUwMDI5YyIgeG1wTU06RG9jdW1lbnRJRD0ieG1wLmRpZDphODEwNDcyZC0yMDJlLTQ2NTYtOWM2ZC0wYjA4ZDUxMWQzY2MiIHhtcE1NOk9yaWdpbmFsRG9jdW1lbnRJRD0ieG1wLmRpZDphODEwNDcyZC0yMDJlLTQ2NTYtOWM2ZC0wYjA4ZDUxMWQzY2MiPiA8eG1wTU06SGlzdG9yeT4gPHJkZjpTZXE+IDxyZGY6bGkgc3RFdnQ6YWN0aW9uPSJjcmVhdGVkIiBzdEV2dDppbnN0YW5jZUlEPSJ4bXAuaWlkOmE4MTA0NzJkLTIwMmUtNDY1Ni05YzZkLTBiMDhkNTExZDNjYyIgc3RFdnQ6d2hlbj0iMjAyMi0wMi0xOFQxNzo0MDoxMSswMzowMCIgc3RFdnQ6c29mdHdhcmVBZ2VudD0iQWRvYmUgUGhvdG9zaG9wIENDIDIwMTggKE1hY2ludG9zaCkiLz4gPHJkZjpsaSBzdEV2dDphY3Rpb249InNhdmVkIiBzdEV2dDppbnN0YW5jZUlEPSJ4bXAuaWlkOjY0Y2Q5NWVhLTRhMjEtNGEzOC04MWUzLWJmZDRhODU3MTQ2YiIgc3RFdnQ6d2hlbj0iMjAyMi0wMi0xOFQxNzo0Nzo1MCswMzowMCIgc3RFdnQ6c29mdHdhcmVBZ2VudD0iQWRvYmUgUGhvdG9zaG9wIENDIDIwMTggKE1hY2ludG9zaCkiIHN0RXZ0OmNoYW5nZWQ9Ii8iLz4gPHJkZjpsaSBzdEV2dDphY3Rpb249InNhdmVkIiBzdEV2dDppbnN0YW5jZUlEPSJ4bXAuaWlkOjlhOTQ5MWRjLTE2NmYtNDAzOC04ZWU4LTc0YzEzMzUwMDI5YyIgc3RFdnQ6d2hlbj0iMjAyMi0wMi0xOFQxNzo0ODoyOSswMzowMCIgc3RFdnQ6c29mdHdhcmVBZ2VudD0iQWRvYmUgUGhvdG9zaG9wIENDIDIwMTggKE1hY2ludG9zaCkiIHN0RXZ0OmNoYW5nZWQ9Ii8iLz4gPC9yZGY6U2VxPiA8L3htcE1NOkhpc3Rvcnk+IDwvcmRmOkRlc2NyaXB0aW9uPiA8L3JkZjpSREY+IDwveDp4bXBtZXRhPiA8P3hwYWNrZXQgZW5kPSJyIj8+8uxaegAAFD1JREFUeJzVnXmUXUWdxz+/qnvf3lsCCERDFmIwARRcg85kQBb1jAsIok6QUQQUUNTIJiOLHj0KeNRxHMDIMQIjKsp2RKOAQoDRAQVJCFEShAQCHSBLd+ftt+o3f9R7ndB0k15edyffcyrd6XdfVd3v+91f/baqJ6VSiZ1BRKhWa8SpGBSq9TqRMSiCtQZU8eqxxuK8Yoyg6vHOgwiqijEGFBBFvWKsRYDEuTCGASOmoF73U9XpIma2ojNU2VdEpgraqZABIkAAJ0gZ6PWqm0GfM8asU+/+AeYfxpoNRtjkvMd7wRqDV4eEG8J7D6qYyKIK6j3WGkQE7zzGWrz3CCCm8TdjqCcOG4V7ThJIpWNSkTSmNDSinbI8/ngD8HbgDV55vcDBiKQVBUAEoPm/l+Kl14QPFDGAeO/9ajWyAvRBkIeAe8b/VobGZBDdgXCIqi5UOEZE5gEd6FB0jgZqVHW+euYL8hERrXn1j6ryexGWAw8C3S0abFiYSKLnAe/yyudFzD6qagde8MoP38gg8pLeUqCHinCowheBTcAPBG4mkD7uMOPZeUM+5wD/6VUfUvRbAq9mEJInFKpTReQCMeYB9boUOGy8hxxPog8FrgeWi8hnREmP41ijggKqejKqdwK3AYeP11gtJ1rgVd77r3uv94vIvwF7N1/YFdFQMVkRea/3eof3/lrCU9hStIxoEUHR9zj0Xu/9BaqaaVXfEwVVtd7rScCfFT25lcLREqJFmK6q1yXO3Y7qHBEZuBiFx7QVg40jmvNWaHfOLVXVO0Tkba3ouxVEvyVx/h7vdZEggwqBKkQWrITfdwcIgnqOdN4vA44da39jIlpEjnfOLVPVGQMl+GXXAoWCIrsT2eGWOpzzNyF8cSx9jZpoRb+n6m8Eul6JZO+hraCsWGG5666Y9jY32iEnFapc7lV/KUI8mvePimiBK0DOGvYgITTApZemeX5jREe7w+2GfKvqccCN6MjJHinRBYWlIItHOtDMWZ5SUfjMZ7OUyoaODr9bkg28H2UZMH0kbzLNlXbIRtCvIkKtVr82ce5kY0Zu91gDB7wO7l1u+OzZebyDrs7dj+yGGXuEc+6nyPBDGCZxjiFbkuBV8aognKfKsaM1LZ2DegLzD4Tf32m48MIcoORzIdy420FkgTHmxzJMozV6pXi0qpLJZAFOB/mGtaO34L2HpB5W8oMOgttui2jvyHHhl8oURCmWDHZcIy+thREDuI/WE7c5FWc+E/7asMMH4T7SIWyt7ZaEvlfEXDXWidXrQapRSKVg7lz44Q9jajW49JIyUYfSs1WwkxtuGiEE1J9VKtcfi6P4SpEq1WrCYKo1SsWpQbtw3tOI634nkD4247eeCM4FiU4SiCI46EBY+qOYVAwXXliiUDBs27Z7kW2MUK0mX03F8TLv3ZO1Wo3Bnvyoo6Nj0A6KpRLOsSSKmOWcf5lLPTIopRLUqvSTmCQQx0GNXP8/MdVqjq98pUx7u9Lba3YbslWFOGYqJL9wiS4QoTaYkhhSK4rRk1H3Ce91jCQHlEpCtQ7GbvcMnYNMBua+Fq67Luass/K4BLo6g529+3iQQqXmDnXKpW1tbRQGacZ5x8uac3uq5+tmDIvfQBS3BYke+JnV6yEOcsghcPvtli98PkepZOjq9IiERXR3gKAYY8+3Uer11sYMbKZWqzGwlcqVi7zXfVsZRN66RajVgpf4kgkKJA1b+pBD4N57Iz54fIE1ayztbQ4b7R5kSyPbXywWLymVqwxsxiUJ/c05vHMzxMiiVqiLHdHXJ3j/coluoknm3ANgY7ewaFGe+++Pacsn5HK625AtyAdE/eGiCaKuv233DI1BAFX9MqqdrRhYdfvit2mzGZLkJrwPqmTOnPD74sU5bropQypW2tsD2bu83hYA9xVVj6rrbyaXz5PL58nn86QzmUM98rFWjptqWI/PPmuIhxGKUYVqFWbMgEIBzjs/w3nn5UjqSmeH779mV4bz8g5j4w/GcYpmM+VSmXKpTKlYolatnSYiLStBUCCOlFJJ6O4W4nho1TEQtRp0dsL8eXDzTRGfPDXPM88YOtod6bTid2GyG/r6bO8V5zzOeYxzjkab5Zw7qdU5VGOU5583PNctRCP4CEWCGrEWDjwYHnnEctJJBX7ykzSZtKez3eP9rrlQBmvJv6OeJAc1LTljrcFaQxRHCxGTa+mIDal74QVDX68Qj/BZEQm2tvqgt52Diy/KcMGX8vT2CZ0dnmiXtUpEbGSPRQREMEmS0GhHtdLSUIJ9DPDEPyzeQyo9Ov2qCvUa7LUXHHgQ3HJzxIknFrjvvohC3u2SurtRLHmsryexTxIMEoOkpouYo6G1ohGnwp2vXGEwZvvCOBo0VYkxMH8+PL9R+Pznclx4YY7ubkN7myOV2pUsE0VE3hDFqcOsTWGgCiTvAJnaSgdFCMF+VXjhxUYCYYzdN1WJczBzJkzdA265JebEE/Ms+22abCZYJtaySyQURBTvzDtrtRgDBmM4otVVF00burfXsLHbkG5hQZhqCErlciEopSp84XMZzj03z8MPRxTyvt+FH6t0q46+D0XAuHdGUT1tjI06wbxjbNN5OcIaoPz1EUt3t9A5pfWLlvdQLsPee8OsWbBsmeWUT+S4+JIs3d2WtoKjrc2jOvKxm+9Jp6GjvfGUjHT+KiD6xnTWzjCRMdOA2UMlAEaNhpp48AFLpQLZzPjoTpFgc6fSsP/+sNer4OabYo4/Ps9VV2WplIWO9u0L5nDIci6ovc4OTybtefzxiGKJUTyVCkpaPfOMIvNVNWqpxaGQyyrFovDXv0Z0dIy/zmza1NksHHAApDPw7W+n+MTHCyxdmuHJpyztbZ6uDo+NFB1k0WxKcWeHUih4Hnoo4swzcxz3wRy1ipDL6KiExTv3hsirn9/qAJL3EFnlvgci/rba8OrXTNzipBokfEoXdLTD+vXCZZelWbo0xQePr3PccXWm7ZtAVihXhFpN+r1Ma2jUnAjf/EaWG34as+ZxWLy4zrRpjlJl5/GaQeeEzou889OlWeHSohsNMQ1l+b0xLgkm2UQ7FfVGInjvfWDPvWDbNmHJkhQ3/jzFu99d54QP1dh/tiObUZJEqCdCNuNYuzbi4oszrFxhiSI49E3wxXMqiIQYzEgTyI17nxYJ8hrBhxWyBVCFfM7z7HOWu++O6ZoyeXZt02IQgfZ2mDoVtmyBG34Sc/uvYxYsSHjzGx1HHVWna4rnpzdkuOzyNCIwazY88QR8cXGVri6lt88winIWvApipBAh7KHaIpIJTokIXHdtiqeehEPfGF6b7NoN1ZDh6egIbfMmuOvOiGW/ifjlTSmm7eu5Z7ml0AbTXwN/+hOcemqd446rUCwFz3Zg0mI4CJvKNBsBba27G8ikFeeEhx+OSBw89dR2afJ+kh0J2f6Bd02Bjs4wn40bhXXrLPvsA21tsGIFLFjgWby4jFfp90jHgLT09PZtAPYd8000YGwIAm3eZNiwwfCHuy333xezYUNIxO6xRzCTml7eroBG3IcoCoKRTiu33Vakq8uzZWtLMvLPSU9vXzfwqjF31UAzXdXR7mlsleX5jZY77rLcfXeKBx8IotHVFUj3PkhZiw2fESOOYdMm6O6GK68ss3BhnZ7eMNcWzG2j9PT2PQvsM+auBqC5AEYR5HNKCFgZfvvbmNtvj3noYUtfL+y3X5D0Wq3VMxg+rA0f9uNr4OKLK3z4xCrbira/4KcF6Jae3r5/ADNb0t0QUG0ulEouEz6BJ56wLFmS5te/jshmYdq0cO1Em4HGBFNw5Uo459waZ55RplwxVKsyVr28I56Wnt6+R4CDW9blK6CpVlIpJdsg/J7lMd/5ToaVK4S5cyGfD/bqRKgSkUD0X/4CxxzjuPrqItWaUCyOLBs0DDxhQDa3PM4xBIxpxiaErb2GSlVY+M81rr12Gyd9rM66dbB5c9CX4z0lkTDO2rVw9NGeK74VqmrL5ZaTjIiUjYg+09puhzMwmAbhW3os2SxcfFGJL19cZdOLsK1Iy2924PhRBKtWwdy5nu9/fxttBWXLVtNKdQGE0mdVLRojZv1kbmu1JrjH5YrlxBPKnHZ6jbVrtj/W44E4htWroatLueKKMnGs9IxnYaVItwFWT7ZpZUzQy14tp51W4cgjHevXt15PiwQb/qknYeZM5Zprikyf7ujpHd/SVYFVRtWvCi7G5MIY6OkRrFXOOKMKQG9v68gWCWbc3/8ObW3Kj35UZO5c10pbeYhxBfX+USPIOpCnWncoyRgmZcCrYdZsx8wZnkq5Rf02dPLfVger5nv/VWKPPRy9fbb/9fFAg1Mn8KhxLt4M5oHJVh9NhO3MGkoTWtBfMCeDJB90sOf664vMmxfUxSsVXbYECiKyIkqlnjBxLBgj90y+8mgkdI3y4ouGZ56RYdXqvRJso+j9L3+BmTM9S5YUmTkz6VcX47XY7giBe0R9yYjxRFbuFJG+yVQfqpBqJAxuvTXN5s1Ce/voC26iKHh8q1fDwn9xXPvjEoWCsrXX9geRxhPNaQvyO+ccplo1VKvxWjD3ikwu0fmcY+XKmCVLYvbZh1FJtGpI1Farwa0+5ZM1rvlhkY5Oz9YeM3GGbDiCbnUqk7onTqcxxjqMrWON/Gqy1IcqFPLKqlUR55+fpVAIMezRJAvSadjYDY8+CmedVefccyrUarClx/R7phMBVSUy9tdxZEtxZIki2y/Fy8WbhEk6Cy+K4PE1lqeeFGbvP/JonrWhjzVrgmXxzcsqfOiEKtWqoVhqvVu9M4QNn3JjpVIHFNOs33XOrwJ+MVFxjx0hAsWS8P731Vh0Up0NG4bvgu+4q+DRldDZqVx1VZEPnVClUjWUKxNPcpiXPpT45IFavU6tnmDqSUKzee+/39z0MtFIGtnyww5zpOIg0Tt7zJumW7EY9PGb3+L52U+LzJ+f0NtnWx3qHDa898Tp+Mo4FWucjojTEVGhkO+/wBi5r1qt31Kr1T7Q6lqP4WLPvTyZTFjM8vnBrY6mFEcRrF8H27bB2Z+rcsYZVQRly1Y7ofp4R3jvsZF9OJvJXL/j8NGOboF6MEb+Q0T+tdXVSztDc6iNGw3VGhTahiY5igGFxx6DKVOU73ytwpFH1lCErT2TR3ITBvlqvV6v9Nc6AFG1Uh143SqBGxROmvAZojz+d6FchPS0cBrCjhCBOIKtPUGSFyxwfP0bZfbdJ7jToy0JaCWsMXd5726tlF9qMslgx0iosn/i3AogOxGTcw7a25V6DU45Jc/TTxv22BO8658PqVTI0KxdC9kcnHVmlY98pIq10NNrUBhVgUsr4cNBBQuB5QNfM/1u0g5NjFmLMRfpBGx9aupbaxzXX5/mkUcMe+5AMoSCxZ4eePhhmD3b84OrSyxaVAERtvY03OlJJllViSJ7bRxHy+MoYmCTcqUy1HttrV6/3Tl/jB3H51E1lCaseizi3z+Wo609bHtrqgFVePrpsPCdcHydT51RJp+Dvm0G5yZfVUAzi8KaQj67ILJ2kx9kcZFK9WU6OrwggnduSrVWXwXsPR4Lo2ucq7Rli3DssW0Ut8HMWcHUsxZefBGe3QBvfavjyxdVmDMnwauht1cmJF4xHCig3hetsYdns5kHrTWDmsdDyoOqIsZsjqy9wI9DDYBzkMuFgzQvvyJDdzfMmNnYhF8PLnRxG5z9+RrXXldkzpyEbUVDX59MulXxEqhijbncGvOg98H58/7lbac+U5yKlwIz64m7aDSngw0Gr5DPK6nYc9llOW69JWb+/KAm1q2DShne/Z6EU0+t8roD6tRqllJ5YmMVO4MALpSr3hanUldAWAydcwyWgx1SdfRfIIIRQ7lSvdr55LTgw48e3kM6o2TTnssvz/LfV6aYPy/sRVm/Hg48UDnn3AqHLQi2XW9f0MW72ok06hWx5g4RjomM1Z0eGbozogGssdSSutRqteVGRr+xyHuIYyWfc/zqV1nOPTfN1KnQ1xd2WH34IzVO+USVfN5TqYa6j1ZsmxsPeO/XRDZ6O4YXrJidntIz7HCLhqzAh4FrgGNGPrEmyZ6bb8lx/nmp/lTSokV1jj++xowZDudDrYc1k2+yDQ15RJCPAi8M+x3DlehqvU69XsOIMSrcKJ7jhhtF9xo8unzO8YMfZDn99BRz5sDJJ9dZtKjGfvsFo7mnz+B3QTUxAH8CeZ96/4K1FgwMR6JHQzQqmrZqbvDoscOZmRjIZz2/+U2KT386w1FHOc4+u8bBBwc9XCyZ/iD/rqgmdsD9qJ6AmOfCF+QMn+jRRWqVqhg5DucXI3LFjsGTl12qkE0r3Rstzz5rWbasxLx5gdVtRdMfHt21CRZEuErQc73SN6oeRiXRaOPrmjzWmg95569RpfBKZCUOpnQGu7lYNNQTdhmnY+eQzxnhu6B4ryCGkUp0KxzYnxtjjhHhD0Nd0Mxwl8pCT68hcbuDFIOq/tkYcwLw3bH21aovU/hfVTlCVT8lotWBHmjz/LpkN5DipvsscImqfzOqv2hFv60OyVwNcoiI/Gwy0mFjhaoiIsuNMQsVLm1l3+MR+1oNfNga834RuUMDxmGY1kA1/GOQ/zNiPi7C4TJIPHmsGM8g423A0dbad9koumVXJFtVsdbcI8Z+1ClvQ3QprT6Gp4HxjeaGR/F3InKsiPyTBK+yOK5j7mxK4UcFuNWIvNdaOVpEbhjvcSem4iFsy7pPjNxnjHzNeb8A5Qjgn1BeO151WmGXYz/WA380IneLsNx7fQwGP718PDAZVUlPAk8q/MSIdIrhCK/6JvX6FhEOBtlztB2/hFiRosBKVf2jiKwwcKfXid+v08TkfhWqshXhJuAmwALTRWSGiMxT9bOBWV51L0HSQJow32YkxAMJ4fStmoi8APqUEfMk8Kj3fr0Rs96jO/9S3QnA/wOvcJbPmg9EtQAAAABJRU5ErkJggg==;" vertex="1" parent="1">
          <mxGeometry x="520" y="240" width="127.06" height="120" as="geometry" />
        </mxCell>
        <mxCell id="FR8kBGyASRBOxjCdUhm_-12" style="edgeStyle=orthogonalEdgeStyle;rounded=0;orthogonalLoop=1;jettySize=auto;html=1;exitX=1;exitY=0.5;exitDx=0;exitDy=0;entryX=0;entryY=0.25;entryDx=0;entryDy=0;" edge="1" parent="1" source="FR8kBGyASRBOxjCdUhm_-5" target="FR8kBGyASRBOxjCdUhm_-11">
          <mxGeometry relative="1" as="geometry" />
        </mxCell>
        <mxCell id="FR8kBGyASRBOxjCdUhm_-13" style="edgeStyle=orthogonalEdgeStyle;rounded=0;orthogonalLoop=1;jettySize=auto;html=1;exitX=1;exitY=0.5;exitDx=0;exitDy=0;entryX=0;entryY=0.75;entryDx=0;entryDy=0;" edge="1" parent="1" source="FR8kBGyASRBOxjCdUhm_-9" target="FR8kBGyASRBOxjCdUhm_-11">
          <mxGeometry relative="1" as="geometry" />
        </mxCell>
        <mxCell id="FR8kBGyASRBOxjCdUhm_-14" value="port 9092" style="text;html=1;align=center;verticalAlign=middle;whiteSpace=wrap;rounded=0;fontSize=15;" vertex="1" parent="1">
          <mxGeometry x="430" y="240" width="90" height="30" as="geometry" />
        </mxCell>
        <mxCell id="FR8kBGyASRBOxjCdUhm_-15" value="port 9092" style="text;html=1;align=center;verticalAlign=middle;whiteSpace=wrap;rounded=0;fontSize=15;" vertex="1" parent="1">
          <mxGeometry x="430" y="330" width="90" height="30" as="geometry" />
        </mxCell>
        <mxCell id="FR8kBGyASRBOxjCdUhm_-17" value="&lt;font style=&quot;font-size: 15px;&quot;&gt;Cluster: abcdefghijklmnopqrstuv&lt;br&gt;&lt;/font&gt;" style="text;html=1;align=center;verticalAlign=middle;whiteSpace=wrap;rounded=0;" vertex="1" parent="1">
          <mxGeometry x="200" y="50" width="230" height="30" as="geometry" />
        </mxCell>
        <mxCell id="FR8kBGyASRBOxjCdUhm_-19" value="" style="shape=image;verticalLabelPosition=bottom;labelBackgroundColor=default;verticalAlign=top;aspect=fixed;imageAspect=0;image=data:image/svg+xml,PHN2ZyB4bWw6c3BhY2U9InByZXNlcnZlIiB2aWV3Qm94PSIwIDAgMzQuNDE4IDM0LjQxOCIgeG1sbnM6eGxpbms9Imh0dHA6Ly93d3cudzMub3JnLzE5OTkveGxpbmsiIHhtbG5zPSJodHRwOi8vd3d3LnczLm9yZy8yMDAwL3N2ZyIgaWQ9IkNhcGFfMSIgdmVyc2lvbj0iMS4xIiB3aWR0aD0iODAwcHgiIGhlaWdodD0iODAwcHgiPiYjeGE7PGc+JiN4YTsJPHBhdGggZD0iTTMyLjMzNSwxMS42MDZoLTYuNTMzdi0xLjAwOWg2LjUzM1YxMS42MDZ6IE0zMi4zMzUsMTIuMjY0aC02LjUzM3YxLjAxMWg2LjUzM1YxMi4yNjR6JiN4QTsmIzk7JiM5OyBNMzIuMzMxLDcuNjg3aC02LjUyM1Y5LjkxaDYuNTIzVjcuNjg3eiBNMzQuNDE4LDUuMjk3djIzLjgyN2MtMC4wMDEsMC4zNTctMC4yOTIsMC42NDgtMC42NSwwLjY0OGgtOS4zOTcmI3hBOyYjOTsmIzk7Yy0wLjM1OSwwLTAuNjQ5LTAuMjkxLTAuNjQ5LTAuNjQ5VjUuMjk3YzAtMC4zNTgsMC4yOS0wLjY1LDAuNjQ5LTAuNjVoOS4zOTdDMzQuMTI3LDQuNjQ3LDM0LjQxOCw0LjkzOSwzNC40MTgsNS4yOTd6JiN4QTsmIzk7JiM5OyBNMzMuMTE5LDUuOTQ0aC04LjF2MjIuNTNoOC4xVjUuOTQ0eiBNMzIuMzM1LDEzLjkzMmgtNi41MzN2MS4wMDhoNi41MzNWMTMuOTMyeiBNMzEuMjcyLDIxLjQ1YzAsMS4xNjItMC45MzksMi4wOTktMi4wOTcsMi4wOTkmI3hBOyYjOTsmIzk7Yy0xLjE2LDAtMi4wOTktMC45MzgtMi4wOTktMi4wOTljMC0xLjE1OCwwLjk0LTIuMDk4LDIuMDk5LTIuMDk4QzMwLjMzMywxOS4zNTIsMzEuMjcyLDIwLjI5MywzMS4yNzIsMjEuNDV6IE0zMC41MTUsMjEuNDUmI3hBOyYjOTsmIzk7YzAtMC43MzktMC42LTEuMzQxLTEuMzQxLTEuMzQxYy0wLjc0MiwwLTEuMzQyLDAuNjAxLTEuMzQyLDEuMzQxczAuNiwxLjM0LDEuMzQyLDEuMzRDMjkuOTE1LDIyLjc5LDMwLjUxNSwyMi4xOSwzMC41MTUsMjEuNDV6JiN4QTsmIzk7JiM5OyBNMjEuOTM3LDkuMjE4djEzLjUwNWMwLDAuODE0LTAuNjU1LDEuNDczLTEuNDYxLDEuNDczSDEzLjE4YzAsMC0wLjQxNCwyLjk0OCwyLjIxMiwyLjk0OHYxLjQ3NUgxMy4xOEg4Ljc1OEg2LjU0NnYtMS40NzMmI3hBOyYjOTsmIzk7YzIuNTI5LDAsMi4yMTItMi45NDgsMi4yMTItMi45NDhIMS40NjVDMC42NTYsMjQuMTk4LDAsMjMuNTM5LDAsMjIuNzI1VjkuMjE4YzAtMC44MTQsMC42NTYtMS40NywxLjQ2NS0xLjQ3aDE5LjAxJiN4QTsmIzk7JiM5O0MyMS4yODIsNy43NDgsMjEuOTM3LDguNDA0LDIxLjkzNyw5LjIxOHogTTEyLjMzMiwyMi4zOTRjMC0wLjY5OC0wLjU2Ni0xLjI2My0xLjI2NC0xLjI2M2MtMC42OTksMC0xLjI2NiwwLjU2NS0xLjI2NiwxLjI2MyYjeEE7JiM5OyYjOTtzMC41NjYsMS4yNjUsMS4yNjYsMS4yNjVDMTEuNzY3LDIzLjY1OSwxMi4zMzIsMjMuMDkyLDEyLjMzMiwyMi4zOTR6IE0yMC4zNzEsOS4zMTFIMS41Njh2MTEuMzg3SDIwLjM3aDAuMDAxJiN4QTsmIzk7JiM5O0MyMC4zNzEsMjAuNjk4LDIwLjM3MSw5LjMxMSwyMC4zNzEsOS4zMTF6IE0xMS4wODEsMjEuNjAzYy0wLjQzNCwwLTAuNzg1LDAuMzUyLTAuNzg1LDAuNzg1czAuMzUyLDAuNzg1LDAuNzg1LDAuNzg1JiN4QTsmIzk7JiM5O3MwLjc4NS0wLjM1MiwwLjc4NS0wLjc4NVMxMS41MTUsMjEuNjAzLDExLjA4MSwyMS42MDN6IiBzdHlsZT0iZmlsbDojMDEwMDAyOyIvPiYjeGE7PC9nPiYjeGE7PC9zdmc+;" vertex="1" parent="1">
          <mxGeometry x="-40" y="240" width="120" height="120" as="geometry" />
        </mxCell>
        <mxCell id="FR8kBGyASRBOxjCdUhm_-20" value="Host" style="text;html=1;align=center;verticalAlign=middle;whiteSpace=wrap;rounded=0;fontSize=15;" vertex="1" parent="1">
          <mxGeometry x="-40" y="220" width="60" height="30" as="geometry" />
        </mxCell>
        <mxCell id="FR8kBGyASRBOxjCdUhm_-21" style="edgeStyle=orthogonalEdgeStyle;rounded=0;orthogonalLoop=1;jettySize=auto;html=1;exitX=0;exitY=0.5;exitDx=0;exitDy=0;entryX=1;entryY=0.25;entryDx=0;entryDy=0;" edge="1" parent="1" source="FR8kBGyASRBOxjCdUhm_-5" target="FR8kBGyASRBOxjCdUhm_-19">
          <mxGeometry relative="1" as="geometry" />
        </mxCell>
        <mxCell id="FR8kBGyASRBOxjCdUhm_-22" style="edgeStyle=orthogonalEdgeStyle;rounded=0;orthogonalLoop=1;jettySize=auto;html=1;exitX=0;exitY=0.5;exitDx=0;exitDy=0;entryX=1;entryY=0.75;entryDx=0;entryDy=0;" edge="1" parent="1" source="FR8kBGyASRBOxjCdUhm_-9" target="FR8kBGyASRBOxjCdUhm_-19">
          <mxGeometry relative="1" as="geometry" />
        </mxCell>
        <mxCell id="FR8kBGyASRBOxjCdUhm_-23" value="port 9094" style="text;html=1;align=center;verticalAlign=middle;whiteSpace=wrap;rounded=0;fontSize=15;" vertex="1" parent="1">
          <mxGeometry x="80" y="240" width="90" height="30" as="geometry" />
        </mxCell>
        <mxCell id="FR8kBGyASRBOxjCdUhm_-24" value="port 9095" style="text;html=1;align=center;verticalAlign=middle;whiteSpace=wrap;rounded=0;fontSize=15;" vertex="1" parent="1">
          <mxGeometry x="80" y="330" width="90" height="30" as="geometry" />
        </mxCell>
        <mxCell id="FR8kBGyASRBOxjCdUhm_-26" value="port 8080" style="text;html=1;align=center;verticalAlign=middle;whiteSpace=wrap;rounded=0;fontSize=15;" vertex="1" parent="1">
          <mxGeometry x="240" y="570" width="90" height="30" as="geometry" />
        </mxCell>
      </root>
    </mxGraphModel>
  </diagram>
</mxfile>
